<svg xmlns="http://www.w3.org/2000/svg" xmlns:xlink="http://www.w3.org/1999/xlink" width="1920" height="1080" viewBox="0 0 1920 1080"><defs><style>.a{clip-path:url(#c);}.b,.c{mix-blend-mode:soft-light;isolation:isolate;}.c{font-size:66px;font-family:DingTalk-JinBuTi, DingTalk JinBuTi;}.d{fill:url(#a);}</style><linearGradient id="a" x1="0.5" x2="0.5" y2="1" gradientUnits="objectBoundingBox"><stop offset="0" stop-color="#feffe0"/><stop offset="1" stop-color="#fce1e6"/></linearGradient><clipPath id="c"><rect width="1920" height="1080"/></clipPath></defs><g id="b" class="a"><rect class="d" width="1920" height="1080"/><g transform="translate(0 -58)"><g transform="translate(60 51.263)"><path class="b" d="M550.92,406.976A63.554,63.554,0,0,1,487.1,470.8H429.19l29.546-43.728h29.547c10.637,0,20.091-9.455,20.091-20.092V339.61c0-10.637-9.454-20.092-20.091-20.092H127.82c-10.637,0-20.092,9.455-20.092,20.092v67.365c0,10.637,9.455,20.092,20.092,20.092h73.275V470.8H127.82A63.554,63.554,0,0,1,64,406.976V339.61a63.554,63.554,0,0,1,63.82-63.82h99.275V242.7H186.912L266.1,149.333V276.972h82.729V150.515h37.819V275.791H487.1a63.554,63.554,0,0,1,63.82,63.82v67.365ZM348.825,544.07V345.52h37.819v80.365h40.183ZM293.278,470.8h29.546V427.067H293.278Zm-66.184,62.638h40.183V345.52H227.095Z" transform="translate(593 35.404)"/><path class="b" d="M22.07,11.035A11.035,11.035,0,0,0,11.035,22.07V154.491A11.035,11.035,0,0,0,22.07,165.526H154.491a11.035,11.035,0,0,0,11.035-11.035V22.07a11.035,11.035,0,0,0-11.035-11.035Zm54.8,76.617v53.233a5.518,5.518,0,0,0,11.035,0v-8.552H108.2a5.518,5.518,0,1,0,0-11.035h-20.3V110.262h20.3a5.518,5.518,0,1,0,0-11.035h-20.3V87.806a27.588,27.588,0,1,0-11.035-.154ZM22.07,0H154.491a22.07,22.07,0,0,1,22.07,22.07V154.491a22.07,22.07,0,0,1-22.07,22.07H22.07A22.07,22.07,0,0,1,0,154.491V22.07A22.07,22.07,0,0,1,22.07,0ZM82.763,77.245A16.553,16.553,0,1,1,99.316,60.693,16.553,16.553,0,0,1,82.763,77.245Z" transform="translate(812.18 616.07)"/></g><text class="c" transform="translate(348 944)"><tspan x="0" y="0">在 NAT 网络环境下获得被外网访问的权利</tspan></text></g></g></svg>