<svg width="1280" height="720" xmlns="http://www.w3.org/2000/svg" xmlns:xlink="http://www.w3.org/1999/xlink" overflow="hidden"><defs><filter id="fx0" x="-10%" y="-10%" width="120%" height="120%" filterUnits="userSpaceOnUse" primitiveUnits="userSpaceOnUse"><feComponentTransfer color-interpolation-filters="sRGB"><feFuncR type="discrete" tableValues="0 0"/><feFuncG type="discrete" tableValues="0 0"/><feFuncB type="discrete" tableValues="0 0"/><feFuncA type="linear" slope="0.431373" intercept="0"/></feComponentTransfer><feGaussianBlur stdDeviation="0.845968 0.845968"/></filter><filter id="fx1" x="-10%" y="-10%" width="120%" height="120%" filterUnits="userSpaceOnUse" primitiveUnits="userSpaceOnUse"><feComponentTransfer color-interpolation-filters="sRGB"><feFuncR type="discrete" tableValues="0 0"/><feFuncG type="discrete" tableValues="0 0"/><feFuncB type="discrete" tableValues="0 0"/><feFuncA type="linear" slope="0.431373" intercept="0"/></feComponentTransfer><feGaussianBlur stdDeviation="0.845968 0.845968"/></filter><radialGradient cx="0" cy="0" r="1" gradientUnits="userSpaceOnUse" spreadMethod="pad" id="fill2" gradientTransform="matrix(-237.469 256.093 -256.093 -237.469 579.469 277.812)"><stop offset="0" stop-color="#FFF478"/><stop offset="0.474827" stop-color="#FFB02E"/><stop offset="1" stop-color="#F70A8D"/></radialGradient><radialGradient cx="0" cy="0" r="1" gradientUnits="userSpaceOnUse" spreadMethod="pad" id="fill3" gradientTransform="matrix(-242.126 270.062 -270.062 -242.126 579.469 277.812)"><stop offset="0" stop-color="#FFF478"/><stop offset="0.474827" stop-color="#FFB02E"/><stop offset="1" stop-color="#F70A8D"/></radialGradient><radialGradient cx="0" cy="0" r="1" gradientUnits="userSpaceOnUse" spreadMethod="pad" id="fill4" gradientTransform="matrix(-32.594 162.969 -208.732 -41.7467 491 310.406)"><stop offset="0" stop-color="#F59639" stop-opacity="0"/><stop offset="0.787821" stop-color="#F59639" stop-opacity="0"/><stop offset="0.972509" stop-color="#FF7DCE"/><stop offset="1" stop-color="#FF7DCE"/></radialGradient><radialGradient cx="0" cy="0" r="1" gradientUnits="userSpaceOnUse" spreadMethod="pad" id="fill5" gradientTransform="matrix(-270.063 270.063 -270.063 -270.063 509.625 324.375)"><stop offset="0" stop-color="#000000" stop-opacity="0"/><stop offset="0.314853" stop-color="#000000" stop-opacity="0"/><stop offset="1" stop-color="#000000" stop-opacity="0.6"/></radialGradient><radialGradient cx="0" cy="0" r="1" gradientUnits="userSpaceOnUse" spreadMethod="pad" id="fill6" gradientTransform="matrix(55.8749 256.093 -256.093 55.8749 491 352.312)"><stop offset="0" stop-color="#7D6133" stop-opacity="0"/><stop offset="0.507903" stop-color="#7D6133" stop-opacity="0"/><stop offset="1" stop-color="#715B32"/></radialGradient><radialGradient cx="0" cy="0" r="1" gradientUnits="userSpaceOnUse" spreadMethod="pad" id="fill7" gradientTransform="matrix(69.8437 102.437 -74.2519 50.6263 495.656 347.656)"><stop offset="0" stop-color="#FFB849"/><stop offset="1" stop-color="#FFB847" stop-opacity="0"/></radialGradient><radialGradient cx="0" cy="0" r="1" gradientUnits="userSpaceOnUse" spreadMethod="pad" id="fill8" gradientTransform="matrix(107.094 18.625 -18.625 107.094 532.906 361.625)"><stop offset="0" stop-color="#FFA64B"/><stop offset="0.900412" stop-color="#FFAE46" stop-opacity="0"/><stop offset="1" stop-color="#FFAE46" stop-opacity="0"/></radialGradient><radialGradient cx="0" cy="0" r="1" gradientUnits="userSpaceOnUse" spreadMethod="pad" id="fill9" gradientTransform="matrix(395.781 381.812 -381.812 395.781 504.969 333.688)"><stop offset="0" stop-color="#000000" stop-opacity="0"/><stop offset="0.185425" stop-color="#000000" stop-opacity="0"/><stop offset="1" stop-color="#000000" stop-opacity="0.4"/></radialGradient><linearGradient x1="562.813" y1="315.062" x2="560.831" y2="339.04" gradientUnits="userSpaceOnUse" spreadMethod="pad" id="fill10"><stop offset="0" stop-color="#553B3E"/><stop offset="1" stop-color="#3D2432"/></linearGradient><linearGradient x1="518.658" y1="369" x2="518.658" y2="409.006" gradientUnits="userSpaceOnUse" spreadMethod="pad" id="fill11"><stop offset="0" stop-color="#4F3C43"/><stop offset="1" stop-color="#512756"/></linearGradient><linearGradient x1="405.635" y1="290.85" x2="405.635" y2="274.087" gradientUnits="userSpaceOnUse" spreadMethod="pad" id="stroke12"><stop offset="0" stop-color="#524049"/><stop offset="0.0299084" stop-color="#524049"/><stop offset="1" stop-color="#4A2C42"/></linearGradient><linearGradient x1="576.365" y1="290.85" x2="576.365" y2="274.087" gradientUnits="userSpaceOnUse" spreadMethod="pad" id="stroke13"><stop offset="0" stop-color="#524049"/><stop offset="0.0299084" stop-color="#524049"/><stop offset="1" stop-color="#4A2C42"/></linearGradient><clipPath id="clip14"><rect x="31" y="25" width="181" height="45"/></clipPath><clipPath id="clip15"><rect x="21" y="18" width="93" height="38"/></clipPath></defs><g><rect x="0" y="0" width="1280" height="720" fill="#404040"/><g><g><g><path d="M490.99 473.355C577.916 473.355 621.354 414.988 621.354 342.99 621.354 270.991 577.916 212.625 490.99 212.625 404.062 212.625 360.625 270.991 360.625 342.99 360.625 414.988 404.062 473.355 490.99 473.355Z" fill="url(#fill2)"/><path d="M490.99 473.355C577.916 473.355 621.354 414.988 621.354 342.99 621.354 270.991 577.916 212.625 490.99 212.625 404.062 212.625 360.625 270.991 360.625 342.99 360.625 414.988 404.062 473.355 490.99 473.355Z" fill="url(#fill3)"/><path d="M490.99 473.355C577.916 473.355 621.354 414.988 621.354 342.99 621.354 270.991 577.916 212.625 490.99 212.625 404.062 212.625 360.625 270.991 360.625 342.99 360.625 414.988 404.062 473.355 490.99 473.355Z" fill="url(#fill4)"/><path d="M490.99 473.355C577.916 473.355 621.354 414.988 621.354 342.99 621.354 270.991 577.916 212.625 490.99 212.625 404.062 212.625 360.625 270.991 360.625 342.99 360.625 414.988 404.062 473.355 490.99 473.355Z" fill="url(#fill5)"/><path d="M490.99 473.355C577.916 473.355 621.354 414.988 621.354 342.99 621.354 270.991 577.916 212.625 490.99 212.625 404.062 212.625 360.625 270.991 360.625 342.99 360.625 414.988 404.062 473.355 490.99 473.355Z" fill="url(#fill6)"/><path d="M490.99 473.355C577.916 473.355 621.354 414.988 621.354 342.99 621.354 270.991 577.916 212.625 490.99 212.625 404.062 212.625 360.625 270.991 360.625 342.99 360.625 414.988 404.062 473.355 490.99 473.355Z" fill="url(#fill7)"/><path d="M490.99 473.355C577.916 473.355 621.354 414.988 621.354 342.99 621.354 270.991 577.916 212.625 490.99 212.625 404.062 212.625 360.625 270.991 360.625 342.99 360.625 414.988 404.062 473.355 490.99 473.355Z" fill="url(#fill8)"/><path d="M490.99 473.355C577.916 473.355 621.354 414.988 621.354 342.99 621.354 270.991 577.916 212.625 490.99 212.625 404.062 212.625 360.625 270.991 360.625 342.99 360.625 414.988 404.062 473.355 490.99 473.355Z" fill="url(#fill9)"/><path d="M397.875 319.719C397.875 318.145 397.962 316.592 398.131 315.062L481.431 315.062C481.601 316.592 481.688 318.145 481.688 319.719 481.688 342.863 462.926 361.625 439.781 361.625 416.637 361.625 397.875 342.863 397.875 319.719ZM500.312 319.719C500.312 318.145 500.399 316.592 500.569 315.062L583.869 315.062C584.038 316.592 584.125 318.145 584.125 319.719 584.125 342.863 565.363 361.625 542.219 361.625 519.074 361.625 500.312 342.863 500.312 319.719Z" fill="#FFFFFF" fill-rule="evenodd"/><path d="M435.125 317.391C435.125 316.604 435.168 315.827 435.253 315.062L476.904 315.062C476.988 315.827 477.031 316.604 477.031 317.391 477.031 328.98 467.668 338.344 456.078 338.344 444.489 338.251 435.125 328.887 435.125 317.391ZM537.562 317.391C537.562 316.604 537.605 315.827 537.69 315.062L579.341 315.062C579.426 315.827 579.469 316.604 579.469 317.391 579.469 328.98 570.105 338.344 558.516 338.344 546.926 338.251 537.562 328.887 537.562 317.391Z" fill="url(#fill10)" fill-rule="evenodd"/><path d="M559.188 380.188C564.057 381.845 566.66 387.135 565.003 392.004 552.818 427.804 513.891 446.884 478.104 434.596 473.24 432.925 470.65 427.628 472.321 422.763 473.991 417.9 479.289 415.31 484.153 416.98 510.201 425.924 538.51 412.038 547.371 386.003 549.029 381.134 554.318 378.53 559.188 380.188Z" fill="url(#fill11)" fill-rule="evenodd"/><path d="M402.531 282.469C405.635 273.156 417.431 254.531 439.781 254.531" stroke="url(#stroke12)" stroke-width="9.3125" stroke-linecap="round" stroke-linejoin="round" fill="none"/><path d="M579.469 282.469C576.365 273.156 564.569 254.531 542.219 254.531" stroke="url(#stroke13)" stroke-width="9.3125" stroke-linecap="round" stroke-linejoin="round" fill="none"/></g></g></g><g clip-path="url(#clip14)" filter="url(#fx0)" transform="translate(632 295)"><g><path d="M21.792-35.232C25.5025-35.1945 28.2861-34.3909 30.1429-32.8211 31.9996-31.2514 32.928-28.999 32.928-26.064 32.928-25.742 32.892-25.1488 32.82-24.2843L32.6235-22.662C32.2325-19.696 31.1745-17.3254 29.4495-15.5501 27.7245-13.7749 25.556-12.6952 22.944-12.3112L32.736 1.728 25.0793 1.728 15.9593-11.952 10.0688-11.952 8.38875 1.728 1.824 1.728 6.28725-35.232ZM20.6737-18.048C22.1327-18.074 23.3194-18.4207 24.2336-19.0883 25.1479-19.7558 25.7125-20.9482 25.9275-22.6658L26.208-24.681C26.24-24.909 26.256-25.194 26.256-25.536 26.256-26.81 25.8906-27.721 25.1599-28.269 24.4291-28.817 23.3065-29.106 21.792-29.136L12.1807-29.136 10.752-18.048ZM50.7493-26.112C54.1773-26.112 56.7783-25.2926 58.5523-23.6539 60.3263-22.0151 61.2133-19.6185 61.2133-16.464 61.2133-15.7635 61.1628-14.9755 61.0618-14.1L60.4828-9.36 42.6373-9.36 42.6373-9.8295C42.5733-9.1275 42.5413-8.635 42.5413-8.352 42.5413-6.841 42.963-5.73525 43.8062-5.03475 44.6495-4.33425 46.1318-3.984 48.2533-3.984L50.6053-3.984C52.2923-3.984 54.9803-4.144 58.6693-4.464L58.0933 1.44825C55.0188 1.76275 52.3468 1.92 50.0773 1.92L47.7253 1.92C43.7298 1.92 40.779 1.09337 38.8727-0.559875 36.9665-2.21312 36.0133-4.6345 36.0133-7.824 36.0133-8.5915 36.0613-9.35925 36.1573-10.1272L36.6373-14.1593C37.0963-18.0918 38.4098-21.067 40.5778-23.085 42.7458-25.103 45.8163-26.112 49.7893-26.112ZM54.6373-14.928 54.6373-14.5778C54.7013-15.2812 54.7333-15.782 54.7333-16.08 54.7333-17.479 54.3721-18.5327 53.6496-19.2413 52.9271-19.9497 51.7523-20.304 50.1253-20.304L49.1653-20.304C45.6703-20.304 43.6863-18.512 43.2133-14.928ZM75.564-25.92 83.82-25.92 83.1375-19.872 74.8815-19.872 72.2415 1.728 65.82 1.728 68.46-19.872 62.892-19.872 63.5625-25.92 69.1313-25.92 69.324-27.5033C70.06-33.4237 73.484-36.384 79.596-36.384 81.007-36.384 82.847-36.2878 85.116-36.0952L84.2753-30.144 82.2218-30.2415C80.7153-30.3045 79.808-30.336 79.5-30.336 78.229-30.336 77.3152-30.0369 76.7588-29.4386 76.2023-28.8404 75.8477-27.8557 75.6953-26.4848ZM98.916-26.112C102.344-26.112 104.945-25.2926 106.719-23.6539 108.493-22.0151 109.38-19.6185 109.38-16.464 109.38-15.7635 109.329-14.9755 109.229-14.1L108.649-9.36 90.804-9.36 90.804-9.8295C90.74-9.1275 90.708-8.635 90.708-8.352 90.708-6.841 91.1296-5.73525 91.9729-5.03475 92.8161-4.33425 94.2985-3.984 96.42-3.984L98.772-3.984C100.459-3.984 103.147-4.144 106.836-4.464L106.26 1.44825C103.186 1.76275 100.513 1.92 98.244 1.92L95.892 1.92C91.8965 1.92 88.9456 1.09337 87.0394-0.559875 85.1331-2.21312 84.18-4.6345 84.18-7.824 84.18-8.5915 84.228-9.35925 84.324-10.1272L84.804-14.1593C85.263-18.0918 86.5765-21.067 88.7445-23.085 90.9125-25.103 93.983-26.112 97.956-26.112ZM102.804-14.928 102.804-14.5778C102.868-15.2812 102.9-15.782 102.9-16.08 102.9-17.479 102.539-18.5327 101.816-19.2413 101.094-19.9497 99.919-20.304 98.292-20.304L97.332-20.304C93.837-20.304 91.853-18.512 91.38-14.928ZM129.029-19.776C126.761-19.84 125.347-19.872 124.787-19.872 122.87-19.872 121.442-19.4246 120.503-18.5299 119.564-17.6351 118.974-16.1265 118.731-14.004L116.759 1.728 110.339 1.728 112.211-13.9672C112.701-18.1242 113.975-21.1556 116.031-23.0614 118.088-24.9671 121.214-25.92 125.411-25.92 126.983-25.92 128.503-25.855 129.971-25.725ZM144.583-26.112C148.011-26.112 150.612-25.2926 152.386-23.6539 154.16-22.0151 155.047-19.6185 155.047-16.464 155.047-15.7635 154.996-14.9755 154.895-14.1L154.316-9.36 136.471-9.36 136.471-9.8295C136.407-9.1275 136.375-8.635 136.375-8.352 136.375-6.841 136.796-5.73525 137.64-5.03475 138.483-4.33425 139.965-3.984 142.087-3.984L144.439-3.984C146.126-3.984 148.814-4.144 152.503-4.464L151.927 1.44825C148.852 1.76275 146.18 1.92 143.911 1.92L141.559 1.92C137.563 1.92 134.612 1.09337 132.706-0.559875 130.8-2.21312 129.847-4.6345 129.847-7.824 129.847-8.5915 129.895-9.35925 129.991-10.1272L130.471-14.1593C130.93-18.0918 132.243-21.067 134.411-23.085 136.579-25.103 139.65-26.112 143.623-26.112ZM148.471-14.928 148.471-14.5778C148.535-15.2812 148.567-15.782 148.567-16.08 148.567-17.479 148.205-18.5327 147.483-19.2413 146.76-19.9497 145.586-20.304 143.959-20.304L142.999-20.304C139.504-20.304 137.52-18.512 137.047-14.928ZM174.696-19.776C172.428-19.84 171.014-19.872 170.453-19.872 168.536-19.872 167.108-19.4246 166.17-18.5299 165.231-17.6351 164.64-16.1265 164.398-14.004L162.425 1.728 156.005 1.728 157.877-13.9672C158.368-18.1242 159.641-21.1556 161.698-23.0614 163.754-24.9671 166.881-25.92 171.077-25.92 172.65-25.92 174.17-25.855 175.637-25.725Z" fill="#F2F2F2" transform="translate(32.618 65)"/></g></g><text fill="#F2F2F2" font-family="DingTalk JinBuTi,DingTalk JinBuTi_MSFontService,sans-serif" font-weight="700" font-size="48" transform="translate(662.823 358)">Referer</text><g clip-path="url(#clip15)" filter="url(#fx1)" transform="translate(829 315)"><g><path d="M12.9085-13.184C11.3965-13.2267 10.4537-13.248 10.08-13.248 8.802-13.248 7.85008-12.9497 7.22425-12.3533 6.59842-11.7568 6.20467-10.751 6.043-9.336L4.728 1.152 0.448 1.152 1.696-9.3115C2.023-12.0828 2.872-14.1038 4.243-15.3743 5.614-16.6447 7.69833-17.28 10.496-17.28 11.5443-17.28 12.5577-17.2367 13.536-17.15ZM23.2773-17.408C25.5627-17.408 27.2967-16.8618 28.4793-15.7693 29.662-14.6768 30.2533-13.079 30.2533-10.976 30.2533-10.509 30.2197-9.98367 30.1523-9.4L29.7663-6.24 17.8693-6.24 17.8693-6.553C17.8267-6.085 17.8053-5.75667 17.8053-5.568 17.8053-4.56067 18.0864-3.8235 18.6486-3.3565 19.2108-2.8895 20.199-2.656 21.6133-2.656L23.1813-2.656C24.306-2.656 26.098-2.76267 28.5573-2.976L28.1733 0.9655C26.1237 1.17517 24.3423 1.28 22.8293 1.28L21.2613 1.28C18.5977 1.28 16.6304 0.728917 15.3596-0.37325 14.0887-1.47542 13.4533-3.08967 13.4533-5.216 13.4533-5.72767 13.4853-6.2395 13.5493-6.7515L13.8693-9.4395C14.1753-12.0612 15.051-14.0447 16.4963-15.39 17.9417-16.7353 19.9887-17.408 22.6373-17.408ZM25.8693-9.952 25.8693-9.7185C25.912-10.1875 25.9333-10.5213 25.9333-10.72 25.9333-11.6527 25.6925-12.3552 25.2108-12.8275 24.7292-13.2998 23.946-13.536 22.8613-13.536L22.2213-13.536C19.8913-13.536 18.5687-12.3413 18.2533-9.952ZM38.684-19.072 33.892-19.072 34.404-23.52 39.204-23.52ZM33.923-17.28 38.212-17.28 35.903 2.056C35.6583 4.036 34.9953 5.52167 33.9138 6.513 32.8323 7.50433 31.2463 8 29.156 8 28.056 8 27.0533 7.93183 26.148 7.7955L26.564 3.744C27.4997 3.85067 28.4383 3.904 29.38 3.904 30.0693 3.904 30.5952 3.70417 30.9578 3.3045 31.3203 2.90483 31.5517 2.27283 31.652 1.4085ZM49.6107-17.408C51.896-17.408 53.63-16.8618 54.8127-15.7693 55.9953-14.6768 56.5867-13.079 56.5867-10.976 56.5867-10.509 56.553-9.98367 56.4857-9.4L56.0997-6.24 44.2027-6.24 44.2027-6.553C44.16-6.085 44.1387-5.75667 44.1387-5.568 44.1387-4.56067 44.4198-3.8235 44.9819-3.3565 45.5441-2.8895 46.5323-2.656 47.9467-2.656L49.5147-2.656C50.6393-2.656 52.4313-2.76267 54.8907-2.976L54.5067 0.9655C52.457 1.17517 50.6757 1.28 49.1627 1.28L47.5947 1.28C44.931 1.28 42.9637 0.728917 41.6929-0.37325 40.4221-1.47542 39.7867-3.08967 39.7867-5.216 39.7867-5.72767 39.8187-6.2395 39.8827-6.7515L40.2027-9.4395C40.5087-12.0612 41.3843-14.0447 42.8297-15.39 44.275-16.7353 46.322-17.408 48.9707-17.408ZM52.2027-9.952 52.2027-9.7185C52.2453-10.1875 52.2667-10.5213 52.2667-10.72 52.2667-11.6527 52.0258-12.3552 51.5442-12.8275 51.0625-13.2998 50.2793-13.536 49.1947-13.536L48.5547-13.536C46.2247-13.536 44.902-12.3413 44.5867-9.952ZM66.7213-13.248C65.4863-13.248 64.5506-12.9248 63.9141-12.2785 63.2776-11.6322 62.8783-10.6513 62.7163-9.336L62.3933-6.5585C62.356-6.1855 62.3373-5.898 62.3373-5.696 62.3373-3.73333 63.3293-2.752 65.3133-2.752L66.5613-2.752C67.5367-2.752 69.254-2.85867 71.7133-3.072L71.3293 0.9655C69.2797 1.17517 67.573 1.28 66.2093 1.28L64.8973 1.28C60.268 1.28 57.9533-0.832 57.9533-5.056 57.9533-5.61033 57.9853-6.1755 58.0493-6.7515L58.3693-9.3115C58.697-11.9338 59.5834-13.9175 61.0286-15.2625 62.4737-16.6075 64.51-17.28 67.1373-17.28L68.0063-17.28 73.1213-17.2065 72.6658-13.216ZM73.384-13.248 73.831-17.28 77.8625-17.28 78.4065-21.824 82.696-21.824 82.152-17.28 87.592-17.28 87.137-13.248 81.697-13.248 80.739-5.363C80.721-5.23433 80.712-5.04667 80.712-4.8 80.712-3.56267 81.3093-2.944 82.504-2.944 83.2027-2.944 84.376-2.976 86.024-3.04L85.571 1.0745C84.5423 1.12617 83.3813 1.152 82.088 1.152 80.2587 1.152 78.8307 0.729917 77.804-0.11425 76.7773-0.958417 76.264-2.211 76.264-3.872 76.264-4.05767 76.2867-4.39933 76.332-4.897L77.384-13.248Z" fill="#C00000" transform="translate(23.4513 45)"/></g></g><text fill="#C00000" font-family="DingTalk JinBuTi,DingTalk JinBuTi_MSFontService,sans-serif" font-weight="700" font-size="32" transform="translate(850.657 358)">reject</text><path d="M649 345C647.516 257.06 704.357 204.359 800.5 191 886.851 192.615 950.242 256.61 952 345 944.211 428.414 885.896 485.171 800.5 499 706.118 484.227 650.823 427.554 649 345Z" stroke="#C00000" stroke-width="4" stroke-miterlimit="8" fill="none" fill-rule="evenodd"/><path d="M694.5 236.5 909.008 454.402" stroke="#C00000" stroke-width="3" stroke-miterlimit="8" fill="none" fill-rule="evenodd"/><text fill="#FFFFFF" font-family="DingTalk JinBuTi,DingTalk JinBuTi_MSFontService,sans-serif" font-weight="400" font-size="37" transform="translate(392.514 579)">Referer</text><text fill="#FFFFFF" font-family="DingTalk JinBuTi,DingTalk JinBuTi_MSFontService,sans-serif" font-weight="400" font-size="37" transform="translate(535.847 579)">限制？</text><text fill="#FF0000" font-family="DingTalk JinBuTi,DingTalk JinBuTi_MSFontService,sans-serif" font-weight="400" font-size="59" transform="translate(647.847 579)">不可能！</text></g></svg>