<svg xmlns="http://www.w3.org/2000/svg" xmlns:xlink="http://www.w3.org/1999/xlink" width="1920" height="1080" viewBox="0 0 1920 1080"><defs><style>.a{clip-path:url(#b);}.b{fill:none;}.c,.d{fill:#fff;}.d{font-size:104px;}.d,.e{font-family:DingTalk-JinBuTi, DingTalk JinBuTi;}.e{fill:#707070;font-size:93px;}.f{fill:#ff7272;}.g{fill:#1e1e1e;}</style><clipPath id="b"><rect width="1920" height="1080"/></clipPath></defs><g id="a" class="a"><rect class="g" width="1920" height="1080"/><g transform="translate(0 7)"><g transform="translate(762 203)"><g transform="translate(-1 -1)"><rect class="b" width="398" height="487"/></g><g transform="translate(20 110.279)"><path class="c" d="M114.1,182.69l1.8-.3c-10.461,4.967-24.527,15.253-33.937,22.528-15.217,11.69-27.08,29.05-37.041,46.611,42.1-22.929,80.989-26.291,89.348-24.183.1.05-3.854,22.829-18.37,41.945-15.267,20.019-41.145,36.325-41.145,36.325a134.245,134.245,0,0,0,28.381.4c16.118-1.505,32.686-6.221,45.8-17.41,5.806-4.967,16.418-19.568,15.267-17.46-6.257,15.654-7.158,33.466-6.157,50.474.551,9.984,1.6,19.869,4.555,29.3a108.563,108.563,0,0,0,10.311,22.728l4.1,3.261c.05-.351-3.954-56.094,24.277-83.639,51.356-50.073,108.118-2.458,108.118-2.458s-2.252-37.73-44.849-56.043c102.012-9.433,79.938,51.177,79.938,51.177s34.938-14.952,29.582-57.649c-4.855-38.633-42.547-47.815-50.405-49.32-6.607-10.888-56.662-93.724-140.053-61.161C93.23,153.087,20,144.708,20,144.708A125.682,125.682,0,0,0,57.091,174.16,89.424,89.424,0,0,0,114.1,182.69Zm157.172-7.978c3.153,1.054,6.357,2.107,9.56,3.111-.25,3.061-2.4,5.469-5.005,5.469-2.753,0-5.056-2.709-5.056-6.071A7.979,7.979,0,0,1,271.275,174.712Zm-20.072,1.2a20.329,20.329,0,0,1,1.3-7.225c1.9.452,3.8.9,5.606,1.505,1.9.6,3.754,1.254,5.656,1.907a15.171,15.171,0,0,0-.9,5.067c0,7.727,5.806,14,12.964,14,6.307,0,11.513-4.867,12.714-11.289,1.352.3,2.653.652,4,.9a20.944,20.944,0,0,1-41.345-4.867Z" transform="translate(-20 -110.279)"/></g></g><text class="d" transform="translate(693 726)"><tspan x="0" y="0">Windhawk</tspan></text></g><text class="e" transform="translate(282 889)"><tspan x="0" y="0">记一次对 </tspan><tspan class="c" y="0">Windhawk </tspan><tspan y="0">的</tspan><tspan class="f" y="0">简单</tspan><tspan y="0">逆向</tspan></text></g></svg>