<svg width="1280" height="720" xmlns="http://www.w3.org/2000/svg" xmlns:xlink="http://www.w3.org/1999/xlink" overflow="hidden"><defs><clipPath id="clip0"><rect x="0" y="0" width="1280" height="720"/></clipPath><clipPath id="clip1"><rect x="160" y="191" width="338" height="338"/></clipPath><clipPath id="clip2"><rect x="160" y="191" width="338" height="338"/></clipPath><clipPath id="clip3"><rect x="160" y="191" width="338" height="338"/></clipPath></defs><g clip-path="url(#clip0)"><rect x="0" y="0" width="1280" height="720" fill="#F3F0EF"/><path d="M984.157 0 1209.84 0 1210.84 2.47864C1213.65 11.2305 1215 21.5893 1215 34.3354L1215 44.4061 1215 73.1518 1215 89.1459 1215 111.17 1215 127.962C1215 161.952 1205.37 178.965 1184.18 193.799 1162.14 206.582 1133.21 212.053 1107.55 231.913L1096.81 241 1086.45 231.913C1060.79 212.053 1031.86 206.582 1009.82 193.799 988.632 178.965 979 161.952 979 127.962L979 111.17 979 89.1459 979 73.1518 979 44.4061 979 34.3354C979 21.5893 980.354 11.2305 983.165 2.47864Z" fill="#BFAFAA" fill-rule="evenodd" fill-opacity="0.14902"/><path d="M1230.98 200 1241.32 209.096C1247.72 214.065 1254.33 218.135 1260.99 221.643L1280 230.4 1280 489.6 1260.99 498.357C1254.33 501.865 1247.72 505.935 1241.32 510.904L1230.6 520 1220.26 510.904C1194.64 491.026 1165.77 485.55 1143.77 472.756 1122.61 457.907 1113 440.878 1113 406.857L1113 390.049 1113 368.005 1113 351.996 1113 323.223 1113 313.143C1113 279.122 1122.61 262.093 1143.77 247.245 1165.77 234.45 1194.64 228.974 1220.26 209.096Z" fill="#BFAFAA" fill-rule="evenodd" fill-opacity="0.14902"/><path d="M1218.45 1.50005C1223.18 19.3488 1221.83 29.5022 1222.5 43.3007L1222.5 73.5971 1222.5 90.454 1222.5 113.666 1222.5 131.364C1222.5 167.188 1212.34 185.118 1189.98 200.753 1166.73 214.225 1136.21 219.991 1109.13 240.923L1097.8 250.5 1086.87 240.923C1059.79 219.991 1029.27 214.225 1006.02 200.753 983.662 185.118 973.5 167.188 973.5 131.364L973.5 113.666 973.5 90.454 973.5 73.5971 973.5 43.3007 973.5 32.6868C974.123 25.7571 974.652 9.23711 977.237 1.72246" stroke="#BFAFAA" stroke-width="2.66667" stroke-linecap="round" stroke-miterlimit="8" stroke-dasharray="0 5.33333" stroke-opacity="0.65098" fill="none" fill-rule="evenodd"/><path d="M1278.62 497.742C1265.93 501.602 1250.65 513.795 1242.38 518.921L1231.03 528.5 1220.08 518.921C1192.95 497.986 1162.37 492.22 1139.08 478.746 1116.68 463.108 1106.5 445.175 1106.5 409.346L1106.5 391.645 1106.5 368.43 1106.5 351.57 1106.5 321.269 1106.5 310.654C1106.5 274.825 1116.68 256.892 1139.08 241.254 1162.38 227.78 1192.95 222.014 1220.09 201.079L1231.44 191.5 1242.38 201.079C1250.45 206.158 1267 217.198 1280.5 223.894" stroke="#BFAFAA" stroke-width="2.66667" stroke-linecap="round" stroke-miterlimit="8" stroke-dasharray="0 5.33333" stroke-opacity="0.65098" fill="none" fill-rule="evenodd"/><rect x="0" y="0" width="1280" height="720" fill="#F3F0EF"/><text fill="#431C30" font-family="DingTalk JinBuTi,DingTalk JinBuTi_MSFontService,sans-serif" font-weight="400" font-size="80" transform="translate(626.51 368)">GitHub</text><text fill="#431C30" font-family="DingTalk JinBuTi,DingTalk JinBuTi_MSFontService,sans-serif" font-weight="400" font-size="80" transform="translate(912.176 368)">的</text><g clip-path="url(#clip1)"><g clip-path="url(#clip2)"><g clip-path="url(#clip3)"><path d="M329 191C422.372 191 498 266.628 498 360 497.981 432.607 451.661 497.115 382.869 520.339 374.419 522.029 371.25 516.747 371.25 512.311 371.25 506.607 371.461 488.44 371.461 465.836 371.461 449.992 366.18 439.852 360.054 434.571 397.656 430.346 437.16 415.981 437.16 351.128 437.16 332.537 430.611 317.539 419.837 305.709 421.527 301.484 427.443 284.161 418.147 260.924 418.147 260.924 403.994 256.276 371.673 278.246 358.152 274.444 343.787 272.542 329.423 272.542 315.057 272.542 300.693 274.444 287.172 278.246 254.851 256.487 240.698 260.924 240.698 260.924 231.402 284.161 237.318 301.484 239.008 305.709 228.234 317.539 221.685 332.749 221.685 351.128 221.685 415.77 260.978 430.346 298.58 434.571 293.721 438.796 289.285 446.19 287.806 457.175 278.089 461.611 253.795 468.794 238.585 443.232 235.416 438.162 225.91 425.699 212.601 425.91 198.448 426.121 206.897 433.938 212.812 437.106 219.995 441.12 228.234 456.119 230.135 460.978 233.515 470.484 244.5 488.651 286.961 480.835 286.961 494.989 287.172 508.298 287.172 512.311 287.172 516.747 284.004 521.818 275.554 520.339 206.521 497.361 159.962 432.756 160 360 160 266.628 235.628 191 329 191Z"/></g></g></g><path d="M329.345 76.5001 347.812 92.6446C393.604 127.929 445.205 137.649 484.517 160.359 522.318 186.715 539.5 216.941 539.5 277.329L539.5 295.221 539.5 346.292 539.5 374.708 539.5 413.837 539.5 443.671C539.5 504.059 522.318 534.285 484.517 560.641 445.205 583.352 393.604 593.071 347.812 628.355L328.655 644.5 310.188 628.355C264.396 593.071 212.795 583.352 173.483 560.641 135.682 534.285 118.5 504.059 118.5 443.671L118.5 413.837 118.5 374.708 118.5 346.292 118.5 295.221 118.5 277.329C118.5 216.941 135.682 186.715 173.483 160.359 212.796 137.649 264.396 127.929 310.188 92.6446Z" stroke="#BFAFAA" stroke-width="2.66667" stroke-linecap="round" stroke-miterlimit="8" stroke-dasharray="0 5.33333" stroke-opacity="0.65098" fill="none" fill-rule="evenodd"/><text fill="#431C30" font-family="DingTalk JinBuTi,DingTalk JinBuTi_MSFontService,sans-serif" font-weight="400" font-size="43" transform="translate(678.428 439)">多种访问方式</text></g></svg>