<svg xmlns="http://www.w3.org/2000/svg" xmlns:xlink="http://www.w3.org/1999/xlink" width="1920" height="1080" viewBox="0 0 1920 1080"><defs><style>.a{clip-path:url(#c);}.b,.e{mix-blend-mode:soft-light;}.b,.d,.e{isolation:isolate;}.c{fill:#0c0c09;}.d{fill:#726b6b;font-size:152px;mix-blend-mode:screen;}.d,.e{font-family:DingTalk-JinBuTi, DingTalk JinBuTi;}.e{font-size:73px;}.f{fill:url(#a);}</style><linearGradient id="a" x2="0.118" y2="1" gradientUnits="objectBoundingBox"><stop offset="0" stop-color="#0093e9"/><stop offset="1" stop-color="#80d0c7"/></linearGradient><clipPath id="c"><rect width="1920" height="1080"/></clipPath></defs><g id="b" class="a"><rect class="f" width="1920" height="1080"/><g class="b" transform="translate(664.502 95.01)"><path class="c" d="M371.8,439.033A67.233,67.233,0,1,0,439.033,371.8,67.19,67.19,0,0,0,371.8,439.033Z" transform="translate(-143.54 -143.545)"/><path class="c" d="M481.559,223.747,369.2,229.55c30.5,35.631,30.979,87.039,5.323,126.458L284.368,494.694A198.61,198.61,0,0,0,395.24,468.223C481.559,418.349,516.567,313.759,481.559,223.747Zm-278,110.057L128.514,186.2A199.181,199.181,0,0,0,96,295.488c0,99.747,73.036,182.373,168.514,197L315.778,392.07C269.454,400.8,224.712,375.381,203.563,333.8ZM308.345,196.892l165.158,8.68a199.725,199.725,0,0,0-78.359-82.866,199.441,199.441,0,0,0-254.834,47.38l61.478,94.424C217.135,220.438,261.637,194.159,308.345,196.892Z"/></g><text class="d" transform="translate(782 750)"><tspan x="0" y="0">Keys</tspan></text><text class="e" transform="translate(545 872)"><tspan x="0" y="0">I just want to save keys!</tspan></text></g></svg>