<svg width="1280" height="720" xmlns="http://www.w3.org/2000/svg" xmlns:xlink="http://www.w3.org/1999/xlink" overflow="hidden"><defs><filter id="fx0" x="-10%" y="-10%" width="120%" height="120%" filterUnits="userSpaceOnUse" primitiveUnits="userSpaceOnUse"><feComponentTransfer color-interpolation-filters="sRGB"><feFuncR type="discrete" tableValues="0 0"/><feFuncG type="discrete" tableValues="0 0"/><feFuncB type="discrete" tableValues="0 0"/><feFuncA type="linear" slope="0.431373" intercept="0"/></feComponentTransfer><feGaussianBlur stdDeviation="1.29101 1.29101"/></filter><filter id="fx1" x="-10%" y="-10%" width="120%" height="120%" filterUnits="userSpaceOnUse" primitiveUnits="userSpaceOnUse"><feComponentTransfer color-interpolation-filters="sRGB"><feFuncR type="discrete" tableValues="0 0"/><feFuncG type="discrete" tableValues="0 0"/><feFuncB type="discrete" tableValues="0 0"/><feFuncA type="linear" slope="0.431373" intercept="0"/></feComponentTransfer><feGaussianBlur stdDeviation="1.29101 1.29101"/></filter><filter id="fx2" x="-10%" y="-10%" width="120%" height="120%" filterUnits="userSpaceOnUse" primitiveUnits="userSpaceOnUse"><feComponentTransfer color-interpolation-filters="sRGB"><feFuncR type="discrete" tableValues="0 0"/><feFuncG type="discrete" tableValues="0 0"/><feFuncB type="discrete" tableValues="0 0"/><feFuncA type="linear" slope="0.431373" intercept="0"/></feComponentTransfer><feGaussianBlur stdDeviation="0.734936 0.734936"/></filter><filter id="fx3" x="-10%" y="-10%" width="120%" height="120%" filterUnits="userSpaceOnUse" primitiveUnits="userSpaceOnUse"><feComponentTransfer color-interpolation-filters="sRGB"><feFuncR type="discrete" tableValues="0 0"/><feFuncG type="discrete" tableValues="0 0"/><feFuncB type="discrete" tableValues="0 0"/><feFuncA type="linear" slope="0.431373" intercept="0"/></feComponentTransfer><feGaussianBlur stdDeviation="0.734936 0.734936"/></filter><clipPath id="clip4"><rect x="0" y="0" width="1280" height="720"/></clipPath><clipPath id="clip5"><rect x="61" y="41" width="195" height="101"/></clipPath><clipPath id="clip6"><rect x="59" y="41" width="199" height="101"/></clipPath><clipPath id="clip7"><rect x="25" y="21" width="65" height="35"/></clipPath><clipPath id="clip8"><rect x="24" y="20" width="171" height="44"/></clipPath></defs><g clip-path="url(#clip4)"><rect x="0" y="0" width="1280" height="720" fill="#E8F3E9"/><path d="M79.3188 27.8198 228.64-121.372 209.878-140.005 60.686 9.18701Z" fill="#433B6B" transform="matrix(0.995368 0.0961422 -0.0961422 0.995368 448.237 359)"/><path d="M200.562-130.688 214.536-144.663C216.865-146.992 219.798-148.351 223.335-148.739 226.872-149.127 229.675-148.329 231.746-146.345L234.851-143.24C236.921-141.169 237.957-138.56 237.957-135.411 237.957-132.263 236.921-129.653 234.851-127.583L219.324-112.056ZM54.4751 30.1489C52.4048 28.0786 51.3696 25.5554 51.3696 22.5793 51.3696 19.6033 52.4048 17.0801 54.4751 15.0098L70.0024-0.129395 88.6353 18.5034 73.3667 33.9014C71.2964 36.0579 68.7948 37.1362 65.8618 37.1362 62.9289 37.1362 60.4272 36.1011 58.3569 34.0308Z" fill="#F4F4F4" transform="matrix(0.995368 0.0961422 -0.0961422 0.995368 448.237 359)"/><path d="M292.69-201.338 283.892-221.653C283.115-223.206 281.778-223.982 279.88-223.982 277.983-223.982 276.646-223.206 275.869-221.653L266.941-201.338C265.819-198.664 263.835-196.723 260.989-195.515L249.731-190.598C248.092-189.822 247.273-188.528 247.273-186.716 247.273-184.905 248.092-183.611 249.731-182.834L260.989-177.917C263.749-176.71 265.733-174.726 266.941-171.965L275.869-151.78C276.646-150.141 277.983-149.321 279.88-149.321 281.778-149.321 283.115-150.141 283.892-151.78L292.82-171.965C293.941-174.639 295.925-176.624 298.772-177.917L310.029-182.834C311.668-183.611 312.488-184.905 312.488-186.716 312.488-188.528 311.668-189.822 310.029-190.598L298.643-195.515C295.882-196.637 293.898-198.577 292.69-201.338ZM186.069-190.339 194.092-186.975C195.299-186.458 195.903-185.573 195.903-184.323 195.903-183.072 195.299-182.188 194.092-181.67L186.069-178.306C183.999-177.443 182.576-176.106 181.799-174.294L175.459-160.32C174.855-159.285 173.906-158.767 172.612-158.767 171.318-158.767 170.369-159.285 169.766-160.32L163.425-174.294C162.563-176.192 161.139-177.529 159.155-178.306L151.133-181.67C149.925-182.188 149.321-183.072 149.321-184.323 149.321-185.573 149.925-186.458 151.133-186.975L159.155-190.339C161.226-191.202 162.649-192.582 163.425-194.48L169.766-208.325C170.369-209.447 171.318-210.007 172.612-210.007 173.906-210.007 174.855-209.447 175.459-208.325L181.799-194.48C182.748-192.582 184.172-191.202 186.069-190.339ZM274.705-90.7056 282.727-86.9531C283.935-86.4355 284.539-85.5082 284.539-84.1711 284.539-82.8341 283.935-81.8636 282.727-81.2598L274.705-77.5073C272.721-76.5584 271.297-75.092 270.435-73.1079L264.094-57.9688C263.49-56.7611 262.542-56.1572 261.248-56.1572 259.954-56.1572 259.005-56.7611 258.401-57.9688L251.931-73.1079C251.069-75.092 249.645-76.5584 247.661-77.5073L239.768-81.2598C238.56-81.7773 237.957-82.7047 237.957-84.0417 237.957-85.3788 238.56-86.3493 239.768-86.9531L247.661-90.7056C249.731-91.6545 251.155-93.1209 251.931-95.105L258.401-110.244C258.918-111.452 259.846-112.056 261.183-112.056 262.52-112.056 263.49-111.452 264.094-110.244L270.435-95.105C271.383-93.0347 272.807-91.5682 274.705-90.7056ZM144.663-112.056C142.075-112.056 139.875-112.961 138.064-114.773 136.252-116.584 135.347-118.784 135.347-121.372 135.347-123.96 136.252-126.16 138.064-127.971 139.875-129.783 142.075-130.688 144.663-130.688 147.251-130.688 149.451-129.783 151.262-127.971 153.074-126.16 153.979-123.96 153.979-121.372 153.979-118.784 153.074-116.584 151.262-114.773 149.451-112.961 147.251-112.056 144.663-112.056ZM312.488-121.372C312.488-123.96 311.582-126.16 309.771-127.971 307.959-129.783 305.759-130.688 303.171-130.688 300.583-130.688 298.384-129.783 296.572-127.971 294.761-126.16 293.855-123.96 293.855-121.372 293.855-118.784 294.761-116.584 296.572-114.773 298.384-112.961 300.583-112.056 303.171-112.056 305.759-112.056 307.959-112.961 309.771-114.773 311.582-116.584 312.488-118.784 312.488-121.372ZM209.878-205.349C207.376-205.349 205.198-206.255 203.344-208.066 201.489-209.878 200.562-212.078 200.562-214.666 200.562-217.253 201.489-219.453 203.344-221.265 205.198-223.076 207.376-223.982 209.878-223.982 212.466-223.982 214.687-223.076 216.542-221.265 218.396-219.453 219.324-217.253 219.324-214.666 219.324-212.078 218.396-209.878 216.542-208.066 214.687-206.255 212.466-205.349 209.878-205.349ZM219.324-46.8408C219.324-49.3424 218.396-51.5206 216.542-53.3752 214.687-55.2299 212.466-56.1572 209.878-56.1572 207.376-56.1572 205.198-55.2299 203.344-53.3752 201.489-51.5206 200.562-49.3424 200.562-46.8408 200.562-44.2529 201.489-42.0532 203.344-40.2417 205.198-38.4302 207.376-37.5244 209.878-37.5244 212.466-37.5244 214.687-38.4302 216.542-40.2417 218.396-42.0532 219.324-44.2529 219.324-46.8408Z" fill="#F9C23C" transform="matrix(0.995368 0.0961422 -0.0961422 0.995368 448.237 359)"/><text fill="#000000" fill-opacity="0" font-family="Arial,Arial_MSFontService,sans-serif" font-size="186.458" x="135.347" y="-60.8316">🪄</text><g clip-path="url(#clip5)" filter="url(#fx0)" transform="translate(386 368)"><g><path d="M86.1094 9.04688C85.8594 9.04688 85.5 8.96875 85.0312 8.8125 71.6562 2.4375 59.4375-6.15625 48.375-16.9688 43.625-12.0625 38.2734-7.6875 32.3203-3.84375 26.3672-1.19209e-07 20.9453 2.97656 16.0547 5.08594 11.1641 7.19531 7.95312 8.25 6.42188 8.25 5.26562 8.25 4.6875 7.83594 4.6875 7.00781 4.6875 6.17969 5.39062 5.40625 6.79688 4.6875 14.1094 0.78125 21.0547-3.57031 27.6328-8.36719 34.2109-13.1641 39.4531-17.7656 43.3594-22.1719 37.6719-28.6406 31.75-38.1719 25.5938-50.7656L14.3906-50.1094C13.1719-50.1094 12.1797-50.3359 11.4141-50.7891 10.6484-51.2422 9.84375-52.1406 9-53.4844 8.3125-54.5781 7.96875-55.4687 7.96875-56.1562 7.96875-57 8.4375-57.4219 9.375-57.4219 11-57.0781 12.6406-56.9062 14.2969-56.9062 14.9219-56.9062 27.4062-57.6562 51.75-59.1562 51.6562-59.2187 51.5469-59.3125 51.4219-59.4375 47.9219-63 43.4531-66.6719 38.0156-70.4531 36.9844-71.1719 36.4688-71.875 36.4688-72.5625 36.4688-73.0938 36.8203-73.8672 37.5234-74.8828 38.2266-75.8984 39-76.4062 39.8438-76.4062 40.7188-76.4062 42.6328-75.4297 45.5859-73.4766 48.5391-71.5234 51.2891-69.4297 53.8359-67.1953 56.3828-64.9609 57.6562-63.3906 57.6562-62.4844 57.6562-61.6719 57.1875-60.75 56.25-59.7188 56.125-59.5937 56.0312-59.4687 55.9688-59.3438 62.5625-59.7187 69.9531-60.1562 78.1406-60.6562 79.7969-60.7812 81.3594-61.0469 82.8281-61.4531 83.0781-61.5156 83.4062-61.5469 83.8125-61.5469 84.6875-61.5469 85.6094-61.2422 86.5781-60.6328 87.5469-60.0234 88.3672-59.3047 89.0391-58.4766 89.7109-57.6484 90.0469-56.9687 90.0469-56.4375 90.0469-55.2187 89.2812-54.5156 87.75-54.3281L70.4531-53.2969C68.4531-48.0469 65.875-42.6172 62.7188-37.0078 59.5625-31.3984 56.375-26.5781 53.1562-22.5469 64.5-11.7344 77.0156-3.57812 90.7031 1.92188 91.8594 2.35938 92.4375 2.9375 92.4375 3.65625 92.4375 4.09375 92.0703 4.74219 91.3359 5.60156 90.6016 6.46094 89.75 7.25 88.7812 7.96875 87.8125 8.6875 86.9219 9.04688 86.1094 9.04688ZM48.0938-27.75C53.7812-35.3125 58.2187-43.6562 61.4062-52.7812L33.2812-51.2812C37.8438-41.6562 42.7812-33.8125 48.0938-27.75ZM145.125 10.4531C144.188 10.4531 142.977 10.1016 141.492 9.39844 140.008 8.69531 139.266 7.67187 139.266 6.32812 139.609 4.17188 139.812-0.203125 139.875-6.79688L106.641-5.48438C105.359-5.48438 104.227-5.78906 103.242-6.39844 102.258-7.00781 101.406-8.32812 100.688-10.3594 100.625-10.5469 100.594-10.8438 100.594-11.25 100.594-12 101.016-12.375 101.859-12.375 103.891-11.875 105.484-11.625 106.641-11.625L139.875-12.9375 139.969-17.9531 128.719-17.2969C128.719-15.6094 128.016-14.7656 126.609-14.7656 125.516-14.7656 124.312-15.1562 123-15.9375 121.687-16.7188 121.031-17.7031 121.031-18.8906 121.156-20.2344 121.219-21.1719 121.219-21.7031L119.906-37.3594C119.781-38.8281 119.391-40.2969 118.734-41.7656 118.422-42.4531 118.266-42.9375 118.266-43.2188 118.266-44.0312 118.844-44.4375 120-44.4375 121-44.4375 123.141-43.9219 126.422-42.8906L163.359-45.0469C165.109-45.0469 166.508-44.6562 167.555-43.875 168.602-43.0938 169.125-42.2031 169.125-41.2031 169.125-40.7344 169.016-40.2656 168.797-39.7969 168.578-39.3281 167.672-34.1875 166.078-24.375 167.734-22.8438 168.562-21.625 168.562-20.7188 168.562-19.6562 167.5-19.0469 165.375-18.8906L147.141-18.1406 147.141-13.2656 177.281-14.2969C179.156-14.4219 180.562-14.6406 181.5-14.9531 181.969-15.1094 182.359-15.1875 182.672-15.1875 183.047-15.1875 183.656-14.9453 184.5-14.4609 185.344-13.9766 186.102-13.3672 186.773-12.6328 187.445-11.8984 187.781-11.1719 187.781-10.4531 187.781-9.29688 186.875-8.625 185.062-8.4375L147.141-7.125 147.234 8.15625C147.234 9.6875 146.531 10.4531 145.125 10.4531ZM108.281-46.1719C106.812-46.1719 105.758-46.4453 105.117-46.9922 104.477-47.5391 103.914-48.3203 103.43-49.3359 102.945-50.3516 102.703-51.0937 102.703-51.5625 102.703-52.25 103.125-52.5937 103.969-52.5938 105.187-52.3437 106.531-52.2187 108-52.2188L131.625-53.3906C130.25-55.2344 128.766-56.9844 127.172-58.6406 126.359-59.4844 125.953-60.1562 125.953-60.6562L125.953-61.7344 119.812-61.3594C115-61.3594 112.594-63.0156 112.594-66.3281 112.594-67.0469 112.984-67.4062 113.766-67.4062 115.297-67.1562 116.344-67.0312 116.906-67.0312L144.281-68.5312C143.312-69.5 141.945-70.6094 140.18-71.8594 138.414-73.1094 137.406-73.8281 137.156-74.0156 136.281-74.7344 135.844-75.4062 135.844-76.0312 135.844-76.6562 136.18-77.3594 136.852-78.1406 137.523-78.9219 138.203-79.3125 138.891-79.3125 139.484-79.3125 140.836-78.625 142.945-77.25 145.055-75.875 147.016-74.4141 148.828-72.8672 150.641-71.3203 151.547-70.1719 151.547-69.4219 151.547-69.1719 151.594-69.0469 151.688-69.0469L165.375-69.7969C166.469-69.9219 167.562-70.1406 168.656-70.4531 168.844-70.5156 169.094-70.5469 169.406-70.5469 170.25-70.5469 171.359-70.1016 172.734-69.2109 174.109-68.3203 174.797-67.3594 174.797-66.3281 174.797-65.1094 173.906-64.4688 172.125-64.4062L158.297-63.5625C159.516-62.9687 160.125-62 160.125-60.6562 160.125-59.4375 158.578-57.4531 155.484-54.7031L175.875-55.6875 179.906-56.4375C180.781-56.4375 181.891-55.9141 183.234-54.8672 184.578-53.8203 185.25-52.875 185.25-52.0312 185.25-50.9375 184.391-50.2969 182.672-50.1094ZM127.266-33.2344 160.688-34.9219 161.062-39.0938 126.984-37.2656ZM128.156-23.1562 159.422-24.5625 159.938-29.2969 127.875-27.5625ZM137.672-53.7656 147.656-54.2344C151.031-58.3281 152.719-61.3437 152.719-63.2812 152.719-63.4687 152.656-63.5625 152.531-63.5625 152.406-63.5625 152.219-63.4375 151.969-63.1875L132.562-62.1094C136.281-58.8594 138.141-56.6562 138.141-55.5 138.141-54.5937 137.984-54.0156 137.672-53.7656Z" transform="translate(62.7699 126)"/></g></g><text font-family="LXGW WenKai GB Screen R,LXGW WenKai GB Screen R_MSFontService,sans-serif" font-weight="400" font-size="96" transform="translate(446.031 491)">文章</text><g clip-path="url(#clip6)" filter="url(#fx1)" transform="translate(578 368)"><g><path d="M82.3594 9.14062C81.5781 9.14062 79.7656 8.38281 76.9219 6.86719 74.0781 5.35156 71.4375 3.73437 69 2.01562 66.5625 0.296875 65.3438-1.01562 65.3438-1.92188 65.3438-2.76562 65.9219-3.1875 67.0781-3.1875 67.7969-3.1875 68.6719-2.98437 69.7031-2.57812 73.8594-0.921875 77.375 0.21875 80.25 0.84375L80.625-42.6094 61.7344-41.5781C62.1094-41.4531 62.4844-41.3281 62.8594-41.2031 64.2031-40.7344 65.0703-40.2656 65.4609-39.7969 65.8516-39.3281 66.0469-38.7031 66.0469-37.9219L65.8594-34.1719C70.1406-34.4219 72.7656-34.7188 73.7344-35.0625 74.2969-35.25 74.8281-35.3438 75.3281-35.3438 76.2344-35.3438 77.2969-34.8438 78.5156-33.8438 79.7344-32.8438 80.3438-31.8594 80.3438-30.8906 80.3438-30.0156 79.5781-29.4844 78.0469-29.2969L65.7656-28.5938 65.5781-23.8125 70.3594-24.1875C71.5781-24.1875 72.7109-23.8516 73.7578-23.1797 74.8047-22.5078 75.3281-21.6562 75.3281-20.625 75.3281-20.3125 75.25-20 75.0938-19.6875 74.9375-19.375 74.4219-16.5938 73.5469-11.3438 74.7344-9.9375 75.3281-8.875 75.3281-8.15625 75.3281-7.59375 75.0469-7.21094 74.4844-7.00781 73.9219-6.80469 68.4531-6.48437 58.0781-6.04688L58.1719-5.20312C58.1719-3.32812 57.5625-2.39062 56.3438-2.39062 55.5-2.39062 54.4922-2.74219 53.3203-3.44531 52.1484-4.14844 51.5625-5.14062 51.5625-6.42188L51.6562-8.71875C51.6562-9.25 51.3906-12.2969 50.8594-17.8594 50.7344-19.4531 50.3906-20.8281 49.8281-21.9844 49.4844-22.6094 49.3125-23.0625 49.3125-23.3438 49.3125-24.2187 49.8906-24.6562 51.0469-24.6562 52.2656-24.6562 54.1875-24.1875 56.8125-23.25L59.625-23.5312 59.5312-28.3125 51.75-27.9375C50.3437-27.9375 49.375-28.1875 48.8438-28.6875 47.0625-30.5 46.1719-31.8437 46.1719-32.7188 46.1719-33.5 46.5938-33.8906 47.4375-33.8906 48.4375-33.6406 49.9375-33.5156 51.9375-33.5156 52.9687-33.5156 55.5-33.6406 59.5312-33.8906 59.5312-36.5781 59.2031-38.5312 58.5469-39.75 58.3594-40 58.2656-40.3125 58.2656-40.6875 58.2656-40.9688 58.3281-41.2031 58.4531-41.3906L45.7031-40.5938 45.9844 4.78125C45.9844 7.15625 45.25 8.34375 43.7812 8.34375 43.125 8.34375 42.2891 8.15625 41.2734 7.78125 40.2578 7.40625 39.5234 6.92969 39.0703 6.35156 38.6172 5.77344 38.3906 5.0625 38.3906 4.21875 38.7656 0.78125 38.9531-1.45312 38.9531-2.48438L38.9531-40.5C38.9531-42.875 38.7031-44.7656 38.2031-46.1719 37.8906-46.7656 37.7344-47.3125 37.7344-47.8125 37.7344-48.5 38.0859-48.8437 38.7891-48.8438 39.4922-48.8437 41.5312-48.1406 44.9062-46.7344L54.0469-47.3438 54.3281-47.25C54.3906-47.25 54.4219-47.2812 54.4219-47.3438 54.4219-47.4688 54.2656-47.7812 53.9531-48.2812 52.4844-50.4062 50.75-52.5469 48.75-54.7031 48.375-55.1094 48.1875-55.5312 48.1875-55.9688 48.1875-56.5312 48.5625-57.2656 49.3125-58.1719 49.7812-58.6094 50.2031-58.9687 50.5781-59.25L40.4062-58.6406C38.9375-58.6406 37.8047-58.9766 37.0078-59.6484 36.2109-60.3203 35.4219-61.5312 34.6406-63.2812 34.4531-63.5312 34.3594-63.8437 34.3594-64.2188 34.3594-65.0625 34.8438-65.4844 35.8125-65.4844 36.25-65.4844 36.5938-65.4531 36.8438-65.3906 38.0625-65.0469 39.3438-64.875 40.6875-64.875 41.3438-64.875 48.5469-65.2656 62.2969-66.0469 60.0469-68.2969 57.2031-70.5938 53.7656-72.9375 52.7969-73.6562 52.3125-74.375 52.3125-75.0938 52.375-75.7188 52.7266-76.4453 53.3672-77.2734 54.0078-78.1016 54.6719-78.5156 55.3594-78.5156 55.8906-78.5156 57.375-77.7812 59.8125-76.3125 66.125-72.5312 69.2812-69.75 69.2812-67.9688 69.2812-67.4688 69.0938-66.9531 68.7188-66.4219L81.0938-67.125C82.25-67.25 83.3125-67.4688 84.2812-67.7812 84.8438-67.9062 85.2969-67.9688 85.6406-67.9688 86.5156-67.9688 87.375-67.6641 88.2188-67.0547 89.0625-66.4453 89.75-65.7578 90.2812-64.9922 90.8125-64.2266 91.0781-63.6562 91.0781-63.2812 91.0781-62.0625 90.125-61.3906 88.2188-61.2656L72.9375-60.375C72.9375-60.375 72.9375-60.375 72.9375-60.375 73.8438-60 74.7109-59.4922 75.5391-58.8516 76.3672-58.2109 76.7812-57.4687 76.7812-56.625 76.7812-55.0312 74.6719-52.25 70.4531-48.2812L83.625-49.0781C84.3125-49.0781 85.2188-48.7031 86.3438-47.9531 87.4688-47.2031 88.0312-46.3281 88.0312-45.3281 88.0312-44.9844 87.9141-44.5312 87.6797-43.9688 87.4453-43.4062 87.2969-27.7187 87.2344 3.09375 87.2344 5.4375 86.6328 7.03125 85.4297 7.875 84.2266 8.71875 83.2031 9.14062 82.3594 9.14062ZM21.2812 8.15625C20 8.15625 18.2578 7.19531 16.0547 5.27344 13.8516 3.35156 11.8047 1.24219 9.91406-1.05469 8.02344-3.35156 7.07812-4.82812 7.07812-5.48438 7.07812-6.17187 7.46875-6.51562 8.25-6.51562 8.8125-6.51562 9.79688-6.10937 11.2031-5.29688 14.1719-3.42188 17.0312-1.9375 19.7812-0.84375L19.875-23.3438C13.8438-19.625 10.0625-17.7656 8.53125-17.7656 8.03125-17.7656 7.57812-17.8594 7.17188-18.0469 5.07812-19.1406 3.48437-20.7344 2.39062-22.8281 2.39062-23.6094 2.90625-24.0625 3.9375-24.1875 6.21875-24.4375 11.5625-26.5469 19.9688-30.5156L20.0625-48.1875C13.9688-47.6875 10.5781-47.4375 9.89062-47.4375 7.51562-47.4375 5.75-49.0938 4.59375-52.4062 4.53125-52.5937 4.5-52.8594 4.5-53.2031 4.5-53.8906 4.89062-54.2344 5.67188-54.2344 6.67187-53.9844 7.71875-53.8594 8.8125-53.8594 9.53125-53.8594 13.2812-54.0781 20.0625-54.5156L20.1562-69.3281C20.1562-71.1094 19.6406-72.7656 18.6094-74.2969 18.3594-74.6719 18.2344-75.0312 18.2344-75.375 18.2344-76.1875 18.8125-76.5938 19.9688-76.5938 20.7812-76.5938 22-76.3125 23.625-75.75 25.9687-74.8438 27.1406-73.5625 27.1406-71.9062L27.0469-54.8906C29.2344-55.1094 31.125-55.5 32.7188-56.0625 33.0312-56.25 33.3281-56.3437 33.6094-56.3438 34.4844-56.3437 35.6562-55.7656 37.125-54.6094 38.5938-53.4531 39.3281-52.375 39.3281-51.375 39.3281-50.2187 38.375-49.5781 36.4688-49.4531L27.0469-48.6562 26.9531-33.9844C29.4531-35.3281 32.2344-36.8906 35.2969-38.6719 36.0781-39.2031 36.8281-39.4688 37.5469-39.4688 38.4219-39.4688 38.8594-39.0469 38.8594-38.2031 38.8594-36.9219 34.8906-33.5 26.9531-27.9375L26.7656-1.73438C26.7656-1.07812 26.7969-0.445312 26.8594 0.164062 26.9219 0.773437 26.9531 1.32812 26.9531 1.82812 26.9531 3.35937 26.6016 4.60938 25.8984 5.57812 25.1953 6.54687 24.3828 7.21875 23.4609 7.59375 22.5391 7.96875 21.8125 8.15625 21.2812 8.15625ZM57.7031-11.625 67.5938-12.0938 68.1562-18.3281 57.1875-17.6719ZM52.4062-59.3438C53.0312-59 53.7969-58.3594 54.7031-57.4219 56.1094-56.0156 57.3906-54.5078 58.5469-52.8984 59.7031-51.2891 60.2812-50.1094 60.2812-49.3594 60.2812-48.5156 60.0937-47.9375 59.7188-47.625L63.2344-47.9062C67.4844-53.0312 69.6094-56.6094 69.6094-58.6406 69.6094-59.3594 69.7031-59.9062 69.8906-60.2812ZM174.047 8.90625C173.547 8.90625 170.82 7.77344 165.867 5.50781 160.914 3.24219 154.297 0.703125 146.016-2.10938 136.797 3.45312 124.031 7.0625 107.719 8.71875 105.344 8.71875 104.156 8.21875 104.156 7.21875 104.156 6.0625 105.156 5.3125 107.156 4.96875 120.719 2.21875 130.984-1.03125 137.953-4.78125 130.922-7.03125 126.797-8.1875 125.578-8.25 124.359-8.3125 123.352-8.64844 122.555-9.25781 121.758-9.86719 121.359-10.875 121.359-12.2812 121.359-13.5625 121.969-14.875 123.188-16.2188 124.406-17.5625 125.5-18.8125 126.469-19.9688L105.516-19.0312C103.859-19.0312 102.734-19.375 102.141-20.0625 100.234-22.1875 99.2812-23.8594 99.2812-25.0781 99.2812-25.7031 99.5937-26.0156 100.219-26.0156 100.562-26.0156 101.211-25.8906 102.164-25.6406 103.117-25.3906 104.359-25.2656 105.891-25.2656L131.531-26.3906C133.594-29.8594 134.625-32.1094 134.625-33.1406 134.562-33.6406 134.516-34.1172 134.484-34.5703 134.453-35.0234 134.273-35.25 133.945-35.25 133.617-35.25 133.203-35.1094 132.703-34.8281L122.719-34.2656C122.719-32.2344 122.016-31.2187 120.609-31.2188 119.203-31.2187 117.984-31.5859 116.953-32.3203 115.922-33.0547 115.406-34.0938 115.406-35.4375L115.5-37.4531C115.5-38.5469 115.133-41.25 114.398-45.5625 113.664-49.875 112.961-52.7187 112.289-54.0938 111.617-55.4687 111.281-56.375 111.281-56.8125 111.281-57.5312 111.859-57.8906 113.016-57.8906 113.766-57.8906 115.875-57.3437 119.344-56.25L131.062-56.9062 130.406-64.5 119.062-63.8438C117.781-63.8437 116.781-64.0938 116.062-64.5938 114.156-66.5938 113.203-68.2344 113.203-69.5156 113.203-70.2656 113.594-70.6406 114.375-70.6406 114.75-70.6406 115.258-70.5625 115.898-70.4062 116.539-70.25 117.844-70.1719 119.812-70.1719 150.469-72.0156 166.219-73.0781 167.062-73.3594 167.625-73.5469 168.164-73.6406 168.68-73.6406 169.195-73.6406 169.969-73.375 171-72.8438 173.5-71.6562 174.75-70.3906 174.75-69.0469 174.75-67.8281 173.625-67.1562 171.375-67.0312L156.516-66.0469 155.812-58.2656 171-59.1562C172.281-59.1562 173.461-58.8359 174.539-58.1953 175.617-57.5547 176.156-56.8437 176.156-56.0625 176.156-55.2812 176.078-54.7656 175.922-54.5156 175.766-54.2656 174.859-50.1406 173.203-42.1406 174.609-40.5469 175.312-39.3906 175.312-38.6719 175.312-37.7344 174.93-37.1797 174.164-37.0078 173.398-36.8359 162.203-36.25 140.578-35.25L139.969-35.3438C139.781-35.3438 139.688-35.2812 139.688-35.1562 139.688-34.875 140.125-34.2891 141-33.3984 141.875-32.5078 142.312-31.8125 142.312-31.3125 142.312-30.0937 141.594-28.6094 140.156-26.8594L176.766-28.5C179.047-28.6875 180.461-28.8984 181.008-29.1328 181.555-29.3672 182.148-29.4844 182.789-29.4844 183.43-29.4844 184.234-29.1562 185.203-28.5 187.516-27.0312 188.672-25.7187 188.672-24.5625 188.672-23.4062 187.703-22.7656 185.766-22.6406L163.875-21.6094C160.438-15.5781 156.609-10.6719 152.391-6.89062 169.078-1.45312 177.422 2.1875 177.422 4.03125 177.422 5.0625 177.008 6.13281 176.18 7.24219 175.352 8.35156 174.641 8.90625 174.047 8.90625ZM137.672-57.2344 149.109-57.9844 149.672-65.6719 137.109-64.875ZM154.688-41.9531 166.406-42.6094 168.188-52.875 155.438-52.125ZM138.844-41.2031 147.938-41.6719 148.734-51.8438 138.047-51.1875ZM121.734-40.3125 132.328-40.875 131.531-50.8594 120.422-50.2031ZM144.797-9.42188C149.078-12.7969 152.531-16.7656 155.156-21.3281L135.094-20.3438C134.188-19.125 133.242-17.8594 132.258-16.5469 131.273-15.2344 130.453-14.2656 129.797-13.6406 136.703-11.8281 141.703-10.4219 144.797-9.42188Z" fill="#FFC000" transform="translate(62.77 126)"/></g></g><text fill="#FFC000" font-family="LXGW WenKai GB Screen R,LXGW WenKai GB Screen R_MSFontService,sans-serif" font-weight="400" font-size="96" transform="translate(638.031 491)">摘要</text><g clip-path="url(#clip7)" filter="url(#fx2)" transform="translate(828 421)"><g><path d="M4.81-26.455 23.014-26.455 22.533-22.385 8.695-22.385 7.659-14.134 20.202-14.134 19.721-10.064 7.178-10.064 5.772 1.332 1.406 1.332ZM24.1093-10.508C24.8247-16.4527 28.093-19.425 33.9143-19.425L35.6903-19.425C40.7963-19.425 43.3493-17.0817 43.3493-12.395 43.3493-11.8277 43.3123-11.211 43.2383-10.545L42.8683-7.437C42.153-1.49233 38.8847 1.48 33.0633 1.48L31.2873 1.48C26.1813 1.48 23.6283-0.863334 23.6283-5.55 23.6283-6.11733 23.6653-6.734 23.7393-7.4ZM33.5443-2.479C36.5043-2.479 38.1817-4.09467 38.5763-7.326L38.9833-10.656C39.0327-11.1493 39.0573-11.4947 39.0573-11.692 39.0573-14.208 37.7747-15.466 35.2093-15.466L33.4333-15.466C30.4733-15.466 28.796-13.8503 28.4013-10.619L27.9943-7.289C27.945-6.79567 27.9203-6.45033 27.9203-6.253 27.9203-3.737 29.203-2.479 31.7683-2.479ZM59.245-15.244C57.7157-15.2933 56.729-15.318 56.285-15.318 54.7063-15.318 53.5223-14.9418 52.733-14.1895 51.9437-13.4372 51.4503-12.1977 51.253-10.471L49.773 1.332 45.518 1.332 46.961-10.36C47.331-13.4927 48.2745-15.762 49.7915-17.168 51.3085-18.574 53.6333-19.277 56.766-19.277 57.9993-19.277 59.0477-19.24 59.911-19.166Z" transform="translate(26.7278 51)"/></g></g><text font-family="DingTalk JinBuTi,DingTalk JinBuTi_MSFontService,sans-serif" font-weight="400" font-size="37" transform="translate(853.169 471)">For</text><g clip-path="url(#clip8)" filter="url(#fx3)" transform="translate(896 421)"><g><path d="M23.088-19.277 7.955 9.102 3.441 9.102 8.029 0.481 1.554-19.277 6.179-19.277 10.656-4.625 10.767-4.625 18.574-19.277ZM24.276-10.508C24.9913-16.4527 28.2597-19.425 34.081-19.425L35.857-19.425C40.963-19.425 43.516-17.0817 43.516-12.395 43.516-11.8277 43.479-11.211 43.405-10.545L43.035-7.437C42.3197-1.49233 39.0513 1.48 33.23 1.48L31.454 1.48C26.348 1.48 23.795-0.863334 23.795-5.55 23.795-6.11733 23.832-6.734 23.906-7.4ZM33.711-2.479C36.671-2.479 38.3483-4.09467 38.743-7.326L39.15-10.656C39.1993-11.1493 39.224-11.4947 39.224-11.692 39.224-14.208 37.9413-15.466 35.376-15.466L33.6-15.466C30.64-15.466 28.9627-13.8503 28.568-10.619L28.161-7.289C28.1117-6.79567 28.087-6.45033 28.087-6.253 28.087-3.737 29.3697-2.479 31.935-2.479ZM60.1887-2.738 62.1867-19.277 66.4417-19.277 63.9257 1.332 54.6387 1.332C49.5327 1.332 46.9797-1.01133 46.9797-5.698 46.9797-6.26533 47.0167-6.882 47.0907-7.548L48.5337-19.277 52.7887-19.277 51.3457-7.437C51.2963-7.11633 51.2717-6.67233 51.2717-6.105 51.2717-4.82233 51.5738-3.93433 52.1782-3.441 52.7825-2.94767 53.763-2.701 55.1197-2.701ZM82.0783-15.244C80.549-15.2933 79.5623-15.318 79.1183-15.318 77.5397-15.318 76.3557-14.9418 75.5663-14.1895 74.777-13.4372 74.2837-12.1977 74.0863-10.471L72.6063 1.332 68.3513 1.332 69.7943-10.36C70.1643-13.4927 71.1078-15.762 72.6248-17.168 74.1418-18.574 76.4667-19.277 79.5993-19.277 80.8327-19.277 81.881-19.24 82.7443-19.166ZM91.4063 1.332 94.8843-27.195 99.1393-27.195 98.1773-19.277 103.246-19.277C105.812-19.277 107.736-18.685 109.018-17.501 110.301-16.317 110.942-14.5657 110.942-12.247 110.942-11.655 110.905-11.0383 110.831-10.397L110.498-7.585C109.783-1.64033 106.502 1.332 100.656 1.332ZM101.137-2.627C104.097-2.627 105.775-4.24267 106.169-7.474L106.539-10.508C106.589-11.0013 106.613-11.3467 106.613-11.544 106.613-14.06 105.331-15.318 102.765-15.318L97.6963-15.318 96.1423-2.627ZM113.74 1.332 117.218-27.195 121.473-27.195 117.995 1.332ZM123.609-10.508C124.325-16.4527 127.593-19.425 133.414-19.425L135.19-19.425C140.296-19.425 142.849-17.0817 142.849-12.395 142.849-11.8277 142.812-11.211 142.738-10.545L142.368-7.437C141.653-1.49233 138.385 1.48 132.563 1.48L130.787 1.48C125.681 1.48 123.128-0.863334 123.128-5.55 123.128-6.11733 123.165-6.734 123.239-7.4ZM133.044-2.479C136.004-2.479 137.682-4.09467 138.076-7.326L138.483-10.656C138.533-11.1493 138.557-11.4947 138.557-11.692 138.557-14.208 137.275-15.466 134.709-15.466L132.933-15.466C129.973-15.466 128.296-13.8503 127.901-10.619L127.494-7.289C127.445-6.79567 127.42-6.45033 127.42-6.253 127.42-3.737 128.703-2.479 131.268-2.479ZM146.239-10.36C146.88-16.3047 150.161-19.277 156.081-19.277L164.924-19.277 162.223 2.775C161.952 4.773 161.131 6.35167 159.762 7.511 158.393 8.67033 156.328 9.25 153.565 9.25 151.123 9.25 148.817 9.15133 146.646 8.954L147.09 5.106C149.458 5.328 151.703 5.439 153.824 5.439 155.181 5.439 156.18 5.217 156.821 4.773 157.462 4.329 157.845 3.626 157.968 2.664L158.116 1.332 153.491 1.332C148.385 1.332 145.832-1.04833 145.832-5.809 145.832-6.35167 145.869-6.93133 145.943-7.548ZM158.597-2.553 160.188-15.392 155.6-15.392C152.566-15.392 150.876-13.7517 150.531-10.471L150.198-7.437C150.149-6.94367 150.124-6.61067 150.124-6.438 150.124-3.848 151.407-2.553 153.972-2.553Z" fill="#FFC000" transform="translate(26.2278 51)"/></g></g><text fill="#FFC000" font-family="DingTalk JinBuTi,DingTalk JinBuTi_MSFontService,sans-serif" font-weight="400" font-size="37" transform="translate(920.669 471)">your blog</text></g></svg>