<svg xmlns="http://www.w3.org/2000/svg" xmlns:xlink="http://www.w3.org/1999/xlink" width="1920" height="1080" viewBox="0 0 1920 1080"><defs><style>.a{clip-path:url(#g);}.b{font-size:96px;font-family:DingTalk-JinBuTi, DingTalk JinBuTi;}.c{fill:url(#a);}.d{filter:url(#d);mix-blend-mode:soft-light;}.d,.e{isolation:isolate;}.e{filter:url(#b);mix-blend-mode:overlay;}</style><linearGradient id="a" x1="0.5" x2="0.5" y2="1" gradientUnits="objectBoundingBox"><stop offset="0" stop-color="#e4f3ef"/><stop offset="1" stop-color="#fce0e5"/></linearGradient><filter id="b" x="798" y="253" width="323.141" height="373.997" filterUnits="userSpaceOnUse"><feOffset dy="3" input="SourceAlpha"/><feGaussianBlur stdDeviation="3" result="c"/><feFlood flood-color="#171717"/><feComposite operator="in" in2="c"/><feComposite in="SourceGraphic"/></filter><filter id="d" x="519" y="700" width="882" height="134" filterUnits="userSpaceOnUse"><feOffset dy="3" input="SourceAlpha"/><feGaussianBlur stdDeviation="3" result="e"/><feFlood/><feComposite operator="in" in2="e"/><feComposite in="SourceGraphic"/></filter><clipPath id="g"><rect width="1920" height="1080"/></clipPath></defs><g id="f" class="a"><rect class="c" width="1920" height="1080"/><g class="e" transform="matrix(1, 0, 0, 1, 0, 0)"><path d="M140.714,165.714,128,153V76.714L140.714,64H420.426l12.714,12.714V153l-12.714,12.714ZM331.427,89.428H306v25.428H280.57V89.428H255.142v25.428H229.714V89.428H204.285v25.428H178.857V89.428H153.428v50.857H407.712V89.428H356.855v25.428H331.427ZM140.714,292.855,128,280.141V203.856l12.714-12.714H420.426l12.714,12.714v76.285l-12.714,12.714Zm89-76.285H204.285V242H178.857V216.57H153.428v50.857H407.712V216.57H356.855V242H331.427V216.57H306V242H280.57V216.57H255.142V242H229.714ZM420.426,420l12.714-12.714V331l-12.714-12.714H140.714L128,331v76.285L140.714,420Zm-267-25.428V343.712h25.428v25.428h25.428V343.712h25.428v25.428h25.428V343.712H280.57v25.428H306V343.712h25.428v25.428h25.428V343.712h50.857v50.857Z" transform="translate(679 195)"/></g><g class="d" transform="matrix(1, 0, 0, 1, 0, 0)"><text class="b" transform="translate(528 798)"><tspan x="0" y="0">搭建你的家庭服务器</tspan></text></g></g></svg>