<svg width="1280" height="720" xmlns="http://www.w3.org/2000/svg" xmlns:xlink="http://www.w3.org/1999/xlink" overflow="hidden"><defs><filter id="fx0" x="-10%" y="-10%" width="120%" height="120%" filterUnits="userSpaceOnUse" primitiveUnits="userSpaceOnUse"><feComponentTransfer color-interpolation-filters="sRGB"><feFuncR type="discrete" tableValues="0 0"/><feFuncG type="discrete" tableValues="0 0"/><feFuncB type="discrete" tableValues="0 0"/><feFuncA type="linear" slope="0.431373" intercept="0"/></feComponentTransfer><feGaussianBlur stdDeviation="1.00495 1.00495"/></filter><linearGradient x1="640" y1="0" x2="640" y2="720" gradientUnits="userSpaceOnUse" spreadMethod="reflect" id="fill1"><stop offset="0" stop-color="#E4F3EF"/><stop offset="0.41" stop-color="#EDECEB"/><stop offset="0.65" stop-color="#F2E8E9"/><stop offset="0.89" stop-color="#F6E5E7"/><stop offset="1" stop-color="#FCE0E5"/></linearGradient><clipPath id="clip2"><rect x="564" y="192" width="263" height="176"/></clipPath><clipPath id="clip3"><rect x="564" y="192" width="263" height="176"/></clipPath><clipPath id="clip4"><rect x="44" y="30" width="577" height="63"/></clipPath></defs><g><rect x="0" y="0" width="1280" height="720" fill="url(#fill1)"/><g clip-path="url(#clip2)"><g clip-path="url(#clip3)"></g></g><g><g><g><path d="M624.562 457.771 655.438 457.771 655.438 498.938 624.562 498.938Z"/><path d="M624.562 519.521 655.438 519.521 655.438 550.396 624.562 550.396Z"/><path d="M676.021 519.521 825.25 519.521 825.25 550.396 676.021 550.396Z"/><path d="M454.75 519.521 603.979 519.521 603.979 550.396 454.75 550.396Z"/><path d="M786.245 375.438 493.755 375.438C483.581 375.438 475.333 383.685 475.333 393.86L475.333 439.349C475.333 449.523 483.581 457.771 493.755 457.771L786.245 457.771C796.419 457.771 804.667 449.523 804.667 439.349L804.667 393.86C804.667 383.685 796.419 375.438 786.245 375.438ZM526.792 426.896C521.108 426.896 516.5 422.288 516.5 416.604 516.5 410.92 521.108 406.312 526.792 406.312 532.476 406.312 537.083 410.92 537.083 416.604 537.083 422.288 532.476 426.896 526.792 426.896ZM578.25 426.896C572.566 426.896 567.958 422.288 567.958 416.604 567.958 410.92 572.566 406.312 578.25 406.312 583.934 406.312 588.542 410.92 588.542 416.604 588.542 422.288 583.934 426.896 578.25 426.896ZM629.708 426.896C624.024 426.896 619.417 422.288 619.417 416.604 619.417 410.92 624.024 406.312 629.708 406.312 635.392 406.312 640 410.92 640 416.604 640 422.288 635.392 426.896 629.708 426.896Z"/><path d="M786.245 272.521 493.755 272.521C483.581 272.521 475.333 280.769 475.333 290.943L475.333 336.432C475.333 346.606 483.581 354.854 493.755 354.854L786.245 354.854C796.419 354.854 804.667 346.606 804.667 336.432L804.667 290.943C804.667 280.769 796.419 272.521 786.245 272.521ZM526.792 323.979C521.108 323.979 516.5 319.372 516.5 313.688 516.5 308.003 521.108 303.396 526.792 303.396 532.476 303.396 537.083 308.003 537.083 313.688 537.083 319.372 532.476 323.979 526.792 323.979ZM578.25 323.979C572.566 323.979 567.958 319.372 567.958 313.688 567.958 308.003 572.566 303.396 578.25 303.396 583.934 303.396 588.542 308.003 588.542 313.688 588.542 319.372 583.934 323.979 578.25 323.979ZM629.708 323.979C624.024 323.979 619.417 319.372 619.417 313.688 619.417 308.003 624.024 303.396 629.708 303.396 635.392 303.396 640 308.003 640 313.688 640 319.372 635.392 323.979 629.708 323.979Z"/><path d="M786.245 169.604 493.755 169.604C483.581 169.604 475.333 177.852 475.333 188.026L475.333 233.515C475.333 243.69 483.581 251.938 493.755 251.938L786.245 251.938C796.419 251.938 804.667 243.69 804.667 233.515L804.667 188.026C804.667 177.852 796.419 169.604 786.245 169.604ZM526.792 221.062C521.108 221.062 516.5 216.455 516.5 210.771 516.5 205.087 521.108 200.479 526.792 200.479 532.476 200.479 537.083 205.087 537.083 210.771 537.083 216.455 532.476 221.062 526.792 221.062ZM578.25 221.062C572.566 221.062 567.958 216.455 567.958 210.771 567.958 205.087 572.566 200.479 578.25 200.479 583.934 200.479 588.542 205.087 588.542 210.771 588.542 216.455 583.934 221.062 578.25 221.062ZM629.708 221.062C624.024 221.062 619.417 216.455 619.417 210.771 619.417 205.087 624.024 200.479 629.708 200.479 635.392 200.479 640 205.087 640 210.771 640 216.455 635.392 221.062 629.708 221.062Z"/></g></g></g><g><g><g><path d="M52.7 0C57.8363-1.72085e-15 62 4.16375 62 9.3L62 52.7C62 57.8363 57.8363 62 52.7 62L9.3 62C4.16375 62 1.29342e-06 57.8363 1.29342e-06 52.7L1.29342e-06 9.3C1.29342e-06 4.16375 4.16375 1.29342e-06 9.3 1.29342e-06Z" fill="#066DA5" transform="matrix(-1 0 0 1 787 179)"/><path d="M35.8438 29.668 40.9297 29.668 40.9297 25.0664 35.8438 25.0664ZM29.7891 29.668 34.875 29.668 34.875 25.0664 29.7891 25.0664ZM23.8555 29.668 28.9414 29.668 28.9414 25.0664 23.8555 25.0664ZM17.9219 29.668 22.8867 29.668 22.8867 25.0664 17.9219 25.0664ZM11.8672 29.668 16.9531 29.668 16.9531 25.0664 11.8672 25.0664ZM17.9219 24.0977 22.8867 24.0977 22.8867 19.4961 17.9219 19.4961ZM23.8555 24.0977 28.9414 24.0977 28.9414 19.4961 23.8555 19.4961ZM29.7891 24.0977 34.875 24.0977 34.875 19.4961 29.7891 19.4961ZM29.7891 18.5273 34.875 18.5273 34.875 13.9258 29.7891 13.9258ZM57.1562 27.6094C57.1562 27.6094 54.9766 25.5508 50.4961 26.2773 50.0117 22.7656 46.2578 20.707 46.2578 20.707 46.2578 20.707 42.7461 24.9453 45.2891 29.668 44.5625 30.0312 43.3516 30.5156 41.5352 30.5156L8.23438 30.5156C7.62891 32.8164 7.62891 48.0742 24.3398 48.0742 36.3281 48.0742 45.2891 42.5039 49.5273 32.332 55.8242 32.8164 57.1562 27.6094 57.1562 27.6094Z" fill="#FFFFFF" transform="matrix(-1 0 0 1 787 179)"/></g></g></g><g clip-path="url(#clip4)" filter="url(#fx0)" transform="translate(284 546)"><g><path d="M11.064 4.346C8.71333 4.17133 6.26267 3.425 3.712 2.107L4.518-4.672C6.65-3.832 8.259-3.27733 9.345-3.008L9.868-2.816C9.77067-2.816 9.72717-2.82517 9.7375-2.8435 9.74783-2.86183 9.788-3.02933 9.858-3.346L11.584-17.6 4.8-15.552 5.749-22.915C8.779-23.673 10.973-24.2783 12.331-24.731L13.632-34.688 6.976-34.688 7.744-41.536 14.334-41.536 15.55-51.648 22.592-51.648 21.376-41.536 27.328-41.536 26.614-34.688 20.658-34.688 19.648-26.944 25.408-29.056 24.648-21.923 18.887-19.811 16.681-1.154C16.4597 0.572667 15.875 1.94333 14.927 2.958 13.979 3.97267 12.6913 4.43533 11.064 4.346ZM26.496-40.256 27.199-46.72 33.468-46.72 33.98-51.072 40.832-51.072 40.32-46.72 47.996-46.72 48.508-51.072 55.424-51.072 54.912-46.72 62.016-46.72 61.298-40.256 54.202-40.256 53.754-35.968 46.848-35.968 47.296-40.256 39.61-40.256 39.162-35.968 32.256-35.968 32.768-40.256ZM47.661-35.968C49.2463-36.096 50.4927-35.3323 51.4-33.677L61.952-18.112 54.726-17.216 51.057-23.68 50.677-19.264 32-19.264 32.448-23.104 28.616-17.408 21.376-18.313 33.868-34.176C34.2487-34.6727 34.7608-35.1168 35.4045-35.5085 36.0482-35.9002 36.751-36.0533 37.513-35.968ZM46.177-29.696 38.891-29.696 34.816-25.6 49.472-25.6ZM54.265 3.712 23.488 3.712 25.031-10.749C25.5397-14.6337 27.7133-16.576 31.552-16.576L50.496-16.576C54.3787-16.576 56.146-14.59 55.798-10.618ZM31.04-2.624 47.925-2.624 48.768-10.24 31.928-10.24ZM125.568-39.488 124.919-33.152 121.785-33.152 120.889-24.768 108.152-24.768 107.904-23.04 121.28-23.04 120.629-16.832 107.256-16.832 106.944-14.528 122.88-14.528 122.231-8.192 106.361-8.192 105.785-2.816 98.88-2.816 99.456-8.192 86.656-8.192 87.36-14.528 100.025-14.528 100.352-16.832 89.856-16.832 90.491-23.04 100.921-23.04 101.184-24.768 91.2-24.768 91.835-30.976 101.754-30.976 102.08-33.152 88.96-33.152 89.594-39.488 102.654-39.488 102.976-41.472 92.8-41.472 93.505-47.68 103.543-47.68 103.991-51.904 110.976-51.904 110.528-47.68 117.76-47.68C119.354-47.68 120.585-47.2465 121.452-46.3795 122.318-45.5125 122.752-44.282 122.752-42.688 122.752-42.1853 122.723-41.761 122.665-41.415L122.368-39.488ZM124.096-2.56 122.052 4.032 100.736 4.032C91.6907 4.032 84.7323 1.664 79.861-3.072 78.1017-0.184667 75.8913 2.482 73.23 4.928L66.816 2.297C70.266-1.37767 73.082-4.86067 75.264-8.152 72.686-11.7133 70.7447-16.7187 69.44-23.168L76.225-23.168C77.0997-19.5753 78.026-16.6313 79.004-14.336 80.28-17.4747 81.252-20.6977 81.92-24.005 82.0053-24.745 82.048-25.1273 82.048-25.152 82.048-25.1567 82.05-25.1578 82.054-25.1555 82.058-25.1532 81.9067-25.152 81.6-25.152L75.648-25.152C74.226-25.152 73.1025-25.4485 72.2775-26.0415 71.4525-26.6345 71.04-27.4473 71.04-28.48 71.04-29.5173 71.5413-30.585 72.544-31.683 75.166-34.5583 78.1633-37.9707 81.536-41.92L72.384-41.92 73.152-48.768 86.08-48.768C87.034-48.768 87.8768-48.5787 88.6085-48.2 89.3402-47.8213 89.8897-47.2907 90.257-46.608 90.5017-46.0213 90.624-45.4827 90.624-44.992 90.624-44.0513 90.3067-43.1173 89.672-42.19 86.9767-38.2533 84.0727-34.814 80.96-31.872L84.288-31.872C87.7013-31.872 89.408-30.1653 89.408-26.752 89.408-25.4313 89.1977-24.0073 88.777-22.48 88.3563-20.9527 87.7703-19.0613 87.019-16.806 85.9717-13.874 84.7627-11.2017 83.392-8.789 85.5187-6.749 88.171-5.18883 91.349-4.1085 94.527-3.02817 98.5947-2.512 103.552-2.56ZM115.38-39.488 115.648-41.472 109.939-41.472 109.632-39.488ZM109.047-33.152 108.736-30.976 114.545-30.976 114.816-33.152ZM155.264-51.52C153.364-47.3307 151.564-43.677 149.863-40.559L144.499 4.48 136.96 4.48 140.928-26.944 139.173-22.592 131.008-22.592C134.048-27.7873 136.968-32.8003 139.767-37.631 142.337-42.2003 144.828-46.83 147.24-51.52ZM168.576-51.456C168.041-49.6167 167.209-47.5687 166.08-45.312L183.68-45.312C187.52-45.312 189.44-43.9467 189.44-41.216 189.44-40.3733 189.195-39.327 188.706-38.077L184.623-28.032 177.152-28.032 181.312-38.336 163.29-38.336 162.374-36.343C160.098-31.7903 158.644-28.9347 158.012-27.776L150.016-27.776C152.659-32.9727 154.727-37.1283 156.22-40.243 157.691-43.311 159.29-47.0487 161.017-51.456ZM170.862-0.164C170.436 3.14533 168.65 4.8 165.504 4.8 164.417 4.8 163.262 4.63667 162.041 4.31 160.82 3.98333 159.985 3.75667 159.538 3.63 157.75 3.142 156.219 2.62267 154.944 2.072L155.877-4.8C157.864-4.23533 160.414-3.568 163.527-2.798L163.742-2.752C163.776-2.752 163.811-2.86167 163.848-3.081L167.418-34.752 174.72-34.752ZM163.2-26.432C160.307-17.902 157.563-10.8407 154.968-5.248L147.392-5.248C150.311-11.8907 153.231-18.952 156.152-26.432ZM182.637-26.304C185.082-17.26 186.88-10.028 188.032-4.608L180.716-4.608C180.546-5.516 179.873-8.561 178.698-13.743L178.401-15.113 177.088-21.015 175.808-26.304ZM219.387 1.28 196.48 1.28 201.03-40.12C201.167-41.5313 201.701-42.6535 202.632-43.4865 203.563-44.3195 204.819-44.736 206.4-44.736L207.951-44.736 209.935-51.584 217.152-51.584 215.168-44.736 218.496-44.736C222.251-44.736 223.933-42.7073 223.542-38.65ZM238.656-51.456C238.035-49.3047 237.608-47.882 237.376-47.188L236.032-44.224 244.672-44.224C247.087-44.224 248.864-43.7755 250.003-42.8785 251.142-41.9815 251.712-40.5313 251.712-38.528 251.712-37.9533 251.684-37.4727 251.629-37.086 251.118-30.998 250.545-25.2227 249.91-19.76L249.654-17.712C249.475-16.186 249.173-13.7578 248.749-10.4275 248.324-7.09717 247.922-4.20667 247.542-1.756 247.22 0.312 246.545 1.83633 245.517 2.817 244.488 3.79767 243.055 4.288 241.216 4.288 240.552 4.288 240.046 4.26333 239.698 4.214 236.287 3.83467 231.929 2.93 226.624 1.5L227.474-5.824C232.541-4.66133 236.419-3.89067 239.109-3.512 239.296-3.47467 239.529-3.456 239.808-3.456 239.929-3.456 240.003-3.482 240.032-3.534 240.061-3.586 240.123-3.922 240.218-4.542 240.892-8.75467 241.587-14.1293 242.304-20.666 242.82-25.3127 243.396-30.7547 244.032-36.992L233.313-36.992C232.249-34.5093 231.026-31.8853 229.643-29.12L221.824-29.12C225.181-36.7693 228.251-44.2147 231.033-51.456ZM216.512-37.76 207.8-37.76 206.464-26.24 215.223-26.24ZM234.111-28.992 237.888-13.056 230.719-13.056 227.072-28.992ZM205.816-19.52 204.224-5.696 213.048-5.696 214.592-19.52ZM310.656-47.104C312.899-47.104 314.569-46.6773 315.666-45.824 316.763-44.9707 317.312-43.6907 317.312-41.984 317.312-41.7707 317.266-41.296 317.174-40.56L316.209-32.768 308.736-32.768 309.632-40.384 272.881-40.384 271.921-32.768 264.384-32.768 265.28-40.771C265.549-42.8863 266.199-44.4707 267.228-45.524 268.257-46.5773 269.805-47.104 271.872-47.104L287.36-47.104 286.016-51.648 293.845-51.648 295.317-47.104ZM312.212-22.82C309.508-21.4213 305.853-20.0017 301.248-18.561 302.843-15.7797 304.933-12.9957 307.52-10.209 309.464-8.34367 312.365-5.82767 316.224-2.661L309.691 1.408C302.814-4.386 298.037-10.4873 295.36-16.896L295.168-16.757C295.205-14.9037 295.136-12.698 294.962-10.14L294.71-7.428C294.534-5.31733 294.385-3.78933 294.262-2.844 294.213-2.54267 294.146-1.94317 294.06-1.0455 293.975-0.147833 293.743 0.701833 293.366 1.5035 292.989 2.30517 292.467 2.99133 291.802 3.562 290.706 4.51533 289.417 4.992 287.936 4.992 287.485 4.992 286.522 4.88033 285.047 4.657 283.162 4.40633 281.353 4.02067 279.618 3.5 278.604 3.192 277.707 2.83433 276.928 2.427L277.655-4.096C280.182-3.31467 283.176-2.632 286.639-2.048L286.72-2.048C286.914-2.048 287.042-2.031 287.104-1.997 287.451-4.383 287.813-7.216 288.192-10.496 285.029-7.84067 281.119-5.45133 276.462-3.328 272.701-1.17533 268.595 0.531333 264.144 1.792L260.288-3.712C265.188-5.04133 270.485-7.19333 276.18-10.168 280.792-12.5373 284.817-15.0263 288.256-17.635 288.129-18.3983 288.02-19.0693 287.93-19.648 284.759-17.3847 280.985-15.358 276.608-13.568 272.949-11.5833 269.277-10.09 265.591-9.088L262.016-14.597C266.331-15.7997 270.818-17.5047 275.475-19.712 279.78-21.7127 283.229-23.5163 285.824-25.123L285.328-25.664 285.056-26.368C279.575-23.3193 273.444-20.8873 266.664-19.072L263.104-24.816C266.589-25.6153 270.085-26.6313 273.592-27.864 277.099-29.0967 280.217-30.0913 282.944-30.848L273.216-30.848 273.917-37.44 307.392-37.44 306.745-30.848 292.81-30.848 290.688-29.556C292.285-27.176 293.39-24.9827 294.004-22.976 296.575-23.7673 299.902-24.8767 303.985-26.304 307.328-27.668 310.299-29.012 312.896-30.336ZM336.694-23.664C336.05-18.1247 335.257-13.344 334.316-9.322 333.155-4.38067 331.46 0.369334 329.231 4.928L322.112 2.9C324.431-2.01667 326.077-6.48433 327.05-10.503 327.517-12.3303 327.89-14.2353 328.167-16.218 328.444-18.2007 328.815-21.093 329.28-24.895L331.2-41.599C331.427-43.551 331.989-44.9992 332.885-45.9435 333.781-46.8878 335.182-47.36 337.088-47.36L353.92-47.36 352.448-51.904 360.272-51.904 361.872-47.36 381.312-47.36 380.596-40.704 338.615-40.704ZM379.776-25.216 379.127-18.88 370.165-18.88 369.344-12.352 377.344-12.352 376.696-5.952 353.92-5.952 354.553-12.352 362.043-12.352 362.88-18.88 354.176-18.88 354.81-25.216 363.517-25.216 364.288-30.976C363.247-30.808 361.934-30.68 360.35-30.592L355.2-30.336 355.966-36.693C360.357-36.9677 364.195-37.3183 367.48-37.745 373.191-38.3843 377.268-38.88 379.712-39.232L378.935-32.577 371.707-31.617 370.88-25.216ZM380.16-2.688 378.115 3.776 359.552 3.776C353.497 3.776 348.584 2.00533 344.815-1.536 343.314 0.324 341.16 2.32933 338.351 4.48L332.032 1.948C335.638-1.272 338.475-4.09967 340.544-6.535 338.827-8.94433 337.27-12.654 335.872-17.664L342.445-17.664C343.066-15.3727 343.723-13.3887 344.418-11.712 344.977-13.008 345.857-15.116 347.059-18.036 347.153-18.3173 347.2-18.5347 347.2-18.688 347.2-18.7027 347.189-18.717 347.167-18.731 347.144-18.745 347.006-18.752 346.752-18.752L341.312-18.752C340.111-18.752 339.192-19.0438 338.556-19.6275 337.918-20.2112 337.6-20.986 337.6-21.952 337.6-22.998 338.044-23.965 338.932-24.853 340.323-26.2437 341.687-27.375 343.025-28.247 342.566-27.805 342.945-28.541 344.164-30.455L345.792-31.616 338.24-31.616 338.943-38.08 350.208-38.08C352.125-38.08 353.475-37.3997 354.26-36.039 354.46-35.6397 354.56-35.168 354.56-34.624 354.56-33.79 354.257-32.8687 353.652-31.86 352.077-30.014 349.841-27.7993 346.944-25.216L349.952-25.216C352.896-25.216 354.368-23.9147 354.368-21.312 354.368-20.432 354.234-19.5623 353.965-18.703 352.62-13.911 350.855-9.90267 348.672-6.678 351.863-4.018 356.215-2.688 361.728-2.688ZM409.974-1.712C409.744 0.264667 409.202 1.71617 408.349 2.6425 407.496 3.56883 406.271 4.032 404.672 4.032 403.297 4.032 401.99 3.91033 400.751 3.667 399.513 3.42367 397.961 3.017 396.096 2.447L396.963-3.968C399.559-3.27267 401.52-2.82167 402.847-2.615L403.184-2.56C403.119-2.56 403.096-2.5825 403.116-2.6275 403.136-2.6725 403.209-2.947 403.335-3.451L404.736-14.848 397.936-14.848C397.47-11.1993 396.825-7.81467 396.002-4.694 395.049-1.05467 393.828 2.00333 392.339 4.48L386.048 2.221C387.347-0.617 388.397-3.40883 389.199-6.1545 390.002-8.90017 390.637-12.078 391.104-15.688L394.816-44.744C395.045-46.5253 395.608-47.8653 396.507-48.764 397.406-49.6627 398.741-50.112 400.512-50.112L410.24-50.112C411.979-50.112 413.267-49.7568 414.104-49.0465 414.941-48.3362 415.36-47.198 415.36-45.632 415.36-45.34 415.314-44.78 415.222-43.952ZM424.176-43.072 422.272-28.48 438.016-28.48C439.714-28.48 441.013-28.0923 441.914-27.317 442.814-26.5417 443.264-25.5 443.264-24.192 443.264-23.3427 442.954-22.1693 442.334-20.672 440.813-16.322 438.413-12.0313 435.136-7.8 437.119-5.538 440.276-2.43033 444.608 1.523L438.072 4.672C434.675 1.408 432.298-1.152 430.94-3.008 428.522-0.257333 425.661 2.23867 422.356 4.48L418.437 1.792 418.166 4.608 411.136 4.608 417.152-44.479C417.381-46.309 417.944-47.6733 418.843-48.572 419.742-49.4707 421.162-49.92 423.104-49.92L439.232-49.92C441.057-49.92 442.398-49.554 443.257-48.822 444.115-48.09 444.544-46.92 444.544-45.312 444.544-44.672 444.518-44.1453 444.466-43.732 444.125-40.2727 443.624-36.9593 442.964-33.792 442.609-32.376 442.025-31.286 441.212-30.522 440.399-29.758 439.27-29.376 437.824-29.376 437.239-29.376 436.798-29.4007 436.502-29.45 432.656-29.8773 429.363-30.601 426.624-31.621L427.134-37.696C430.191-36.9627 432.814-36.4487 435.003-36.154 435.197-36.1153 435.433-36.096 435.712-36.096 435.802-36.096 435.863-36.1142 435.894-36.1505 435.925-36.1868 435.975-36.357 436.042-36.661 436.421-38.3903 436.759-40.5273 437.056-43.072ZM408.128-43.328 401.77-43.328 400.64-35.776 407.164-35.776ZM406.464-29.184 399.852-29.184 398.72-21.376 405.438-21.376ZM418.688-0.32C421.694-2.88 424.467-5.49333 427.008-8.16 424.056-12.3833 421.929-16.9167 420.626-21.76L421.488-21.76ZM427.264-21.76C428.377-18.7133 429.665-15.8333 431.129-13.12 432.507-15.4833 433.766-18.144 434.907-21.102 435.06-21.4453 435.136-21.7287 435.136-21.952 435.136-21.8253 435.137-21.7617 435.138-21.761 435.14-21.7603 434.969-21.76 434.624-21.76ZM501.964-39.934C499.235-37.0747 495.369-34.509 490.368-32.237 496.183-30.233 502.754-28.589 510.08-27.305L506.968-20.736C497.857-22.4587 489.759-24.9973 482.674-28.352 474.931-25.1287 465.897-22.59 455.574-20.736L451.904-26.577C460.773-28.1703 468.624-30.135 475.456-32.471 472.65-33.779 470.225-35.2007 468.18-36.736 466.403-34.7093 465.012-33.216 464.006-32.256L455.232-32.256C462.177-39.6867 467.477-46.044 471.132-51.328L479.68-51.328 476.928-47.744 498.496-47.744C500.08-47.744 501.383-47.4077 502.404-46.735 503.425-46.0623 503.936-45.1613 503.936-44.032 503.936-42.6613 503.279-41.2953 501.964-39.934ZM472.384-41.656C476.125-39.352 479.603-37.4133 482.818-35.84 486.741-37.7267 490.123-39.73 492.964-41.85 493.111-41.934 493.184-41.936 493.184-41.856 493.184-41.5573 493.12-41.408 492.992-41.408L472.45-41.408ZM483.392-25.664C482.992-23.3027 482.544-21.5747 482.048-20.48L496.576-20.48C498.531-20.48 499.979-20.0707 500.922-19.252 501.865-18.4333 502.336-17.2 502.336-15.552 502.336-14.9773 502.309-14.503 502.256-14.129 502.214-13.3697 502-11.511 501.614-8.553L501.416-7.233C501.12-4.82167 500.714-2.61333 500.199-0.608 499.303 2.86933 497.242 4.608 494.016 4.608 493.451 4.608 492.901 4.544 492.366 4.416 487.643 3.642 483.222 2.53133 479.104 1.084L479.824-5.696C484.133-4.478 488.183-3.49067 491.975-2.734 492.106-2.70333 492.253-2.688 492.416-2.688 492.555-2.688 492.659-2.72767 492.729-2.807 492.8-2.88633 492.866-2.87 492.928-2.758L493.838-8.812 494.528-13.632 479.565-13.632C477.543-9.424 474.725-5.80483 471.11-2.7745 467.495 0.255833 462.87 2.84467 457.233 4.992L451.584 0.242C456.759-1.90267 460.937-4.10183 464.117-6.3555 467.298-8.60917 469.819-11.0347 471.68-13.632L457.792-13.632 458.49-20.48 474.338-20.48C474.529-21.042 474.984-22.77 475.704-25.664ZM543.412-33.088 521.344-33.088 522.764-45.671C522.989-47.241 523.578-48.4057 524.534-49.165 525.489-49.9243 526.836-50.304 528.576-50.304L539.008-50.304C542.848-50.304 544.768-48.64 544.768-45.312 544.768-44.78 544.739-44.309 544.68-43.899ZM568.948-33.024 546.88-33.024 548.3-45.607C548.525-47.177 549.115-48.3417 550.07-49.101 551.025-49.8603 552.372-50.24 554.112-50.24L564.48-50.24C566.54-50.24 568.068-49.7265 569.065-48.6995 570.062-47.6725 570.445-46.0513 570.216-43.836ZM537.92-44.032 529.592-44.032 529.024-39.488 537.219-39.488ZM563.392-43.968 555.128-43.968 554.56-39.424 562.751-39.424ZM548.672-33.152C548.335-31.8633 547.844-30.8607 547.2-30.144L555.2-30.144 553.28-33.024 560.346-33.024 562.33-30.144 571.712-30.144 570.924-23.68 555.648-23.68C560.323-21.0367 566.253-18.676 573.44-16.598L569.019-11.52 567.616-12.096C567.744-12.048 567.808-11.7067 567.808-11.072 567.808-10.612 567.78-10.216 567.725-9.884L566.001 3.776 544 3.776 545.933-11.627C546.158-13.1983 546.748-14.352 547.705-15.088 548.661-15.824 550.007-16.192 551.744-16.192L559.552-16.192C554.779-17.8413 550.701-20.3373 547.317-23.68L542.734-23.68C541.075-22.0207 539.069-20.4832 536.716-19.0675 534.364-17.6518 531.736-16.6933 528.832-16.192L537.024-16.192C539.087-16.192 540.616-15.6913 541.612-14.69 542.606-13.6887 542.989-12.0733 542.76-9.844L541.041 3.776 519.296 3.776 521.22-11.559C521.265-12.419 521.456-12.8327 521.792-12.8L519.454-11.904 515.392-17.378C520.005-18.4033 523.811-19.4927 526.81-20.646 529.809-21.7993 532.275-22.8107 534.208-23.68L519.04-23.68 519.88-30.144 539.78-30.144C540.295-30.756 540.901-31.7587 541.598-33.152ZM535.808-9.984 528.047-9.984 527.04-2.56 534.785-2.56ZM560.704-9.984 552.879-9.984 551.872-2.56 559.681-2.56Z" transform="translate(43.7318 85)"/></g></g><text font-family="DingTalk JinBuTi,DingTalk JinBuTi_MSFontService,sans-serif" font-weight="700" font-size="64" transform="translate(325.6 629)">搭建你的家庭服务器</text></g></svg>