<svg xmlns="http://www.w3.org/2000/svg" xmlns:xlink="http://www.w3.org/1999/xlink" width="1920" height="1080" viewBox="0 0 1920 1080"><defs><style>.a{clip-path:url(#c);}.b,.c{mix-blend-mode:soft-light;isolation:isolate;}.c{font-size:73px;font-family:DingTalk-JinBuTi, DingTalk JinBuTi;}.d{fill:url(#a);}</style><linearGradient id="a" x1="0.5" x2="0.5" y2="1" gradientUnits="objectBoundingBox"><stop offset="0" stop-color="#c5cfc9"/><stop offset="0" stop-color="#b5dbc4"/><stop offset="0.417" stop-color="#a1dfba"/><stop offset="1" stop-color="#51b4b0"/></linearGradient><clipPath id="c"><rect width="1920" height="1080"/></clipPath></defs><g id="b" class="a"><rect class="d" width="1920" height="1080"/><g transform="translate(-85 -130)"><g class="b" transform="translate(735.413 205.9)"><path d="M541.822,407.627v-22.07a25.758,25.758,0,0,0-51.516,0v18.26H103.092A103.194,103.194,0,0,0,0,506.97v48.311A103.151,103.151,0,0,0,78.181,655.35l14.149,3.507v38.516a25.758,25.758,0,0,0,51.516,0V661.639H479v35.8a25.758,25.758,0,0,0,51.516,0V657.95l10.1-2.539A103.092,103.092,0,0,0,618.672,555.4V506.97c.06-47.827-32.711-87.673-76.85-99.343ZM569.817,555.4a54.192,54.192,0,0,1-41.055,52.6l-19.288,4.777-400.4-.121-19.107-4.777a54.143,54.143,0,0,1-41.116-52.6V506.97a54.242,54.242,0,0,1,54.176-54.176H515.52A54.242,54.242,0,0,1,569.7,506.97V555.4Z" transform="translate(0 -117.302)"/><path d="M261.51,368.929H158.358a25.758,25.758,0,0,0,0,51.516H261.45a25.758,25.758,0,0,0,.06-51.516ZM510.866,143.76c31.381-37.427,83.8-37.427,115.185,0A25.8,25.8,0,0,0,662.39,146.9a25.852,25.852,0,0,0,3.2-36.339c-25.637-30.6-60.1-47.465-97.106-47.465s-71.409,16.87-97.106,47.465a25.792,25.792,0,0,0,39.483,33.2Zm-.847,39.544a25.8,25.8,0,1,0,39.544,33.135c10.7-12.819,27.088-12.819,37.79,0a25.766,25.766,0,0,0,19.772,9.191,25.381,25.381,0,0,0,16.567-6.046,25.842,25.842,0,0,0,3.2-36.339c-15.116-18.018-36.4-28.358-58.409-28.358S525.135,165.285,510.019,183.3Z" transform="translate(-52.424 0)"/></g><text class="c" transform="translate(680 924)"><tspan x="0" y="0">小米路由器的一些玩法</tspan></text><text class="c" transform="translate(414 1054)"><tspan x="0" y="0">Some ways to play XiaoQiang router</tspan></text></g></g></svg>