<svg xmlns="http://www.w3.org/2000/svg" xmlns:xlink="http://www.w3.org/1999/xlink" width="1920" height="1080" viewBox="0 0 1920 1080"><defs><style>.a{clip-path:url(#c);}.b{fill:#22b33e;font-size:148px;font-family:DingTalk-JinBuTi, DingTalk JinBuTi;opacity:0.89;}.c{opacity:0.83;mix-blend-mode:multiply;isolation:isolate;}.d{fill:#1590e9;}.e{fill:#99c236;}.f{fill:#cac134;}.g{fill:#029f40;}.h{fill:url(#a);}</style><linearGradient id="a" x1="0.238" y1="0.737" x2="1" gradientUnits="objectBoundingBox"><stop offset="0" stop-color="#a8ff78"/><stop offset="1" stop-color="#78ffd6"/></linearGradient><clipPath id="c"><rect width="1920" height="1080"/></clipPath></defs><g id="b" class="a"><rect class="h" width="1920" height="1080"/><g transform="translate(0 7.344)"><text class="b" transform="translate(463 744)"><tspan x="0" y="0">语雀同步 Hexo</tspan></text><g class="c" transform="translate(715.124 140.835)"><path class="d" d="M228.505,635.386c-.035.035-.07.105-.1.14,1.365-1.54,2.8-3.151,4.2-4.726Z" transform="translate(-83.316 -315.845)"/><path class="e" d="M566.832,198.482l8.962-5.286a5.059,5.059,0,0,0-.735-9.067l-4.306-1.68A40.945,40.945,0,0,1,554.4,170.9a71.776,71.776,0,0,0-31.823-21.285c-18.45-6.3-50.027-5.041-67.636-3.676a7.676,7.676,0,0,0-6.091,11.378c14.914,27.517,5.846,40.015-2,49.257-12.008,14.143-34.1,39.28-56.259,64.276,7.667-8.577,14.634-16.384,20.34-22.79,12.743-14.283,31.963-21.53,50.8-18.1,60.039,10.958,66.866,88.711-3.221,134.992,9.137-.49,18.414-1.155,27.727-2.1,88.431-9.1,95.433-81.255,76.318-116.893-6.792-12.638-7.772-21.18-7.037-29.372A23.4,23.4,0,0,1,566.832,198.482Z" transform="translate(-188.732)"/><path class="d" d="M212.8,574.647c9.907-11.063,36.129-40.435,62.28-69.947-19.115,21.425-42.64,47.857-62.28,69.947Z" transform="translate(-73.178 -233.89)"/><path class="f" d="M140.848,732.214A8.648,8.648,0,0,1,135.421,718c-18.1,20.41-32.1,36.234-34.693,39.42-8.437,10.328,86.716,34.273,168.951-19.885.035-.035.105-.07.14-.1C215.031,740.3,165.319,735.364,140.848,732.214Z" transform="translate(0 -372.518)"/><path class="g" d="M334.541,386.336c-18.835-3.431-38.054,3.816-50.8,18.1-5.706,6.372-12.673,14.178-20.34,22.791-26.151,29.512-52.373,58.884-62.28,69.947q-2.153,2.416-4.2,4.726a8.656,8.656,0,0,0,5.426,14.213c24.471,3.151,74.183,8.087,128.936,5.251C401.372,475.047,394.581,397.294,334.541,386.336Z" transform="translate(-61.501 -156.416)"/></g></g></g></svg>