<svg width="1280" height="720" xmlns="http://www.w3.org/2000/svg" xmlns:xlink="http://www.w3.org/1999/xlink" overflow="hidden"><defs><filter id="fx0" x="-10%" y="-10%" width="120%" height="120%" filterUnits="userSpaceOnUse" primitiveUnits="userSpaceOnUse"><feComponentTransfer color-interpolation-filters="sRGB"><feFuncR type="discrete" tableValues="0 0"/><feFuncG type="discrete" tableValues="0 0"/><feFuncB type="discrete" tableValues="0 0"/><feFuncA type="linear" slope="0.431373" intercept="0"/></feComponentTransfer><feGaussianBlur stdDeviation="2.22 2.22"/></filter><filter id="fx1" x="-10%" y="-10%" width="120%" height="120%" filterUnits="userSpaceOnUse" primitiveUnits="userSpaceOnUse"><feComponentTransfer color-interpolation-filters="sRGB"><feFuncR type="discrete" tableValues="0 0"/><feFuncG type="discrete" tableValues="0 0"/><feFuncB type="discrete" tableValues="0 0"/><feFuncA type="linear" slope="0.431373" intercept="0"/></feComponentTransfer><feGaussianBlur stdDeviation="1.1523 1.1523"/></filter><filter id="fx2" x="-10%" y="-10%" width="120%" height="120%" filterUnits="userSpaceOnUse" primitiveUnits="userSpaceOnUse"><feComponentTransfer color-interpolation-filters="sRGB"><feFuncR type="discrete" tableValues="0 0"/><feFuncG type="discrete" tableValues="0 0"/><feFuncB type="discrete" tableValues="0 0"/><feFuncA type="linear" slope="0.431373" intercept="0"/></feComponentTransfer><feGaussianBlur stdDeviation="0.669874 0.669874"/></filter><filter id="fx3" x="-10%" y="-10%" width="120%" height="120%" filterUnits="userSpaceOnUse" primitiveUnits="userSpaceOnUse"><feComponentTransfer color-interpolation-filters="sRGB"><feFuncR type="discrete" tableValues="0 0"/><feFuncG type="discrete" tableValues="0 0"/><feFuncB type="discrete" tableValues="0 0"/><feFuncA type="linear" slope="0.431373" intercept="0"/></feComponentTransfer><feGaussianBlur stdDeviation="0.669874 0.669874"/></filter><clipPath id="clip4"><rect x="139" y="155" width="155" height="196"/></clipPath><clipPath id="clip5"><rect x="53" y="58" width="129" height="54"/></clipPath><clipPath id="clip6"><rect x="21" y="19" width="81" height="30"/></clipPath><clipPath id="clip7"><rect x="20" y="19" width="264" height="35"/></clipPath></defs><g><rect x="0" y="0" width="1280" height="720" fill="#F4FAB2"/><g clip-path="url(#clip4)" filter="url(#fx0)" transform="translate(393 132)"><g><path d="M142.324-119.34 51.051 54.366 20.553 54.366 47.957 0.511063 9.282-119.34 40.7849-119.34 67.5293-31.824 65.1156-31.824 111.747-119.34Z" fill="#A6CAEC" transform="translate(141.369 285)"/></g></g><text fill="#A6CAEC" font-family="DingTalk JinBuTi,DingTalk JinBuTi_MSFontService,sans-serif" font-weight="700" font-size="221" transform="translate(529.66 413)">y</text><g clip-path="url(#clip5)" filter="url(#fx1)" transform="translate(576 346)"><g><path d="M27.36-43.52C33.0733-43.52 37.4083-42.1544 40.365-39.4231 43.3217-36.6919 44.8-32.6975 44.8-27.44 44.8-26.2725 44.7158-24.9592 44.5475-23.5L43.5825-15.6 13.84-15.6 13.84-16.3825C13.7333-15.2125 13.68-14.3917 13.68-13.92 13.68-11.4017 14.3827-9.55875 15.7881-8.39125 17.1935-7.22375 19.6642-6.64 23.2-6.64L27.12-6.64C29.9317-6.64 34.4117-6.90667 40.56-7.44L39.6 2.41375C34.4758 2.93792 30.0225 3.2 26.24 3.2L22.32 3.2C15.6608 3.2 10.7427 1.82229 7.56562-0.933125 4.38854-3.68854 2.8-7.72417 2.8-13.04 2.8-14.3192 2.88-15.5987 3.04-16.8787L3.84-23.5987C4.605-30.1529 6.79417-35.1117 10.4075-38.475 14.0208-41.8383 19.1383-43.52 25.76-43.52ZM33.84-24.88 33.84-24.2962C33.9467-25.4688 34-26.3033 34-26.8 34-29.1317 33.3979-30.8879 32.1937-32.0687 30.9896-33.2496 29.0317-33.84 26.32-33.84L24.72-33.84C18.895-33.84 15.5883-30.8533 14.8-24.88ZM60.9333 2.88C56.7167 2.88 53.3292 1.67187 50.7708-0.744375 48.2125-3.16062 46.9333-6.29917 46.9333-10.16 46.9333-11.0125 46.9658-11.7008 47.0308-12.225 47.5125-15.5383 48.4-18.2212 49.6933-20.2738 50.9867-22.3262 52.8669-23.8204 55.334-24.7563 57.801-25.6921 60.9742-26.16 64.8533-26.16L77.5733-26.16 77.5733-26.1488C77.6267-26.4196 77.6533-26.77 77.6533-27.2 77.6533-29.0342 77.0377-30.5194 75.8065-31.6556 74.5752-32.7919 72.6042-33.36 69.8933-33.36L67.8133-33.36C63.1-33.36 58.5667-33.2267 54.2133-32.96L55.4958-42.5837 58.4771-42.7887C59.3346-42.8421 60.881-42.924 63.1165-43.0344 65.3519-43.1448 67.2108-43.2 68.6933-43.2L70.8533-43.2C76.5592-43.2 80.9056-41.8192 83.8927-39.0575 86.8798-36.2958 88.3733-32.6367 88.3733-28.08 88.3733-27.6417 88.3121-26.7517 88.1896-25.41L84.8383 2.88ZM57.7333-11.115C57.7333-9.69917 58.0938-8.65271 58.8146-7.97563 59.5354-7.29854 60.615-6.96 62.0533-6.96L75.2508-6.96 76.5333-16.645 64.0283-16.72C62.1783-16.7733 60.7371-16.4431 59.7046-15.7294 58.6721-15.0156 58.0342-13.71 57.7908-11.8125ZM123.271-32.96C119.491-33.0667 117.134-33.12 116.2-33.12 113.005-33.12 110.625-32.3744 109.061-30.8831 107.496-29.3919 106.512-26.8775 106.107-23.34L102.82 2.88 92.12 2.88 95.24-23.2787C96.0575-30.2071 98.18-35.2594 101.607-38.4356 105.035-41.6119 110.246-43.2 117.24-43.2 119.861-43.2 122.394-43.0917 124.84-42.875Z" transform="translate(53.4059 105)"/></g></g><text font-family="DingTalk JinBuTi,DingTalk JinBuTi_MSFontService,sans-serif" font-weight="700" font-size="80" transform="translate(626.961 449)">ear</text><g clip-path="url(#clip6)" filter="url(#fx2)" transform="translate(445 467)"><g><path d="M3.69702 0.3125C2.98901 0.3125 2.46667 0.0891113 2.13-0.357666 1.79333-0.804443 1.625-1.21261 1.625-1.58215 1.625-1.9517 1.69531-2.24654 1.83594-2.46667 1.97656-2.68681 2.10758-2.86515 2.229-3.00171 2.35042-3.13826 2.45492-3.27222 2.54248-3.40356 3.16569-4.49406 4.15125-5.78695 5.49915-7.28223 6.84705-8.77751 8.30037-10.1673 9.85913-11.4517 11.4179-12.736 12.5316-13.8834 13.2002-14.8938 13.8688-15.9042 14.2031-16.8563 14.2031-17.75 14.2031-18.5942 13.9334-19.2767 13.394-19.7972 12.8547-20.3178 11.9993-20.5781 10.8281-20.5781 8.50993-20.5781 6.972-19.5901 6.21436-17.614 5.93978-16.9443 5.40999-16.6094 4.625-16.6094 4.16911-16.6094 3.77388-16.8527 3.43933-17.3394 3.10478-17.826 2.9375-18.2389 2.9375-18.5781 2.9375-18.8973 3.10246-19.3309 3.43237-19.8788 3.76229-20.4267 4.25838-20.9822 4.92065-21.5452 6.50024-22.9421 8.39734-23.6406 10.6119-23.6406 12.8265-23.6406 14.5438-23.1024 15.7638-22.0259 16.9838-20.9494 17.5938-19.597 17.5938-17.9688 17.5938-16.396 17.1049-14.9166 16.1272-13.5306 15.1495-12.1447 13.8883-10.8158 12.3438-9.54395 9.15771-6.93978 6.91813-4.722 5.625-2.89062 6.24251-2.98438 7.6071-3.03125 9.71875-3.03125L14.6104-2.99854 16.791-3.03125C17.0423-3.03125 17.3197-2.77734 17.623-2.26953 17.9264-1.76172 18.0781-1.28125 18.0781-0.828125 18.0781-0.130208 17.7448 0.21875 17.0781 0.21875 16.8366 0.21875 16.3173 0.177083 15.5201 0.09375 14.723 0.0104167 12.2632-0.03125 8.14062-0.03125 6.46989-0.03125 4.98869 0.0833333 3.69702 0.3125ZM29.1354-2.25C30.0864-2.25 30.8725-2.63932 31.4936-3.41797 32.8694-5.06901 33.5573-7.9401 33.5573-12.0312 33.5573-16.0465 32.8066-18.6855 31.3053-19.9482 30.7896-20.389 30.2381-20.6094 29.651-20.6094 28.4696-20.6094 27.3383-19.7674 26.2571-18.0835 25.176-16.3996 24.6354-14.1478 24.6354-11.3281 24.6354-8.43245 24.9237-6.25114 25.5004-4.78418 26.1568-3.09473 27.3685-2.25 29.1354-2.25ZM34.9638-2.9436C33.6065-0.470785 31.6027 0.765625 28.9522 0.765625 26.3017 0.765625 24.3169-0.439128 22.9977-2.84863 21.8708-4.90039 21.3073-7.47689 21.3073-10.5781 21.3073-13.646 21.7305-16.3172 22.5768-18.5918 22.952-19.578 23.3483-20.3769 23.7657-20.9886 24.1831-21.6004 24.5978-21.9062 25.0098-21.9062 25.4218-21.9062 25.6532-21.8073 25.704-21.6094 26.7502-22.9635 28.0659-23.6406 29.651-23.6406 31.207-23.6406 32.5531-23.0837 33.6891-21.9697 35.82-19.9035 36.8854-16.4604 36.8854-11.6406 36.8854-8.27197 36.2449-5.37297 34.9638-2.9436ZM42.0304 0.3125C41.3223 0.3125 40.8 0.0891113 40.4633-0.357666 40.1267-0.804443 39.9583-1.21261 39.9583-1.58215 39.9583-1.9517 40.0286-2.24654 40.1693-2.46667 40.3099-2.68681 40.4409-2.86515 40.5623-3.00171 40.6838-3.13826 40.7882-3.27222 40.8758-3.40356 41.499-4.49406 42.4846-5.78695 43.8325-7.28223 45.1804-8.77751 46.6337-10.1673 48.1925-11.4517 49.7512-12.736 50.8649-13.8834 51.5335-14.8938 52.2021-15.9042 52.5365-16.8563 52.5365-17.75 52.5365-18.5942 52.2668-19.2767 51.7274-19.7972 51.188-20.3178 50.3327-20.5781 49.1615-20.5781 46.8433-20.5781 45.3053-19.5901 44.5477-17.614 44.2731-16.9443 43.7433-16.6094 42.9583-16.6094 42.5024-16.6094 42.1072-16.8527 41.7727-17.3394 41.4381-17.826 41.2708-18.2389 41.2708-18.5781 41.2708-18.8973 41.4358-19.3309 41.7657-19.8788 42.0956-20.4267 42.5917-20.9822 43.254-21.5452 44.8336-22.9421 46.7307-23.6406 48.9453-23.6406 51.1599-23.6406 52.8772-23.1024 54.0971-22.0259 55.3171-20.9494 55.9271-19.597 55.9271-17.9688 55.9271-16.396 55.4382-14.9166 54.4605-13.5306 53.4828-12.1447 52.2217-10.8158 50.6771-9.54395 47.4911-6.93978 45.2515-4.722 43.9583-2.89062 44.5758-2.98438 45.9404-3.03125 48.0521-3.03125L52.9437-2.99854 55.1244-3.03125C55.3756-3.03125 55.653-2.77734 55.9564-2.26953 56.2598-1.76172 56.4115-1.28125 56.4115-0.828125 56.4115-0.130208 56.0781 0.21875 55.4115 0.21875 55.1699 0.21875 54.6506 0.177083 53.8535 0.09375 53.0564 0.0104167 50.5965-0.03125 46.474-0.03125 44.8032-0.03125 43.322 0.0833333 42.0304 0.3125ZM66.9375 0.765625C65.1789 0.765625 63.7498 0.534993 62.6504 0.0737305 61.5509-0.387533 60.506-1.14103 59.5156-2.18677 59.3073-2.31486 59.2031-2.61719 59.2031-3.09375 59.2031-3.5179 59.3535-3.9755 59.6543-4.46655 59.9551-4.9576 60.2943-5.20312 60.6719-5.20312 60.9722-5.20312 61.2426-5.08284 61.4832-4.84229 62.1488-4.03304 62.8721-3.39868 63.6528-2.93921 64.4336-2.47974 65.4556-2.25 66.7188-2.25 67.9691-2.25 69.0098-2.48218 69.8408-2.94653 70.6719-3.41089 71.2786-4.02295 71.6609-4.78271 72.0432-5.54248 72.2344-6.36491 72.2344-7.25 72.2344-8.39014 71.8331-9.31319 71.0305-10.0192 70.2279-10.7251 69.1865-11.0781 67.9062-11.0781 67.1606-11.0781 66.3087-10.9792 65.3503-10.7812 64.8206-10.7812 64.411-11.0091 64.1216-11.4647 63.8322-11.9204 63.6875-12.3644 63.6875-12.7969 63.6875-13.4178 63.9565-13.7437 64.4944-13.7747 67.2252-14.0395 69.175-14.7479 70.3438-15.8999 70.9375-16.562 71.2344-17.2412 71.2344-17.9375 71.2344-19.7396 70.1562-20.6406 68-20.6406 66.1737-20.6406 64.5186-19.8339 63.0347-18.2205 62.7401-17.8235 62.3796-17.625 61.9531-17.625 61.7912-17.625 61.4851-17.7792 61.0348-18.0876 60.5845-18.3961 60.3594-18.828 60.3594-19.3834 60.3594-19.9388 60.5259-20.3446 60.8589-20.6006 62.7783-22.6273 65.1379-23.6406 67.9375-23.6406 69.8673-23.6406 71.4436-23.1566 72.6661-22.1885 73.8887-21.2204 74.5-19.944 74.5-18.3594 74.5-15.3102 73.4531-13.6436 71.3594-13.3594 71.3778-13.3594 71.8164-13.1045 72.6752-12.5947 73.534-12.085 74.2247-11.379 74.7473-10.4768 75.2699-9.57463 75.5312-8.45736 75.5312-7.125 75.5312-5.81901 75.2077-4.54887 74.5605-3.31458 73.9134-2.08028 72.9283-1.09167 71.6053-0.348755 70.2823 0.394165 68.7264 0.765625 66.9375 0.765625Z" fill="#A6CAEC" transform="translate(22.6476 45)"/></g></g><text fill="#A6CAEC" font-family="LXGW WenKai Screen R,LXGW WenKai Screen R_MSFontService,sans-serif" font-weight="700" font-size="32" transform="translate(466.227 511)">2023</text><g clip-path="url(#clip7)" filter="url(#fx3)" transform="translate(532 467)"><g><path d="M7.6875-9.9375 15.1406-10.2571C13.41-14.0149 12.2571-16.8354 11.6819-18.7188 10.2585-15.2497 8.92708-12.3226 7.6875-9.9375ZM20.5781 0.484375C19.8667 0.484375 19.4316 0.265788 19.2727-0.171387 18.8464-1.42855 18.4308-2.53735 18.0259-3.4978L16.2056-7.45312 6.41504-7.02441C4.71012-3.48438 3.71403-1.30387 3.42676-0.48291 3.18831 0.12028 2.54606 0.421875 1.5 0.421875 0.354167 0.421875-0.21875 0.046875-0.21875-0.703125-0.21875-0.936035-0.164469-1.12785-0.0559082-1.27856 0.052653-1.42928 0.151123-1.58264 0.239502-1.73865 0.327881-1.89465 0.496379-2.19076 0.744995-2.62695 0.993612-3.06315 1.30155-3.64095 1.66882-4.36035 2.03609-5.07975 2.54468-6.09505 3.19458-7.40625L3.48438-7.09375C3.0127-6.88542 2.63957-7.03752 2.36499-7.55005 2.09041-8.06258 1.95312-8.53027 1.95312-8.95312 1.95312-9.60938 2.24438-9.9375 2.8269-9.9375 3.23332-9.89583 3.76245-9.875 4.41431-9.875 8.02775-17.0817 9.88444-21.1696 9.98438-22.1387 10.0322-22.6291 10.1529-22.989 10.3464-23.2184 10.54-23.4478 10.888-23.5625 11.3906-23.5625 11.7788-23.5625 12.2332-23.4384 12.7539-23.1902 13.2746-22.942 13.591-22.5746 13.7031-22.0881L13.6094-21.4241C13.6094-21.2099 14.1633-19.7795 15.2712-17.1328 18.808-8.71745 21.1765-3.63151 22.3767-1.875 22.761-1.36507 22.9531-1.01611 22.9531-0.828125 22.9531-0.338867 22.6919 0.00219727 22.1696 0.195068 21.6472 0.387939 21.1167 0.484375 20.5781 0.484375ZM37.901 0.546875C37.4447 0.546875 36.9582 0.43925 36.4416 0.223999 35.925 0.00874838 35.6667-0.36377 35.6667-0.893555 35.7083-1.25814 35.7292-4.18945 35.7292-9.6875 35.7292-10.8752 35.588-11.7815 35.3056-12.4064 35.0232-13.0313 34.4613-13.3438 33.6198-13.3438 30.0099-13.3438 28.1749-10.7259 28.1147-5.49023L28.0573-3.58447C28.0573-2.60319 28.0885-1.47209 28.151-0.191162 28.151 0.300863 27.7969 0.546875 27.0885 0.546875 26.6322 0.546875 26.1457 0.43925 25.6291 0.223999 25.1125 0.00874838 24.8542-0.354004 24.8542-0.864258L24.9167-4C24.9167-9.29557 24.8854-13.0894 24.8229-15.3816 24.8229-15.9293 25.1823-16.2031 25.901-16.2031 26.3283-16.2031 26.8049-16.0967 27.3309-15.8838 27.8568-15.6709 28.1198-15.3138 28.1198-14.8125L28.1198-14.408C28.0781-13.8144 28.0573-13.4648 28.0573-13.3594 28.1554-14.0519 28.7904-14.7225 29.9621-15.371 31.1338-16.0195 32.3114-16.3438 33.4948-16.3438 35.6675-16.3438 37.1573-15.5817 37.9643-14.0576 38.568-13.0039 38.8698-11.5889 38.8698-9.8125 38.8698-5.59831 38.901-2.36198 38.9635-0.103516 38.9635 0.330078 38.6094 0.546875 37.901 0.546875ZM56.7344 0.546875C56.278 0.546875 55.7915 0.43925 55.2749 0.223999 54.7583 0.00874838 54.5-0.36377 54.5-0.893555 54.5417-1.25814 54.5625-4.18945 54.5625-9.6875 54.5625-10.8752 54.4213-11.7815 54.1389-12.4064 53.8565-13.0313 53.2946-13.3438 52.4531-13.3438 48.8433-13.3438 47.0082-10.7259 46.948-5.49023L46.8906-3.58447C46.8906-2.60319 46.9219-1.47209 46.9844-0.191162 46.9844 0.300863 46.6302 0.546875 45.9219 0.546875 45.4655 0.546875 44.979 0.43925 44.4624 0.223999 43.9458 0.00874838 43.6875-0.354004 43.6875-0.864258L43.75-4C43.75-9.29557 43.7188-13.0894 43.6562-15.3816 43.6562-15.9293 44.0156-16.2031 44.7344-16.2031 45.1616-16.2031 45.6382-16.0967 46.1642-15.8838 46.6901-15.6709 46.9531-15.3138 46.9531-14.8125L46.9531-14.408C46.9115-13.8144 46.8906-13.4648 46.8906-13.3594 46.9888-14.0519 47.6237-14.7225 48.7954-15.371 49.9671-16.0195 51.1447-16.3438 52.3281-16.3438 54.5008-16.3438 55.9906-15.5817 56.7976-14.0576 57.4013-13.0039 57.7031-11.5889 57.7031-9.8125 57.7031-5.59831 57.7344-2.36198 57.7969-0.103516 57.7969 0.330078 57.4427 0.546875 56.7344 0.546875ZM71.7954-0.558838C70.6345 0.324137 69.3547 0.765625 67.9559 0.765625 66.5571 0.765625 65.4652 0.445964 64.68-0.193359 63.2822-1.34896 62.5833-3.21159 62.5833-5.78125 62.5833-9.98307 62.5521-13.2145 62.4896-15.4756 62.4896-16.0335 62.849-16.3125 63.5677-16.3125 64.016-16.3125 64.5082-16.2034 65.0445-15.9851 65.5808-15.7668 65.849-15.4809 65.849-15.1272 65.8073-13.2514 65.7865-10.1777 65.7865-5.90625 65.7865-4.76481 65.9772-3.85445 66.3587-3.17517 66.7402-2.49589 67.263-2.15625 67.9271-2.15625 68.6654-2.15625 69.4246-2.47766 70.2049-3.12048 70.9852-3.76331 71.6912-4.72673 72.3231-6.01074 72.9549-7.29476 73.2708-9.04118 73.2708-11.25L73.2708-15.5156C73.2708-16.0677 73.6406-16.3438 74.3802-16.3438 74.8444-16.3438 75.3407-16.24 75.869-16.0325 76.3973-15.825 76.6615-15.4631 76.6615-14.947 76.4115-13.3848 76.2865-11.0796 76.2865-8.03125 76.2865-5.05127 76.6711-2.92863 77.4403-1.66333 77.5044-1.53524 77.5365-1.361 77.5365-1.14062 77.5365-0.859049 77.3459-0.496989 76.9648-0.0544434 76.5837 0.388102 76.1493 0.609375 75.6615 0.609375 74.8657 0.609375 74.3182 0.070109 74.019-1.00842 73.7198-2.08695 73.5814-2.72998 73.6038-2.9375 73.5591-2.2347 72.9563-1.44181 71.7954-0.558838ZM86.0104-2.15625C86.8392-2.15625 87.6731-2.47591 88.5121-3.11523 90.5839-4.61198 91.6198-7.2002 91.6198-10.8799L91.651-11.6875 91.6823-11.6875C91.3722-11.6875 91.1339-11.8043 90.9672-12.0378 90.4034-13.0126 89.5845-13.5 88.5104-13.5 87.4006-13.5 86.2819-12.7898 85.1546-11.3694 84.0272-9.94897 83.4635-8.18522 83.4635-6.07812 83.4635-3.46354 84.3125-2.15625 86.0104-2.15625ZM85.9167 0.765625C84.1924 0.765625 82.8186 0.185221 81.7953-0.975586 80.7721-2.13639 80.2604-3.77995 80.2604-5.90625 80.2604-8.68913 81.1185-11.1296 82.8348-13.2278 84.551-15.3259 86.495-16.375 88.6667-16.375 90.5544-16.375 91.5596-15.8802 91.6823-14.8906L91.6823-15.5156C91.6823-16.0677 92.0521-16.3438 92.7917-16.3438 93.2505-16.3438 93.7558-16.2403 94.3077-16.0333 94.8595-15.8264 95.1354-15.469 95.1354-14.9612 94.8646-13.045 94.7292-10.2402 94.7292-6.54688 94.7292-4.40511 95.0688-2.79264 95.7482-1.70947 95.8605-1.51693 95.9167-1.31689 95.9167-1.10938 95.9167-0.848633 95.7261-0.496989 95.345-0.0544434 94.9639 0.388102 94.519 0.609375 94.0104 0.609375 92.8434 0.609375 92.1482-0.640625 91.9247-3.14062 91.6265-2.0446 90.878-1.11955 89.679-0.365479 88.48 0.38859 87.2259 0.765625 85.9167 0.765625ZM103.104 0.859375C101.129 0.859375 100.118-0.329102 100.073-2.70605 100.073-13.6872 100.042-20.3187 99.9792-22.6006 99.9792-23.1585 100.349-23.4375 101.089-23.4375 101.537-23.4375 102.029-23.3284 102.565-23.1101 103.102-22.8918 103.37-22.6124 103.37-22.2717 103.328-20.3645 103.307-13.8781 103.307-2.8125 103.307-2.34408 103.309-2.10718 103.314-2.10181 103.318-2.09644 103.362-2.09375 103.445-2.09375 103.706-2.1071 104.076-2.35384 104.556-2.83398 104.909-3.17383 105.258-3.34375 105.604-3.34375 106.146-3.34375 106.417-3.00521 106.417-2.32812 106.417-1.87354 106.096-1.23763 105.456-0.42041 104.696 0.43278 103.912 0.859375 103.104 0.859375ZM126.755 0.765625C123.264 0.765625 120.439-0.452637 118.282-2.88916 118.087-3.09798 117.99-3.40951 117.99-3.82373 117.99-4.23796 118.169-4.6886 118.528-5.17566 118.888-5.66272 119.271-5.90625 119.677-5.90625 120.085-5.90625 120.378-5.75016 120.556-5.43799 121.864-3.31266 123.951-2.25 126.818-2.25 127.798-2.25 128.704-2.43286 129.534-2.79858 130.365-3.16431 131.031-3.64416 131.533-4.23816 132.035-4.83215 132.286-5.48714 132.286-6.20312 132.286-7.43734 131.954-8.40153 131.289-9.0957 130.624-9.78988 129.738-10.3101 128.63-10.6562L124.587-11.6406C122.906-12.0192 121.563-12.6334 120.559-13.4832 119.554-14.3329 119.052-15.5521 119.052-17.1406 119.052-18.2798 119.411-19.3479 120.129-20.3448 120.846-21.3418 121.819-22.1404 123.046-22.7405 124.273-23.3406 125.593-23.6406 127.005-23.6406 128.383-23.6406 129.614-23.452 130.697-23.0747 131.78-22.6974 132.681-22.2321 133.398-21.6786 134.115-21.1251 134.474-20.5291 134.474-19.8906 134.474-19.3249 134.337-18.8293 134.064-18.4038 133.791-17.9784 133.496-17.7656 133.18-17.7656 132.863-17.7656 132.6-17.8669 132.391-18.0693 132.181-18.2718 132.029-18.425 131.933-18.5288 131.253-19.3885 130.224-20.002 128.844-20.3691 128.254-20.5293 127.609-20.6094 126.911-20.6094 126.213-20.6094 125.488-20.4271 124.734-20.0626 123.98-19.6981 123.394-19.2545 122.976-18.7318 122.558-18.2091 122.349-17.6475 122.349-17.0469 122.349-15.887 123.451-15.0573 125.656-14.5576L128.708-13.6875C133.292-12.5615 135.583-10.1501 135.583-6.45312 135.583-5.11686 135.231-3.89644 134.525-2.79187 133.82-1.6873 132.815-0.818237 131.509-0.184692 130.204 0.448853 128.62 0.765625 126.755 0.765625ZM148.629-0.558838C147.468 0.324137 146.188 0.765625 144.789 0.765625 143.39 0.765625 142.299 0.445964 141.513-0.193359 140.116-1.34896 139.417-3.21159 139.417-5.78125 139.417-9.98307 139.385-13.2145 139.323-15.4756 139.323-16.0335 139.682-16.3125 140.401-16.3125 140.849-16.3125 141.342-16.2034 141.878-15.9851 142.414-15.7668 142.682-15.4809 142.682-15.1272 142.641-13.2514 142.62-10.1777 142.62-5.90625 142.62-4.76481 142.811-3.85445 143.192-3.17517 143.574-2.49589 144.096-2.15625 144.76-2.15625 145.499-2.15625 146.258-2.47766 147.038-3.12048 147.819-3.76331 148.525-4.72673 149.156-6.01074 149.788-7.29476 150.104-9.04118 150.104-11.25L150.104-15.5156C150.104-16.0677 150.474-16.3438 151.214-16.3438 151.678-16.3438 152.174-16.24 152.702-16.0325 153.231-15.825 153.495-15.4631 153.495-14.947 153.245-13.3848 153.12-11.0796 153.12-8.03125 153.12-5.05127 153.504-2.92863 154.274-1.66333 154.338-1.53524 154.37-1.361 154.37-1.14062 154.37-0.859049 154.179-0.496989 153.798-0.0544434 153.417 0.388102 152.983 0.609375 152.495 0.609375 151.699 0.609375 151.152 0.070109 150.852-1.00842 150.553-2.08695 150.415-2.72998 150.437-2.9375 150.392-2.2347 149.79-1.44181 148.629-0.558838ZM178.5 0.546875C178.044 0.546875 177.553 0.439575 177.026 0.224976 176.498 0.010376 176.234-0.354329 176.234-0.869141L176.359-3.68286 176.359-9.6875C176.359-12.1875 175.635-13.4375 174.188-13.4375 173.654-13.4375 173.086-13.2302 172.484-12.8157 171.881-12.4011 171.374-11.8431 170.962-11.1415 170.55-10.4399 170.344-9.68962 170.344-8.89062L170.344-3.58545 170.516-0.19458C170.516 0.299723 170.146 0.546875 169.406 0.546875 168.96 0.546875 168.479 0.43925 167.962 0.223999 167.446 0.00874838 167.188-0.355632 167.188-0.869141L167.312-3.68286 167.312-9.6875C167.312-12.1875 166.693-13.4375 165.453-13.4375 164.505-13.4375 163.676-13.0182 162.968-12.1797 162.015-11.0138 161.509-9.29443 161.448-7.02148L161.354-3.67505 161.516-0.180176C161.516 0.304525 161.151 0.546875 160.422 0.546875 159.966 0.546875 159.475 0.439575 158.947 0.224976 158.42 0.010376 158.156-0.352702 158.156-0.864258L158.219-3.67188C158.219-9.01953 158.188-12.933 158.125-15.4124 158.125-15.9604 158.484-16.2344 159.203-16.2344 159.647-16.2344 160.138-16.1279 160.677-15.915 161.215-15.7021 161.484-15.4069 161.484-15.0293L161.453-14.1875C161.262-14.5114 161.618-14.9569 162.521-15.5242 163.424-16.0914 164.467-16.375 165.651-16.375 166.835-16.375 167.779-16.0336 168.484-15.351 169.19-14.6683 169.551-14.1242 169.568-13.7188 169.752-14.3786 170.331-14.9862 171.304-15.5417 172.278-16.0972 173.322-16.375 174.438-16.375 175.559-16.375 176.514-16.0365 177.304-15.3594 178.768-14.1265 179.5-12.2775 179.5-9.8125 179.5-5.59831 179.531-2.36198 179.594-0.103516 179.594 0.330078 179.229 0.546875 178.5 0.546875ZM204.667 0.546875C204.211 0.546875 203.72 0.439575 203.192 0.224976 202.665 0.010376 202.401-0.354329 202.401-0.869141L202.526-3.68286 202.526-9.6875C202.526-12.1875 201.802-13.4375 200.354-13.4375 199.821-13.4375 199.253-13.2302 198.651-12.8157 198.048-12.4011 197.541-11.8431 197.129-11.1415 196.716-10.4399 196.51-9.68962 196.51-8.89062L196.51-3.58545 196.682-0.19458C196.682 0.299723 196.312 0.546875 195.573 0.546875 195.127 0.546875 194.646 0.43925 194.129 0.223999 193.612 0.00874838 193.354-0.355632 193.354-0.869141L193.479-3.68286 193.479-9.6875C193.479-12.1875 192.859-13.4375 191.62-13.4375 190.671-13.4375 189.843-13.0182 189.135-12.1797 188.182-11.0138 187.675-9.29443 187.615-7.02148L187.521-3.67505 187.682-0.180176C187.682 0.304525 187.318 0.546875 186.589 0.546875 186.133 0.546875 185.641 0.439575 185.114 0.224976 184.587 0.010376 184.323-0.352702 184.323-0.864258L184.385-3.67188C184.385-9.01953 184.354-12.933 184.292-15.4124 184.292-15.9604 184.651-16.2344 185.37-16.2344 185.813-16.2344 186.305-16.1279 186.843-15.915 187.382-15.7021 187.651-15.4069 187.651-15.0293L187.62-14.1875C187.428-14.5114 187.784-14.9569 188.687-15.5242 189.591-16.0914 190.634-16.375 191.818-16.375 193.001-16.375 193.946-16.0336 194.651-15.351 195.356-14.6683 195.717-14.1242 195.734-13.7188 195.919-14.3786 196.498-14.9862 197.471-15.5417 198.445-16.0972 199.489-16.375 200.604-16.375 201.725-16.375 202.681-16.0365 203.471-15.3594 204.935-14.1265 205.667-12.2775 205.667-9.8125 205.667-5.59831 205.698-2.36198 205.76-0.103516 205.76 0.330078 205.396 0.546875 204.667 0.546875ZM215.177-2.15625C216.006-2.15625 216.84-2.47591 217.679-3.11523 219.751-4.61198 220.786-7.2002 220.786-10.8799L220.818-11.6875 220.849-11.6875C220.539-11.6875 220.301-11.8043 220.134-12.0378 219.57-13.0126 218.751-13.5 217.677-13.5 216.567-13.5 215.449-12.7898 214.321-11.3694 213.194-9.94897 212.63-8.18522 212.63-6.07812 212.63-3.46354 213.479-2.15625 215.177-2.15625ZM215.083 0.765625C213.359 0.765625 211.985 0.185221 210.962-0.975586 209.939-2.13639 209.427-3.77995 209.427-5.90625 209.427-8.68913 210.285-11.1296 212.001-13.2278 213.718-15.3259 215.662-16.375 217.833-16.375 219.721-16.375 220.726-15.8802 220.849-14.8906L220.849-15.5156C220.849-16.0677 221.219-16.3438 221.958-16.3438 222.417-16.3438 222.922-16.2403 223.474-16.0333 224.026-15.8264 224.302-15.469 224.302-14.9612 224.031-13.045 223.896-10.2402 223.896-6.54688 223.896-4.40511 224.236-2.79264 224.915-1.70947 225.027-1.51693 225.083-1.31689 225.083-1.10938 225.083-0.848633 224.893-0.496989 224.512-0.0544434 224.131 0.388102 223.686 0.609375 223.177 0.609375 222.01 0.609375 221.315-0.640625 221.091-3.14062 220.793-2.0446 220.045-1.11955 218.846-0.365479 217.647 0.38859 216.393 0.765625 215.083 0.765625ZM231.349 0.515625C230.893 0.515625 230.402 0.408325 229.874 0.193726 229.347-0.020874 229.083-0.383952 229.083-0.895508L229.146-3.70312C229.146-9.26953 229.115-13.1937 229.052-15.4756 229.052-16.0335 229.411-16.3125 230.13-16.3125 230.578-16.3125 231.071-16.2034 231.607-15.9851 232.143-15.7668 232.411-15.4281 232.411-14.9688 232.411-14.5013 232.401-14.2878 232.38-14.3281 232.256-14.6071 232.577-15.0007 233.345-15.5088 234.211-16.0863 235.134-16.375 236.115-16.375 237.047-16.375 237.822-16.2555 238.439-16.0166 239.055-15.7777 239.58-15.4745 240.013-15.1072 240.445-14.7398 240.661-14.3291 240.661-13.875 240.661-13.4858 240.499-13.0396 240.173-12.5363 239.848-12.0329 239.49-11.7812 239.099-11.7812 238.678-11.7812 238.349-11.9737 238.112-12.3586 237.952-12.6541 237.684-12.8817 237.31-13.0415 236.935-13.2013 236.625-13.2812 236.38-13.2812 235.599-13.2812 234.871-13.0352 234.195-12.543 233.211-11.8294 232.615-10.5677 232.406-8.75781 232.326-8.03825 232.286-6.3195 232.286-3.60156L232.443-0.211426C232.443 0.273275 232.078 0.515625 231.349 0.515625ZM244.182 5.4375 243.87 5.4375C242.532 5.4375 241.457 5.10522 240.646 4.44067 240.431 4.20988 240.323 3.92053 240.323 3.57263 240.323 3.22473 240.467 2.80534 240.756 2.31445 241.044 1.82357 241.38 1.57812 241.764 1.57812 242.148 1.57812 242.475 1.71875 242.746 2 243.017 2.28125 243.366 2.42188 243.793 2.42188 244.22 2.42188 244.558 2.32345 244.807 2.12659 245.056 1.92973 245.321 1.53109 245.602 0.930664L246.917-1.78296C243.458-9.58244 241.581-13.7433 241.284-14.2656 241.029-14.7181 240.901-15.015 240.901-15.1562 240.901-15.8333 241.474-16.1719 242.62-16.1719 243.644-16.1719 244.274-15.8721 244.508-15.2725 244.743-14.6287 246.115-11.2306 248.625-5.07812L252.146-12.8953C252.517-13.6269 252.869-14.5706 253.202-15.7266 253.369-16.138 253.722-16.3438 254.26-16.3438 254.67-16.3438 255.116-16.1829 255.599-15.8611 256.082-15.5393 256.323-15.1794 256.323-14.7812 256.323-14.4714 256.251-14.1812 256.107-13.9106 255.963-13.6401 255.79-13.3223 255.589-12.9573 255.213-12.2074 252.749-7.1888 248.198 2.09863 247.732 3.34993 247.185 4.21924 246.556 4.70654 245.927 5.19385 245.136 5.4375 244.182 5.4375Z" fill="#B4E5A2" transform="translate(23.4809 45)"/></g></g><text fill="#B4E5A2" font-family="LXGW WenKai Screen R,LXGW WenKai Screen R_MSFontService,sans-serif" font-weight="700" font-size="32" transform="translate(554.06 511)">Annual Summary</text></g></svg>