<svg xmlns="http://www.w3.org/2000/svg" xmlns:xlink="http://www.w3.org/1999/xlink" width="1920" height="1080" viewBox="0 0 1920 1080"><defs><style>.a{clip-path:url(#c);}.b{fill:rgba(0,0,0,0.93);}.b,.c,.d{mix-blend-mode:soft-light;isolation:isolate;}.c{font-size:89px;}.c,.d{font-family:DingTalk-JinBuTi, DingTalk JinBuTi;}.d{font-size:57px;}.e{fill:url(#a);}</style><linearGradient id="a" x1="0.5" x2="0.5" y2="1" gradientUnits="objectBoundingBox"><stop offset="0" stop-color="#4776e6"/><stop offset="0.509" stop-color="#6a66e8"/><stop offset="1" stop-color="#8e54e9"/></linearGradient><clipPath id="c"><rect width="1920" height="1080"/></clipPath></defs><g id="b" class="a"><rect class="e" width="1920" height="1080"/><g transform="translate(0 -96)"><path class="b" d="M536.353,262.125H506.571a2.127,2.127,0,0,0-2.127,2.127V396.146a2.127,2.127,0,0,0,2.127,2.127h29.782a2.127,2.127,0,0,0,2.127-2.127V264.253A2.127,2.127,0,0,0,536.353,262.125Zm-408.444,0H98.127A2.127,2.127,0,0,0,96,264.253V396.146a2.127,2.127,0,0,0,2.127,2.127H127.91a2.127,2.127,0,0,0,2.127-2.127V264.253A2.127,2.127,0,0,0,127.91,262.125Zm338.242-71.531H334.259V138.848a31.91,31.91,0,1,0-34.037,0v51.747H168.329a21.273,21.273,0,0,0-21.273,21.273v280.8a21.273,21.273,0,0,0,21.273,21.273H466.152a21.273,21.273,0,0,0,21.273-21.273v-280.8a21.273,21.273,0,0,0-21.273-21.273Zm-219.8,148.22c-12.551,0-22.709-12.711-22.709-28.346s10.158-28.4,22.709-28.4S269,294.78,269,310.469,258.846,338.815,246.348,338.815ZM366.7,435.235a2.127,2.127,0,0,1-2.127,2.127H270.439a2.127,2.127,0,0,1-2.127-2.127V405.453a2.127,2.127,0,0,1,2.127-2.127h94.133a2.127,2.127,0,0,1,2.127,2.127Zm21.433-96.42c-12.5,0-22.656-12.711-22.656-28.346s10.158-28.4,22.656-28.4,22.709,12.711,22.709,28.4S400.684,338.815,388.133,338.815Z" transform="translate(643 229.054)"/><text class="c" transform="translate(585 858)"><tspan x="0" y="0">零成本实现 AI 摘要</tspan></text><text class="d" transform="translate(394 950)"><tspan x="0" y="0">Zero-cost implementation of AI Summary</tspan></text></g></g></svg>