<svg width="960" height="720" xmlns="http://www.w3.org/2000/svg" xmlns:xlink="http://www.w3.org/1999/xlink" overflow="hidden"><defs><filter id="fx0" x="-10%" y="-10%" width="120%" height="120%" filterUnits="userSpaceOnUse" primitiveUnits="userSpaceOnUse"><feComponentTransfer color-interpolation-filters="sRGB"><feFuncR type="discrete" tableValues="0 0"/><feFuncG type="discrete" tableValues="0 0"/><feFuncB type="discrete" tableValues="0 0"/><feFuncA type="linear" slope="0.431373" intercept="0"/></feComponentTransfer><feGaussianBlur stdDeviation="0.797106 0.797106"/></filter><filter id="fx1" x="-10%" y="-10%" width="120%" height="120%" filterUnits="userSpaceOnUse" primitiveUnits="userSpaceOnUse"><feComponentTransfer color-interpolation-filters="sRGB"><feFuncR type="discrete" tableValues="0 0"/><feFuncG type="discrete" tableValues="0 0"/><feFuncB type="discrete" tableValues="0 0"/><feFuncA type="linear" slope="0.431373" intercept="0"/></feComponentTransfer><feGaussianBlur stdDeviation="0.797106 0.797106"/></filter><filter id="fx2" x="-10%" y="-10%" width="120%" height="120%" filterUnits="userSpaceOnUse" primitiveUnits="userSpaceOnUse"><feComponentTransfer color-interpolation-filters="sRGB"><feFuncR type="discrete" tableValues="0 0"/><feFuncG type="discrete" tableValues="0 0"/><feFuncB type="discrete" tableValues="0 0"/><feFuncA type="linear" slope="0.431373" intercept="0"/></feComponentTransfer><feGaussianBlur stdDeviation="0.797106 0.797106"/></filter><filter id="fx3" x="-10%" y="-10%" width="120%" height="120%" filterUnits="userSpaceOnUse" primitiveUnits="userSpaceOnUse"><feComponentTransfer color-interpolation-filters="sRGB"><feFuncR type="discrete" tableValues="0 0"/><feFuncG type="discrete" tableValues="0 0"/><feFuncB type="discrete" tableValues="0 0"/><feFuncA type="linear" slope="0.431373" intercept="0"/></feComponentTransfer><feGaussianBlur stdDeviation="0.797106 0.797106"/></filter><filter id="fx4" x="-10%" y="-10%" width="120%" height="120%" filterUnits="userSpaceOnUse" primitiveUnits="userSpaceOnUse"><feComponentTransfer color-interpolation-filters="sRGB"><feFuncR type="discrete" tableValues="0 0"/><feFuncG type="discrete" tableValues="0 0"/><feFuncB type="discrete" tableValues="0 0"/><feFuncA type="linear" slope="0.431373" intercept="0"/></feComponentTransfer><feGaussianBlur stdDeviation="0.797106 0.797106"/></filter><filter id="fx5" x="-10%" y="-10%" width="120%" height="120%" filterUnits="userSpaceOnUse" primitiveUnits="userSpaceOnUse"><feComponentTransfer color-interpolation-filters="sRGB"><feFuncR type="discrete" tableValues="0 0"/><feFuncG type="discrete" tableValues="0 0"/><feFuncB type="discrete" tableValues="0 0"/><feFuncA type="linear" slope="0.431373" intercept="0"/></feComponentTransfer><feGaussianBlur stdDeviation="0.797106 0.797106"/></filter><filter id="fx6" x="-10%" y="-10%" width="120%" height="120%" filterUnits="userSpaceOnUse" primitiveUnits="userSpaceOnUse"><feComponentTransfer color-interpolation-filters="sRGB"><feFuncR type="discrete" tableValues="0 0"/><feFuncG type="discrete" tableValues="0 0"/><feFuncB type="discrete" tableValues="0 0"/><feFuncA type="linear" slope="0.431373" intercept="0"/></feComponentTransfer><feGaussianBlur stdDeviation="0.797106 0.797106"/></filter><clipPath id="clip7"><rect x="30" y="29" width="31" height="30"/></clipPath><clipPath id="clip8"><rect x="26" y="32" width="31" height="40"/></clipPath><clipPath id="clip9"><rect x="29" y="29" width="31" height="30"/></clipPath><clipPath id="clip10"><rect x="28" y="23" width="240" height="40"/></clipPath><clipPath id="clip11"><rect x="30" y="24" width="52" height="39"/></clipPath><clipPath id="clip12"><rect x="26" y="32" width="31" height="40"/></clipPath><clipPath id="clip13"><rect x="28" y="29" width="32" height="30"/></clipPath></defs><g><rect x="0" y="0" width="960" height="720"/><g clip-path="url(#clip7)" filter="url(#fx0)" transform="translate(241 319)"><g><path d="M27.606-20.554 9.933-13.76 25.886-6.966 25.284-1.892 3.44-11.223 4.085-16.34 28.208-25.628Z" fill="#1F4E79" transform="translate(29.5242 58)"/></g></g><text fill="#1F4E79" font-family="DingTalk JinBuTi,DingTalk JinBuTi_MSFontService,sans-serif" font-weight="400" font-size="43" transform="translate(268.833 375)">&lt;</text><g clip-path="url(#clip8)" filter="url(#fx1)" transform="translate(271 319)"><g><path d="M0.129 10.578 4.171-22.403 14.964-22.403C17.9453-22.403 20.1813-21.715 21.672-20.339 23.1627-18.963 23.908-16.9277 23.908-14.233 23.908-13.545 23.865-12.8283 23.779-12.083L23.392-8.815C22.5607-1.90633 18.748 1.548 11.954 1.548L6.192 1.548 5.074 10.578ZM12.513-3.053C15.953-3.053 17.9023-4.93067 18.361-8.686L18.791-12.212C18.8483-12.7853 18.877-13.1867 18.877-13.416 18.877-16.34 17.3863-17.802 14.405-17.802L8.557-17.802 6.751-3.053Z" fill="#767171" transform="translate(29.1909 58)"/></g></g><text fill="#767171" font-family="DingTalk JinBuTi,DingTalk JinBuTi_MSFontService,sans-serif" font-weight="400" font-size="43" transform="translate(298.5 375)">p</text><g clip-path="url(#clip9)" filter="url(#fx2)" transform="translate(296 319)"><g><path d="M2.967-6.966 20.597-13.76 4.601-20.554 5.246-25.628 27.09-16.34 26.488-11.223 2.322-1.892Z" fill="#1F4E79" transform="translate(29.6909 58)"/></g></g><text fill="#1F4E79" font-family="DingTalk JinBuTi,DingTalk JinBuTi_MSFontService,sans-serif" font-weight="400" font-size="43" transform="translate(324 375)">&gt;</text><g clip-path="url(#clip10)" filter="url(#fx3)" transform="translate(326 319)"><g><path d="M5.59-30.745 10.664-30.745 9.03-17.372 24.596-17.372 26.23-30.745 31.304-30.745 27.348 1.548 22.274 1.548 23.994-12.642 8.428-12.642 6.708 1.548 1.634 1.548ZM46.1093-22.575C49.062-22.575 51.2908-21.8798 52.7958-20.4895 54.3008-19.0992 55.0533-17.0423 55.0533-14.319 55.0533-13.6883 55.0103-13.0003 54.9243-12.255L54.4513-8.385 38.4123-8.385 38.4123-8.342C38.355-7.71133 38.3263-7.28133 38.3263-7.052 38.3263-5.59 38.7492-4.50783 39.5948-3.8055 40.4405-3.10317 41.8667-2.752 43.8733-2.752L45.9803-2.752C47.471-2.752 49.7357-2.881 52.7743-3.139L52.3013 1.333C49.7787 1.591 47.514 1.72 45.5073 1.72L43.4003 1.72C39.9317 1.72 37.3875 1.01767 35.7678-0.387 34.1482-1.79167 33.3383-3.85567 33.3383-6.579 33.3383-7.23833 33.3813-7.912 33.4673-8.6L33.8973-12.212C34.2987-15.652 35.431-18.2392 37.2943-19.9735 39.1577-21.7078 41.8093-22.575 45.2493-22.575ZM50.0223-12.556 50.0223-12.599C50.0797-13.2297 50.1083-13.6883 50.1083-13.975 50.1083-15.351 49.7428-16.3973 49.0118-17.114 48.2808-17.8307 47.127-18.189 45.5503-18.189L44.6903-18.189C41.3077-18.189 39.387-16.3113 38.9283-12.556ZM57.247 1.548 61.289-31.605 66.234-31.605 62.192 1.548ZM67.747 1.548 71.789-31.605 76.734-31.605 72.692 1.548ZM79.064-12.212C79.8953-19.1207 83.6937-22.575 90.459-22.575L92.523-22.575C98.457-22.575 101.424-19.8517 101.424-14.405 101.424-13.7457 101.381-13.029 101.295-12.255L100.865-8.643C100.034-1.73433 96.2353 1.72 89.47 1.72L87.406 1.72C81.472 1.72 78.505-1.00333 78.505-6.45 78.505-7.10933 78.548-7.826 78.634-8.6ZM90.029-2.881C93.469-2.881 95.4183-4.75867 95.877-8.514L96.35-12.384C96.4073-12.9573 96.436-13.3587 96.436-13.588 96.436-16.512 94.9453-17.974 91.964-17.974L89.9-17.974C86.46-17.974 84.5107-16.0963 84.052-12.341L83.579-8.471C83.5217-7.89767 83.493-7.49633 83.493-7.267 83.493-4.343 84.9837-2.881 87.965-2.881ZM121.068 1.548C120.351 1.548 119.756 1.32583 119.283 0.8815 118.81 0.437167 118.516-0.258 118.402-1.204L115.263-30.745 120.638-30.745 123.347-3.182 124.508-3.182 133.71-28.122 140.504-28.122 143.557-3.139 144.718-3.139 154.221-30.702 159.768-30.702 149.276-0.774C148.731 0.745333 147.771 1.53367 146.395 1.591L141.321 1.591C140.604 1.591 140.009 1.36883 139.536 0.9245 139.063 0.480167 138.769-0.215 138.655-1.161L136.419-21.543 129.023-0.817C128.449 0.759667 127.446 1.548 126.013 1.548ZM159.731-12.212C160.562-19.1207 164.36-22.575 171.126-22.575L173.19-22.575C179.124-22.575 182.091-19.8517 182.091-14.405 182.091-13.7457 182.048-13.029 181.962-12.255L181.532-8.643C180.7-1.73433 176.902 1.72 170.137 1.72L168.073 1.72C162.139 1.72 159.172-1.00333 159.172-6.45 159.172-7.10933 159.215-7.826 159.301-8.6ZM170.696-2.881C174.136-2.881 176.085-4.75867 176.544-8.514L177.017-12.384C177.074-12.9573 177.103-13.3587 177.103-13.588 177.103-16.512 175.612-17.974 172.631-17.974L170.567-17.974C167.127-17.974 165.177-16.0963 164.719-12.341L164.246-8.471C164.188-7.89767 164.16-7.49633 164.16-7.267 164.16-4.343 165.65-2.881 168.632-2.881ZM200.055-17.716C198.278-17.7733 197.131-17.802 196.615-17.802 194.78-17.802 193.404-17.3648 192.487-16.4905 191.57-15.6162 190.996-14.1757 190.767-12.169L189.047 1.548 184.102 1.548 185.779-12.04C186.209-15.6807 187.305-18.318 189.068-19.952 190.831-21.586 193.533-22.403 197.174-22.403 198.607-22.403 199.826-22.36 200.829-22.274ZM201.247 1.548 205.289-31.605 210.234-31.605 206.192 1.548ZM212.521-12.04C213.352-18.9487 217.05-22.403 223.615-22.403L229.248-22.403 230.366-31.605 235.311-31.605 231.269 1.548 220.906 1.548C214.972 1.548 212.005-1.17533 212.005-6.622 212.005-7.28133 212.048-7.998 212.134-8.772ZM226.883-3.053 228.689-17.888 223.056-17.888C219.817-17.888 217.968-15.9817 217.509-12.169L217.079-8.643C217.022-8.06967 216.993-7.654 216.993-7.396 216.993-4.50067 218.484-3.053 221.465-3.053Z" fill="#8497B0" transform="translate(29.3575 58)"/></g></g><text fill="#8497B0" font-family="DingTalk JinBuTi,DingTalk JinBuTi_MSFontService,sans-serif" font-weight="400" font-size="43" transform="translate(353.667 375)">Hello World</text><g clip-path="url(#clip11)" filter="url(#fx4)" transform="translate(561 319)"><g><path d="M27.606-20.554 9.933-13.76 25.886-6.966 25.284-1.892 3.44-11.223 4.085-16.34 28.208-25.628ZM29.0217 1.548 43.8137-30.745 48.5437-30.745 33.7517 1.548Z" fill="#1F4E79" transform="translate(29.8575 58)"/></g></g><text fill="#1F4E79" font-family="DingTalk JinBuTi,DingTalk JinBuTi_MSFontService,sans-serif" font-weight="400" font-size="43" transform="translate(589.167 375)">&lt;/</text><g clip-path="url(#clip12)" filter="url(#fx5)" transform="translate(608 319)"><g><path d="M0.129 10.578 4.171-22.403 14.964-22.403C17.9453-22.403 20.1813-21.715 21.672-20.339 23.1627-18.963 23.908-16.9277 23.908-14.233 23.908-13.545 23.865-12.8283 23.779-12.083L23.392-8.815C22.5607-1.90633 18.748 1.548 11.954 1.548L6.192 1.548 5.074 10.578ZM12.513-3.053C15.953-3.053 17.9023-4.93067 18.361-8.686L18.791-12.212C18.8483-12.7853 18.877-13.1867 18.877-13.416 18.877-16.34 17.3863-17.802 14.405-17.802L8.557-17.802 6.751-3.053Z" fill="#767171" transform="translate(29.6909 58)"/></g></g><text fill="#767171" font-family="DingTalk JinBuTi,DingTalk JinBuTi_MSFontService,sans-serif" font-weight="400" font-size="43" transform="translate(636 375)">p</text><g clip-path="url(#clip13)" filter="url(#fx6)" transform="translate(634 319)"><g><path d="M2.967-6.966 20.597-13.76 4.601-20.554 5.246-25.628 27.09-16.34 26.488-11.223 2.322-1.892Z" fill="#1F4E79" transform="translate(29.1909 58)"/></g></g><text fill="#1F4E79" font-family="DingTalk JinBuTi,DingTalk JinBuTi_MSFontService,sans-serif" font-weight="400" font-size="43" transform="translate(661.5 375)">&gt;</text></g></svg>