<svg width="1280" height="720" xmlns="http://www.w3.org/2000/svg" xmlns:xlink="http://www.w3.org/1999/xlink" overflow="hidden"><defs><filter id="fx0" x="-10%" y="-10%" width="120%" height="120%" filterUnits="userSpaceOnUse" primitiveUnits="userSpaceOnUse"><feComponentTransfer color-interpolation-filters="sRGB"><feFuncR type="discrete" tableValues="0 0"/><feFuncG type="discrete" tableValues="0 0"/><feFuncB type="discrete" tableValues="0 0"/><feFuncA type="linear" slope="0.431373" intercept="0"/></feComponentTransfer><feGaussianBlur stdDeviation="0.845968 0.845968"/></filter><filter id="fx1" x="-10%" y="-10%" width="120%" height="120%" filterUnits="userSpaceOnUse" primitiveUnits="userSpaceOnUse"><feComponentTransfer color-interpolation-filters="sRGB"><feFuncR type="discrete" tableValues="0 0"/><feFuncG type="discrete" tableValues="0 0"/><feFuncB type="discrete" tableValues="0 0"/><feFuncA type="linear" slope="0.431373" intercept="0"/></feComponentTransfer><feGaussianBlur stdDeviation="0.845968 0.845968"/></filter><filter id="fx2" x="-10%" y="-10%" width="120%" height="120%" filterUnits="userSpaceOnUse" primitiveUnits="userSpaceOnUse"><feComponentTransfer color-interpolation-filters="sRGB"><feFuncR type="discrete" tableValues="0 0"/><feFuncG type="discrete" tableValues="0 0"/><feFuncB type="discrete" tableValues="0 0"/><feFuncA type="linear" slope="0.431373" intercept="0"/></feComponentTransfer><feGaussianBlur stdDeviation="0.845968 0.845968"/></filter><filter id="fx3" x="-10%" y="-10%" width="120%" height="120%" filterUnits="userSpaceOnUse" primitiveUnits="userSpaceOnUse"><feComponentTransfer color-interpolation-filters="sRGB"><feFuncR type="discrete" tableValues="0 0"/><feFuncG type="discrete" tableValues="0 0"/><feFuncB type="discrete" tableValues="0 0"/><feFuncA type="linear" slope="0.431373" intercept="0"/></feComponentTransfer><feGaussianBlur stdDeviation="0.845968 0.845968"/></filter><filter id="fx4" x="-10%" y="-10%" width="120%" height="120%" filterUnits="userSpaceOnUse" primitiveUnits="userSpaceOnUse"><feComponentTransfer color-interpolation-filters="sRGB"><feFuncR type="discrete" tableValues="0 0"/><feFuncG type="discrete" tableValues="0 0"/><feFuncB type="discrete" tableValues="0 0"/><feFuncA type="linear" slope="0.431373" intercept="0"/></feComponentTransfer><feGaussianBlur stdDeviation="0.845968 0.845968"/></filter><filter id="fx5" x="-10%" y="-10%" width="120%" height="120%" filterUnits="userSpaceOnUse" primitiveUnits="userSpaceOnUse"><feComponentTransfer color-interpolation-filters="sRGB"><feFuncR type="discrete" tableValues="0 0"/><feFuncG type="discrete" tableValues="0 0"/><feFuncB type="discrete" tableValues="0 0"/><feFuncA type="linear" slope="0.431373" intercept="0"/></feComponentTransfer><feGaussianBlur stdDeviation="0.845968 0.845968"/></filter><clipPath id="clip6"><rect x="0" y="0" width="1280" height="720"/></clipPath><clipPath id="clip7"><rect x="32" y="23" width="146" height="48"/></clipPath><clipPath id="clip8"><rect x="30" y="25" width="182" height="42"/></clipPath><clipPath id="clip9"><rect x="31" y="24" width="42" height="25"/></clipPath><clipPath id="clip10"><rect x="33" y="22" width="49" height="49"/></clipPath><clipPath id="clip11"><rect x="30" y="25" width="203" height="42"/></clipPath><clipPath id="clip12"><rect x="34" y="22" width="145" height="49"/></clipPath></defs><g clip-path="url(#clip6)"><rect x="0" y="0" width="1280" height="720" fill="#FFFFFF"/><rect x="0" y="0" width="1280" height="720" fill="#FFFFFF"/><path d="M786.955 103C786.955 103 786.955 103 1259.55 103L1280 103 1280 720 410.908 720 410.561 718.72C405.44 694.398 408 666.237 418.242 645.755 418.242 645.755 418.242 645.755 705.019 149.083 720.382 123.481 757.937 103 786.955 103Z" fill="#7F7F7F" fill-rule="evenodd" fill-opacity="0.14902"/><path d="M60.9427 321.118C60.9427 321.118 60.9427 321.118 109.479 321.118 112.519 321.118 115.454 322.787 116.922 325.499 116.922 325.499 116.922 325.499 141.242 367.328 142.814 369.936 142.814 373.274 141.242 375.881 141.242 375.881 141.242 375.881 116.922 417.71 115.454 420.422 112.519 422.091 109.479 422.091 109.479 422.091 109.479 422.091 60.9427 422.091 57.7978 422.091 54.9674 420.422 53.395 417.71 53.395 417.71 53.395 417.71 29.1794 375.881 27.607 373.274 27.607 369.936 29.1794 367.328 29.1794 367.328 29.1794 367.328 53.395 325.499 54.9674 322.787 57.7978 321.118 60.9427 321.118ZM253.833 89.6407C253.833 89.6407 253.833 89.6407 278.79 89.6407L281.701 89.6407 284.48 94.4188C288.348 101.072 292.849 108.814 298.087 117.822 300.495 121.816 300.495 126.928 298.087 130.922 298.087 130.922 298.087 130.922 260.84 194.984 258.592 199.138 254.097 201.694 249.441 201.694 249.441 201.694 249.441 201.694 175.107 201.694 173.903 201.694 172.729 201.534 171.608 201.229L169.201 200.221 170.672 197.681C183.971 174.707 200.995 145.302 222.785 107.663 229.253 96.5062 240.896 89.6407 253.833 89.6407ZM170.705 38C170.705 38 170.705 38 254.553 38 259.805 38 264.876 40.8834 267.411 45.5686 267.411 45.5686 267.411 45.5686 289.947 84.3277L292.493 88.7062 290.49 88.7062 281.022 88.7062 276.909 81.6323C261.195 54.6063 261.195 54.6063 261.195 54.6063 258.947 50.4527 254.452 47.8966 249.796 47.8966 175.462 47.8966 175.462 47.8966 175.462 47.8966 170.646 47.8966 166.311 50.4527 163.903 54.6063 126.816 118.668 126.816 118.668 126.816 118.668 124.408 122.662 124.408 127.774 126.816 131.768 163.903 195.829 163.903 195.829 163.903 195.829 165.107 197.906 166.793 199.584 168.78 200.742L169.344 200.978 166.319 206.203 164.069 210.089 166.403 211.067C167.667 211.41 168.992 211.59 170.35 211.59 254.198 211.59 254.198 211.59 254.198 211.59 259.45 211.59 264.521 208.707 267.056 204.022 309.071 131.761 309.071 131.761 309.071 131.761 311.787 127.256 311.787 121.489 309.071 116.984 303.819 107.951 299.223 100.048 295.202 93.1322L293.172 89.6407 302.577 89.6407C331.824 89.6407 378.618 89.6407 453.489 89.6407 465.994 89.6407 478.068 96.5062 484.105 107.663 484.105 107.663 484.105 107.663 584.149 279.728 590.617 290.455 590.617 304.186 584.149 314.913 584.149 314.913 584.149 314.913 484.105 486.978 478.068 498.135 465.994 505 453.489 505 453.489 505 453.489 505 253.833 505 240.896 505 229.253 498.135 222.785 486.978 222.785 486.978 222.785 486.978 123.173 314.913 116.704 304.186 116.704 290.455 123.173 279.728 123.173 279.728 123.173 279.728 160.16 215.839L163.277 210.454 163.167 210.408C160.926 209.102 159.024 207.21 157.666 204.867 157.666 204.867 157.666 204.867 115.833 132.606 113.116 128.101 113.116 122.335 115.833 117.83 115.833 117.83 115.833 117.83 157.666 45.5686 160.383 40.8834 165.272 38 170.705 38Z" fill="#7F7F7F" fill-rule="evenodd" fill-opacity="0.14902"/><g><g><g><path d="M375.767 220.027 386.26 204.767C386.709 204.117 386.544 203.216 385.895 202.767L385.633 202.586C384.983 202.135 384.087 202.302 383.638 202.952L372.843 218.651C365.791 215.585 357.925 213.872 349.625 213.872 341.749 213.872 334.258 215.415 327.491 218.194L317.176 203.193C316.729 202.543 315.831 202.378 315.181 202.828L314.919 203.008C314.269 203.457 314.104 204.358 314.551 205.011L324.527 219.512C308.843 227.027 297.573 241.359 295.278 258.281L403.972 258.281C401.731 241.737 390.908 227.667 375.767 220.027ZM326.737 241.887C323.747 241.887 321.321 239.452 321.321 236.452 321.321 233.452 323.747 231.02 326.737 231.02 329.73 231.02 332.154 233.452 332.154 236.452 332.154 239.452 329.73 241.887 326.737 241.887ZM373.493 241.887C370.503 241.887 368.076 239.452 368.076 236.452 368.076 233.452 370.503 231.02 373.493 231.02 376.485 231.02 378.909 233.452 378.909 236.452 378.909 239.452 376.485 241.887 373.493 241.887Z" fill="#47D45A"/><path d="M287.716 280.057 287.716 324.568C287.716 332.199 282.856 338.443 276.911 338.443L274.51 338.443C268.568 338.443 263.704 332.199 263.704 324.568L263.704 280.057C263.704 272.427 268.568 266.186 274.51 266.186L276.911 266.186C282.856 266.186 287.716 272.427 287.716 280.057Z" fill="#47D45A"/><path d="M436.294 280.321 436.294 324.833C436.294 332.465 431.434 338.707 425.489 338.707L423.088 338.707C417.146 338.707 412.283 332.465 412.283 324.833L412.283 280.321C412.283 272.691 417.146 266.45 423.088 266.45L425.489 266.45C431.434 266.45 436.294 272.691 436.294 280.321Z" fill="#47D45A"/><path d="M404.802 265.503 404.802 353.33C404.802 359.427 399.83 364.414 393.75 364.414L384.636 364.414 384.636 389.795C384.636 397.425 379.772 403.666 373.83 403.666L371.429 403.666C365.487 403.666 360.623 397.425 360.623 389.795L360.623 364.414 340.317 364.414 340.317 389.503C340.317 397.133 335.457 403.377 329.512 403.377L327.11 403.377C321.169 403.377 316.305 397.133 316.305 389.503L316.305 364.414 306.368 364.414C300.289 364.414 295.316 359.427 295.316 353.33L295.316 265.503 404.802 265.503Z" fill="#47D45A"/></g></g></g><g><g><g><path d="M928.106 429.256 928.106 569.845 780.821 549.545 780.821 429.256 928.106 429.256ZM928.106 268.798 928.106 411.115 780.821 411.115 780.821 289.098ZM1140.18 429.256 1140.18 599 944.303 572.005 944.303 429.256 1140.18 429.256ZM1140.18 239.643 1140.18 411.115 944.303 411.115 944.303 266.638Z" fill="#4E95D9"/></g></g></g><g clip-path="url(#clip7)" filter="url(#fx0)" transform="translate(197 586)"><g><path d="M20.0625-35.9753C28.3865-36.3372 36.467-37.0495 44.304-38.112L43.671-32.979C40.734-32.5645 37.7917-32.2235 34.8442-31.956L34.32-27.84 45.696-27.84 45.159-22.848 33.78-22.848 33.312-19.536 38.256-19.536C39.9075-19.536 41.1364-19.0771 41.9426-18.1594 42.7489-17.2416 43.068-15.9238 42.9-14.2058L41.7495-4.752 17.136-4.752 18.288-14.8793C18.4915-16.5082 18.9891-17.6916 19.7809-18.4294 20.5726-19.1671 21.787-19.536 23.424-19.536L27.792-19.536 28.272-22.848 17.088-22.848 17.6648-27.84 28.7962-27.84 29.28-31.536C27.9725-31.409 25.6735-31.281 22.383-31.152L19.488-31.056ZM7.57275-37.92 17.04-33.6015 16.4325-27.936 6.816-32.3085ZM45.216-2.208 43.7467 3.024 22.8 3.024C20.222 3.024 17.843 2.4625 15.663 1.3395 14.0115 0.4805 12.6502-0.686 11.5793-2.16 10.7188 0.27 9.44575 2.27 7.76025 3.84L2.64 2.27625C4.2825 0.0997501 5.51838-1.84125 6.34763-3.54675 7.17688-5.25225 7.7295-7.20925 8.0055-9.41775L9.456-20.256 3.792-20.256 4.36725-25.488 11.952-25.488C14.16-25.488 15.264-24.4 15.264-22.224 15.264-21.815 15.2425-21.4818 15.1995-21.2243L13.4678-8.28675 13.344-7.71525C14.5895-6.01625 15.8837-4.7885 17.2267-4.032 19.4252-2.816 21.859-2.208 24.528-2.208ZM23.184-9.6 36.7185-9.6 37.392-14.688 23.892-14.688ZM57.168-33.3592C57.339-34.8302 57.8051-35.9101 58.5664-36.5989 59.3276-37.2876 60.4935-37.632 62.064-37.632L88.128-37.632C91.232-37.632 92.784-36.224 92.784-33.408 92.784-33.009 92.7615-32.6517 92.7165-32.3363L88.9725-1.23225C88.7405 0.22625 88.2366 1.31625 87.4609 2.03775 86.6851 2.75925 85.6275 3.12 84.288 3.12 83.305 3.12 82.2099 3.02338 81.0026 2.83013 79.7954 2.63687 78.6345 2.371 77.52 2.0325L78.0547-3.264C79.9912-2.8095 81.4815-2.519 82.5255-2.3925 82.6595-2.3655 82.831-2.352 83.04-2.352 83.132-2.352 83.2046-2.3975 83.2579-2.4885 83.3111-2.5795 83.3665-2.86975 83.424-3.35925L84.24-10.224 74.8215-10.224 73.2855 2.352 67.632 2.352 69.168-10.224 60.0202-10.224C59.5853-7.705 58.9924-5.30275 58.2416-3.01725 57.4909-0.73175 56.466 1.426 55.167 3.456L49.728 1.713C51.3125-1.1 52.4855-3.7595 53.247-6.2655 54.04-8.866 54.627-11.8333 55.008-15.1672ZM71.904-32.4 63.0105-32.4 62.16-26.352 71.088-26.352ZM86.013-26.352 86.784-32.4 77.556-32.4 76.752-26.352ZM70.512-21.264 61.524-21.264 60.72-15.36 69.7418-15.36ZM85.488-21.264 76.1663-21.264 75.408-15.36 84.7635-15.36ZM141.109-16.416 124.359-16.416 122.585-1.428C122.412 0.0895 121.954 1.21088 121.211 1.93613 120.467 2.66137 119.439 3.024 118.128 3.024 116.863 3.024 114.981 2.683 112.48 2.001 110.193 1.38 108.46 0.81625 107.28 0.30975L107.87-5.088 110.398-4.39575C112.134-3.84975 113.512-3.453 114.533-3.2055 115.115-3.0115 115.711-2.8665 116.32-2.7705 116.411-2.7475 116.534-2.736 116.688-2.736 116.734-2.736 116.766-2.74837 116.783-2.77312 116.801-2.79787 116.833-2.92625 116.88-3.15825L118.464-16.416 100.128-16.416 100.648-21.984 119.035-21.984 120.048-30.528 104.736-30.528 105.257-36 139.776-36 139.192-30.528 125.992-30.528 124.944-21.984 141.744-21.984Z" transform="translate(32.6323 64)"/></g></g><text font-family="DingTalk JinBuTi,DingTalk JinBuTi_MSFontService,sans-serif" font-weight="700" font-size="48" transform="translate(227.838 648)">适用于</text><g clip-path="url(#clip8)" filter="url(#fx1)" transform="translate(357 587)"><g><path d="M23.136-15.0855C20.447-20.9805 18.5783-25.568 17.5298-28.848 15.2192-23.201 13.056-18.465 11.04-14.64ZM20.256-33.1275 20.112-32.1353C20.112-31.7837 20.96-29.392 22.656-24.96 27.958-12.744 31.576-5.241 33.51-2.451 33.922-1.852 34.128-1.451 34.128-1.248 34.128-0.6365 33.7759-0.203625 33.0716 0.050625 32.3674 0.304875 31.589 0.432 30.7365 0.432 29.884 0.432 29.358 0.1325 29.1585-0.4665 28.554-2.2485 27.9357-3.85725 27.3038-5.29275L24.5063-11.472 9.3195-10.8 9.42075-10.8C8.95075-9.8015 8.481-8.833 8.0115-7.8945L6.5715-5.0145C5.9725-3.8165 5.388-2.41 4.818-0.795 4.552-0.041 3.6745 0.336 2.1855 0.336 0.6965 0.336-0.048-0.128-0.048-1.056-0.048-1.332 0.023375-1.56813 0.166125-1.76437 0.308875-1.96062 0.445625-2.18075 0.576375-2.42475 0.707125-2.66875 0.9765-3.12562 1.3845-3.79538 1.7925-4.46513 2.25525-5.3355 2.77275-6.4065 3.29025-7.4775 4.062-8.83 5.088-10.464L5.232-10.464C4.652-10.464 4.171-10.8174 3.789-11.5241 3.407-12.2309 3.216-12.9189 3.216-13.5881 3.216-14.2574 3.552-14.592 4.224-14.592L4.31175-14.592C4.88875-14.528 5.5155-14.496 6.192-14.496L6.7905-14.496C11.023-22.9605 13.7577-28.7788 14.9948-31.9508 15.1142-32.2197 15.2071-32.6604 15.2734-33.2726 15.3396-33.8849 15.4906-34.3325 15.7264-34.6155 15.9621-34.8985 16.3851-35.04 16.9954-35.04 17.6056-35.04 18.268-34.8708 18.9825-34.5322 19.697-34.1937 20.1215-33.7255 20.256-33.1275ZM57.9347-5.262 58.0787-0.165C58.0787 0.297 57.6994 0.528 56.9409 0.528 56.1824 0.528 55.4544 0.382625 54.7569 0.091875 54.0594-0.198875 53.7107-0.6455 53.7107-1.248L53.7107-1.34325C53.7427-1.59975 53.7587-2.016 53.7587-2.592L53.8067-6 53.8067-14.544C53.8067-16.3525 53.5778-17.7646 53.12-18.7804 52.6623-19.7961 51.7392-20.304 50.3507-20.304 47.9597-20.304 45.9523-19.4314 44.3285-17.6861 42.7048-15.9409 41.8617-12.7925 41.7992-8.241 41.7672-7.18 41.7377-6.3265 41.7107-5.6805L41.7107-4.752C41.7107-3.7055 41.7587-2.2205 41.8547-0.297 41.8547 0.253 41.4754 0.528 40.7169 0.528 39.9584 0.528 39.2304 0.382625 38.5329 0.091875 37.8354-0.198875 37.4867-0.66375 37.4867-1.30275L37.5827-6 37.5827-17.937 37.4387-23.061C37.4387-23.687 37.8152-24 38.5682-24 39.3212-24 40.0492-23.8535 40.7522-23.5605 41.4552-23.2675 41.8067-22.822 41.8067-22.224L41.8067-21.6195C41.7427-20.7205 41.7107-19.85 41.7107-19.008 42.1742-20.5895 43.2678-21.8489 44.9915-22.7861 46.7153-23.7234 48.4377-24.192 50.1587-24.192 53.3002-24.192 55.4762-23.0607 56.6867-20.7983 57.5187-19.3447 57.9347-17.324 57.9347-14.736ZM81.516-18.288C81.843-18.16 81.8463-18.096 81.5257-18.096 81.2052-18.096 80.898-18.2835 80.604-18.6585 79.6965-19.9155 78.2885-20.544 76.38-20.544 75.4805-20.544 74.5362-20.2369 73.5472-19.6226 72.5583-19.0084 71.6805-18.1645 70.914-17.091 69.246-14.7435 68.412-12.3368 68.412-9.87075 68.412-7.40475 68.7992-5.63112 69.5738-4.54988 70.3483-3.46863 71.241-2.928 72.252-2.928 74.403-2.928 76.4847-4.01875 78.4973-6.20025 80.5098-8.38175 81.516-10.891 81.516-13.728ZM85.74-33.4868 85.644-29.2297 85.644-9.36C85.644-7.9965 85.7827-6.6745 86.0602-5.394 86.3377-4.1135 86.726-3.16175 87.225-2.53875 87.323-2.34225 87.372-2.07912 87.372-1.74937 87.372-1.41962 87.105-0.949625 86.571-0.339375 86.037 0.270875 85.472 0.576 84.876 0.576 83.8735 0.576 83.0869-0.31475 82.5161-2.09625 81.9454-3.87775 81.66-5.067 81.66-5.664 80.8355-3.45 79.6047-1.8085 77.9678-0.7395 76.3307 0.3295 74.3952 0.864 72.1612 0.864 69.9272 0.864 68.0399-0.03325 66.4991-1.82775 64.9584-3.62225 64.188-6.149 64.188-9.408 64.188-13.2845 65.4431-16.7256 67.9534-19.7314 70.4636-22.7371 73.3525-24.24 76.62-24.24 77.913-24.24 79.06-23.9897 80.061-23.4893 81.062-22.9888 81.547-22.423 81.516-21.792L81.516-28.9215 81.324-34.0117C81.324-34.6332 81.7085-34.944 82.4775-34.944 83.2465-34.944 83.9825-34.7975 84.6855-34.5045 85.3885-34.2115 85.74-33.8722 85.74-33.4868ZM93.5827-1.35075 93.6787-5.568 93.6787-18.081 93.5347-23.205C93.5347-23.831 93.9188-24.144 94.687-24.144 95.4553-24.144 96.1993-23.9981 96.919-23.7064 97.6388-23.4146 97.9987-23.0386 97.9987-22.5784 97.9987-22.1181 97.9747-21.696 97.9267-21.312 97.8787-20.928 97.8547-20.624 97.8547-20.4 97.9247-21.326 98.5895-22.1975 99.8493-23.0145 101.109-23.8315 102.432-24.24 103.819-24.24 105.206-24.24 106.347-24.068 107.242-23.724 108.137-23.38 108.884-22.9536 109.483-22.4449 110.083-21.9361 110.383-21.4059 110.383-20.8541 110.383-20.3024 110.162-19.6807 109.72-18.9893 109.278-18.2977 108.801-17.952 108.288-17.952 107.774-17.952 107.367-18.2038 107.065-18.7073 106.808-19.1953 106.373-19.5674 105.761-19.8236 105.149-20.0799 104.641-20.208 104.239-20.208 102.997-20.208 101.841-19.822 100.772-19.05 99.2227-17.9175 98.2957-15.9647 97.9912-13.1918 97.8682-12.0817 97.8067-9.49425 97.8067-5.42925L98.0467-0.336C98.0467 0.208 97.6598 0.48 96.886 0.48 96.1123 0.48 95.3683 0.33525 94.654 0.04575 93.9398-0.24375 93.5827-0.70925 93.5827-1.35075ZM123.129-2.976C124.591-2.976 125.898-3.373 127.052-4.167 128.206-4.961 129.137-6.0655 129.844-7.4805 130.552-8.8955 130.905-10.6804 130.905-12.8351 130.905-14.9899 130.421-16.7974 129.453-18.2576 128.484-19.7179 126.915-20.448 124.744-20.448 122.574-20.448 120.69-19.4061 119.093-17.3224 117.496-15.2386 116.697-12.9424 116.697-10.4336 116.697-7.92488 117.254-6.05475 118.366-4.82325 119.479-3.59175 121.067-2.976 123.129-2.976ZM119.715-22.32C121.299-23.6 123.105-24.24 125.133-24.24 127.161-24.24 128.917-23.7512 130.4-22.7738 133.521-20.7267 135.081-17.2155 135.081-12.24 135.081-8.864 134.074-5.9255 132.06-3.4245 129.814-0.5655 126.927 0.864 123.399 0.864 119.871 0.864 117.176-0.15075 115.314-2.18025 113.452-4.20975 112.521-6.955 112.521-10.416 112.521-13.046 113.341-15.7878 114.981-18.6413 115.636-19.8187 116.311-20.7902 117.007-21.5557 117.702-22.3213 118.297-22.704 118.792-22.704 119.286-22.704 119.594-22.576 119.715-22.32ZM141.393-1.30275 141.489-5.52 141.489-18.129 141.345-23.2725C141.345-23.8535 141.728-24.144 142.493-24.144 143.258-24.144 144.01-23.9981 144.749-23.7064 145.488-23.4146 145.857-23.0907 145.857-22.7348L145.761-18.4778 145.761-5.262 145.902-0.435C145.904 0.175 145.53 0.48 144.778 0.48 144.027 0.48 143.275 0.33525 142.522 0.04575 141.77-0.24375 141.393-0.69325 141.393-1.30275ZM143.442-34.416C144.287-34.416 144.997-34.0452 145.572-33.3037 146.146-32.5622 146.433-31.8094 146.433-31.0451 146.433-30.2809 146.18-29.6356 145.673-29.1094 145.166-28.5831 144.503-28.32 143.682-28.32 142.861-28.32 142.162-28.6825 141.586-29.4075 141.009-30.1325 140.721-30.8774 140.721-31.6421 140.721-32.4069 140.963-33.0604 141.448-33.6026 141.932-34.1449 142.597-34.416 143.442-34.416ZM169.516-18.288C169.843-18.16 169.846-18.096 169.526-18.096 169.205-18.096 168.898-18.2835 168.604-18.6585 167.697-19.9155 166.289-20.544 164.38-20.544 163.48-20.544 162.536-20.2369 161.547-19.6226 160.558-19.0084 159.681-18.1645 158.914-17.091 157.246-14.7435 156.412-12.3368 156.412-9.87075 156.412-7.40475 156.799-5.63112 157.574-4.54988 158.348-3.46863 159.241-2.928 160.252-2.928 162.403-2.928 164.485-4.01875 166.497-6.20025 168.51-8.38175 169.516-10.891 169.516-13.728ZM173.74-33.4868 173.644-29.2297 173.644-9.36C173.644-7.9965 173.783-6.6745 174.06-5.394 174.338-4.1135 174.726-3.16175 175.225-2.53875 175.323-2.34225 175.372-2.07912 175.372-1.74937 175.372-1.41962 175.105-0.949625 174.571-0.339375 174.037 0.270875 173.472 0.576 172.876 0.576 171.874 0.576 171.087-0.31475 170.516-2.09625 169.945-3.87775 169.66-5.067 169.66-5.664 168.836-3.45 167.605-1.8085 165.968-0.7395 164.331 0.3295 162.395 0.864 160.161 0.864 157.927 0.864 156.04-0.03325 154.499-1.82775 152.958-3.62225 152.188-6.149 152.188-9.408 152.188-13.2845 153.443-16.7256 155.953-19.7314 158.464-22.7371 161.353-24.24 164.62-24.24 165.913-24.24 167.06-23.9897 168.061-23.4893 169.062-22.9888 169.547-22.423 169.516-21.792L169.516-28.9215 169.324-34.0117C169.324-34.6332 169.709-34.944 170.478-34.944 171.247-34.944 171.983-34.7975 172.686-34.5045 173.389-34.2115 173.74-33.8722 173.74-33.4868Z" fill="#47D45A" transform="translate(33.4656 63)"/></g></g><text fill="#47D45A" font-family="LXGW WenKai,LXGW WenKai_MSFontService,sans-serif" font-weight="700" font-size="48" transform="translate(388.671 648)">Android</text><g clip-path="url(#clip9)" filter="url(#fx2)" transform="translate(535 587)"><g><path d="M7.488-19.4468 7.536-22.128 7.536-32.88 5.451-32.739 3.43425-32.496 3.36-32.496C2.811-32.496 2.38575-32.7875 2.08425-33.3705 1.78275-33.9535 1.632-34.6015 1.632-35.3145 1.632-36.0275 2.016-36.384 2.784-36.384L2.85225-36.384C3.07675-36.352 3.326-36.336 3.6-36.336L5.334-36.336 13.5968-36.7583C13.8872-36.7872 14.1997-36.8256 14.5343-36.8734 14.8687-36.9211 15.224-36.966 15.6-37.008L15.744-37.008C16.2935-37.008 16.7109-36.7431 16.9961-36.2134 17.2814-35.6836 17.424-35.2125 17.424-34.8 17.424-33.712 16.9965-33.168 16.1415-33.168 15.9505-33.2 15.722-33.216 15.456-33.216L14.592-33.216C14.349-33.216 14.1252-33.2012 13.9207-33.1717L11.52-33.048 11.52-21.8873 11.616-18.7103C11.616-18.1408 11.136-17.856 10.176-17.856 8.384-17.856 7.488-18.3862 7.488-19.4468ZM34.992-35.0145 34.896-34.0545 34.896-33.7853C35.015-32.3848 35.1704-30.8372 35.3621-29.1427 35.5539-27.4482 35.755-25.5641 35.9655-23.4904 36.176-21.4166 36.3475-20.0157 36.48-19.2878L36.48-19.2C36.48-18.711 36.2182-18.3407 35.6948-18.0893 35.1712-17.8377 34.681-17.712 34.224-17.712 32.944-17.712 32.304-18.187 32.304-19.137 32.2415-21.3995 31.9575-25.2285 31.452-30.624 30.388-27.228 29.4932-24.517 28.7677-22.491L28.5473-21.831C28.5053-21.282 28.2384-20.8742 27.7466-20.6077 27.2549-20.3412 26.774-20.208 26.304-20.208 25.209-20.208 24.5233-20.6003 24.2467-21.3848 24.1623-21.9482 24.022-22.328 23.826-22.524 22.7795-25.1075 22.0833-27.4875 21.7372-29.664 21.2937-23.325 21.072-19.7722 21.072-19.0058 21.072-18.2393 20.384-17.856 19.008-17.856 17.632-17.856 16.944-18.32 16.944-19.248L16.944-19.4115C17.3635-21.897 17.8435-26.6845 18.384-33.774L18.384-33.954 18.336-34.833 18.336-35.0835C18.4285-35.546 18.7892-35.9584 19.4183-36.3206 20.0472-36.6829 20.6145-36.864 21.12-36.864 21.9905-36.864 22.619-36.337 23.0055-35.283 23.83-32.7105 24.927-29.3975 26.2965-25.344 26.6625-26.8545 27.2113-28.3841 27.9428-29.9329 28.6742-31.4816 29.2542-32.8699 29.6828-34.0976 30.1112-35.3254 30.4513-36.1174 30.7028-36.4736 30.9543-36.8299 31.3159-37.008 31.7876-37.008 32.2594-37.008 32.7244-36.9072 33.1826-36.7057 33.6409-36.5042 34.057-36.246 34.431-35.931 34.805-35.616 34.992-35.3105 34.992-35.0145Z" fill="#47D45A" transform="translate(32.6323 63)"/></g></g><path d="M7.488-19.4468 7.536-22.128 7.536-32.88 5.451-32.739 3.43425-32.496 3.36-32.496C2.811-32.496 2.38575-32.7875 2.08425-33.3705 1.78275-33.9535 1.632-34.6015 1.632-35.3145 1.632-36.0275 2.016-36.384 2.784-36.384L2.85225-36.384C3.07675-36.352 3.326-36.336 3.6-36.336L5.334-36.336 13.5968-36.7583C13.8872-36.7872 14.1997-36.8256 14.5343-36.8734 14.8687-36.9211 15.224-36.966 15.6-37.008L15.744-37.008C16.2935-37.008 16.7109-36.7431 16.9961-36.2134 17.2814-35.6836 17.424-35.2125 17.424-34.8 17.424-33.712 16.9965-33.168 16.1415-33.168 15.9505-33.2 15.722-33.216 15.456-33.216L14.592-33.216C14.349-33.216 14.1252-33.2012 13.9207-33.1717L11.52-33.048 11.52-21.8873 11.616-18.7103C11.616-18.1408 11.136-17.856 10.176-17.856 8.384-17.856 7.488-18.3862 7.488-19.4468ZM34.992-35.0145 34.896-34.0545 34.896-33.7853C35.015-32.3848 35.1704-30.8372 35.3621-29.1427 35.5539-27.4482 35.755-25.5641 35.9655-23.4904 36.176-21.4166 36.3475-20.0157 36.48-19.2878L36.48-19.2C36.48-18.711 36.2182-18.3407 35.6948-18.0893 35.1712-17.8377 34.681-17.712 34.224-17.712 32.944-17.712 32.304-18.187 32.304-19.137 32.2415-21.3995 31.9575-25.2285 31.452-30.624 30.388-27.228 29.4932-24.517 28.7677-22.491L28.5473-21.831C28.5053-21.282 28.2384-20.8742 27.7466-20.6077 27.2549-20.3412 26.774-20.208 26.304-20.208 25.209-20.208 24.5233-20.6003 24.2467-21.3848 24.1623-21.9482 24.022-22.328 23.826-22.524 22.7795-25.1075 22.0833-27.4875 21.7372-29.664 21.2937-23.325 21.072-19.7722 21.072-19.0058 21.072-18.2393 20.384-17.856 19.008-17.856 17.632-17.856 16.944-18.32 16.944-19.248L16.944-19.4115C17.3635-21.897 17.8435-26.6845 18.384-33.774L18.384-33.954 18.336-34.833 18.336-35.0835C18.4285-35.546 18.7892-35.9584 19.4183-36.3206 20.0472-36.6829 20.6145-36.864 21.12-36.864 21.9905-36.864 22.619-36.337 23.0055-35.283 23.83-32.7105 24.927-29.3975 26.2965-25.344 26.6625-26.8545 27.2113-28.3841 27.9428-29.9329 28.6742-31.4816 29.2542-32.8699 29.6828-34.0976 30.1112-35.3254 30.4513-36.1174 30.7028-36.4736 30.9543-36.8299 31.3159-37.008 31.7876-37.008 32.2594-37.008 32.7244-36.9072 33.1826-36.7057 33.6409-36.5042 34.057-36.246 34.431-35.931 34.805-35.616 34.992-35.3105 34.992-35.0145Z" fill="#47D45A" transform="translate(565.838 648)"/><text fill="#000000" fill-opacity="0" font-family="Arial,Arial_MSFontService,sans-serif" font-size="19.296" x="1.632" y="-20.124">™</text><g clip-path="url(#clip10)" filter="url(#fx3)" transform="translate(589 586)"><g><path d="M20.5403 0.96 3.36 0.96 6.7725-30.09C6.875-31.1485 7.2755-31.9901 7.974-32.6149 8.6725-33.2396 9.6145-33.552 10.8-33.552L11.9633-33.552 13.4513-38.688 18.864-38.688 17.376-33.552 19.872-33.552C22.688-33.552 23.9495-32.0305 23.6565-28.9875ZM34.992-38.592C34.526-36.9785 34.206-35.9115 34.032-35.391L33.024-33.168 39.504-33.168C41.315-33.168 42.6478-32.8316 43.5023-32.1589 44.3568-31.4861 44.784-30.3985 44.784-28.896 44.784-28.465 44.7633-28.1045 44.7218-27.8145 44.3388-23.2485 43.909-18.917 43.4325-14.82L43.2405-13.284C43.106-12.1395 42.8796-10.3184 42.5614-7.82063 42.2431-5.32288 41.9415-3.155 41.6565-1.317 41.415 0.234 40.9086 1.37725 40.1374 2.11275 39.3661 2.84825 38.291 3.216 36.912 3.216 36.414 3.216 36.0345 3.1975 35.7735 3.1605 33.2155 2.876 29.947 2.1975 25.968 1.125L26.6055-4.368C30.4055-3.496 33.3142-2.918 35.3317-2.634 35.4722-2.606 35.647-2.592 35.856-2.592 35.9465-2.592 36.0025-2.6115 36.024-2.6505 36.0455-2.6895 36.092-2.9415 36.1635-3.4065 36.669-6.566 37.1905-10.597 37.728-15.4995 38.115-18.9845 38.547-23.066 39.024-27.744L30.9848-27.744C30.1868-25.882 29.2692-23.914 28.2323-21.84L22.368-21.84C24.886-27.577 27.1882-33.161 29.2747-38.592ZM18.384-28.32 11.85-28.32 10.848-19.68 17.4172-19.68ZM31.5833-21.744 34.416-9.792 29.0392-9.792 26.304-21.744ZM10.362-14.64 9.168-4.272 15.786-4.272 16.944-14.64Z" transform="translate(33.4656 64)"/></g></g><text font-family="DingTalk JinBuTi,DingTalk JinBuTi_MSFontService,sans-serif" font-weight="700" font-size="48" transform="translate(620.671 648)">的</text><g clip-path="url(#clip11)" filter="url(#fx4)" transform="translate(654 587)"><g><path d="M0.432-33.552C0.432-34.352 1.20975-34.752 2.76525-34.752 4.32075-34.752 5.1865-34.3122 5.3625-33.4328L5.9895-31.0597C8.063-24.0292 10.0118-15.596 11.8357-5.76 12.6187-10.133 13.6494-14.4502 14.9276-18.7118 16.2059-22.9732 17.1421-26.1646 17.7364-28.2859 18.3306-30.4071 18.6585-31.8682 18.72-32.6693 18.72-33.5778 19.472-34.032 20.976-34.032 21.5995-34.032 22.254-33.9145 22.9395-33.6795 23.625-33.4445 23.9902-33.0822 24.0352-32.5928 24.1007-32.1667 24.2955-31.4215 24.6195-30.357 24.9435-29.2925 25.8085-26.0932 27.2145-20.7593 28.6205-15.4253 29.7262-10.4095 30.5317-5.712 32.8363-15.0915 34.564-21.665 35.715-25.4325 36.866-29.2 37.6978-32.125 38.2103-34.2075 38.3767-34.7625 38.7516-35.04 39.3349-35.04 39.9181-35.04 40.4757-34.945 41.0078-34.755 42.2772-34.232 42.912-33.575 42.912-32.784 42.912-32.628 42.801-32.291 42.579-31.773 41.026-28.128 38.0775-18.9267 33.7335-4.16925 33.5865-3.58175 33.4545-3.01737 33.3375-2.47613 33.2205-1.93488 33.084-1.398 32.928-0.8655 32.667 0.2875 32.1155 0.864 31.2735 0.864 30.4315 0.864 29.664 0.57225 28.971-0.01125 28.278-0.59475 27.8012-1.408 27.5408-2.451 25.0537-13.1735 23.049-21.6525 21.5265-27.888 20.736-24.542 19.6509-20.387 18.2711-15.423 16.8914-10.459 15.9879-7.2175 15.5606-5.6985 15.1334-4.1795 14.8545-3.13488 14.724-2.56463 14.5935-1.99437 14.388-1.28837 14.1075-0.446625 13.827 0.395125 13.3024 0.816 12.5336 0.816 11.7649 0.816 11.0526 0.5245 10.3969-0.0585 9.74113-0.6415 9.2675-1.63625 8.976-3.04275 4.9825-19.2317 2.16425-29.2528 0.52125-33.1058 0.46175-33.2222 0.432-33.371 0.432-33.552ZM46.8933-1.30275 46.9893-5.52 46.9893-18.129 46.8453-23.2725C46.8453-23.8535 47.2278-24.144 47.9928-24.144 48.7578-24.144 49.5098-23.9981 50.2488-23.7064 50.9878-23.4146 51.3573-23.0907 51.3573-22.7348L51.2613-18.4778 51.2613-5.262 51.4016-0.435C51.4041 0.175 51.0296 0.48 50.2781 0.48 49.5266 0.48 48.7746 0.33525 48.0221 0.04575 47.2696-0.24375 46.8933-0.69325 46.8933-1.30275ZM48.942-34.416C49.7872-34.416 50.4971-34.0452 51.0716-33.3037 51.6461-32.5622 51.9333-31.8094 51.9333-31.0451 51.9333-30.2809 51.68-29.6356 51.1732-29.1094 50.6665-28.5831 50.0026-28.32 49.1816-28.32 48.3606-28.32 47.662-28.6825 47.0857-29.4075 46.5095-30.1325 46.2213-30.8774 46.2213-31.6421 46.2213-32.4069 46.4635-33.0604 46.9477-33.6026 47.432-34.1449 48.0967-34.416 48.942-34.416ZM79.768-5.262 79.912-0.165C79.912 0.297 79.5328 0.528 78.7743 0.528 78.0158 0.528 77.2878 0.382625 76.5903 0.091875 75.8928-0.198875 75.544-0.6455 75.544-1.248L75.544-1.34325C75.576-1.59975 75.592-2.016 75.592-2.592L75.64-6 75.64-14.544C75.64-16.3525 75.4111-17.7646 74.9534-18.7804 74.4956-19.7961 73.5725-20.304 72.184-20.304 69.793-20.304 67.7856-19.4314 66.1619-17.6861 64.5381-15.9409 63.695-12.7925 63.6325-8.241 63.6005-7.18 63.571-6.3265 63.544-5.6805L63.544-4.752C63.544-3.7055 63.592-2.2205 63.688-0.297 63.688 0.253 63.3088 0.528 62.5503 0.528 61.7918 0.528 61.0638 0.382625 60.3663 0.091875 59.6688-0.198875 59.32-0.66375 59.32-1.30275L59.416-6 59.416-17.937 59.272-23.061C59.272-23.687 59.6485-24 60.4015-24 61.1545-24 61.8825-23.8535 62.5855-23.5605 63.2885-23.2675 63.64-22.822 63.64-22.224L63.64-21.6195C63.576-20.7205 63.544-19.85 63.544-19.008 64.0075-20.5895 65.1011-21.8489 66.8249-22.7861 68.5486-23.7234 70.271-24.192 71.992-24.192 75.1335-24.192 77.3095-23.0607 78.52-20.7983 79.352-19.3447 79.768-17.324 79.768-14.736ZM103.349-18.288C103.676-18.16 103.68-18.096 103.359-18.096 103.039-18.096 102.731-18.2835 102.437-18.6585 101.53-19.9155 100.122-20.544 98.2133-20.544 97.3138-20.544 96.3696-20.2369 95.3806-19.6226 94.3916-19.0084 93.5138-18.1645 92.7473-17.091 91.0793-14.7435 90.2453-12.3368 90.2453-9.87075 90.2453-7.40475 90.6326-5.63112 91.4071-4.54988 92.1816-3.46863 93.0743-2.928 94.0853-2.928 96.2363-2.928 98.3181-4.01875 100.331-6.20025 102.343-8.38175 103.349-10.891 103.349-13.728ZM107.573-33.4868 107.477-29.2297 107.477-9.36C107.477-7.9965 107.616-6.6745 107.894-5.394 108.171-4.1135 108.559-3.16175 109.058-2.53875 109.156-2.34225 109.205-2.07912 109.205-1.74937 109.205-1.41962 108.938-0.949625 108.404-0.339375 107.87 0.270875 107.305 0.576 106.709 0.576 105.707 0.576 104.92-0.31475 104.349-2.09625 103.779-3.87775 103.493-5.067 103.493-5.664 102.669-3.45 101.438-1.8085 99.8011-0.7395 98.1641 0.3295 96.2286 0.864 93.9946 0.864 91.7606 0.864 89.8732-0.03325 88.3325-1.82775 86.7917-3.62225 86.0213-6.149 86.0213-9.408 86.0213-13.2845 87.2765-16.7256 89.7867-19.7314 92.297-22.7371 95.1858-24.24 98.4533-24.24 99.7463-24.24 100.893-23.9897 101.894-23.4893 102.895-22.9888 103.38-22.423 103.349-21.792L103.349-28.9215 103.157-34.0117C103.157-34.6332 103.542-34.944 104.311-34.944 105.08-34.944 105.816-34.7975 106.519-34.5045 107.222-34.2115 107.573-33.8722 107.573-33.4868ZM124.296-2.976C125.757-2.976 127.065-3.373 128.219-4.167 129.373-4.961 130.303-6.0655 131.011-7.4805 131.718-8.8955 132.072-10.6804 132.072-12.8351 132.072-14.9899 131.588-16.7974 130.619-18.2576 129.651-19.7179 128.081-20.448 125.911-20.448 123.74-20.448 121.856-19.4061 120.259-17.3224 118.662-15.2386 117.864-12.9424 117.864-10.4336 117.864-7.92488 118.42-6.05475 119.533-4.82325 120.646-3.59175 122.233-2.976 124.296-2.976ZM120.882-22.32C122.465-23.6 124.271-24.24 126.3-24.24 128.328-24.24 130.083-23.7512 131.566-22.7738 134.688-20.7267 136.248-17.2155 136.248-12.24 136.248-8.864 135.241-5.9255 133.227-3.4245 130.98-0.5655 128.093 0.864 124.565 0.864 121.037 0.864 118.342-0.15075 116.481-2.18025 114.619-4.20975 113.688-6.955 113.688-10.416 113.688-13.046 114.508-15.7878 116.148-18.6413 116.802-19.8187 117.478-20.7902 118.173-21.5557 118.869-22.3213 119.464-22.704 119.958-22.704 120.453-22.704 120.76-22.576 120.882-22.32ZM139.2-22.656C139.2-23.456 139.92-23.856 141.36-23.856 141.888-23.856 142.447-23.7544 143.036-23.5511 143.625-23.3479 143.943-22.9872 143.99-22.4692 144.061-22.1102 144.127-21.715 144.189-21.2835 144.252-20.852 144.325-20.4815 144.41-20.172L148.137-4.992 152.807-19.53C152.954-19.9705 153.051-20.4292 153.098-20.9062 153.145-21.3832 153.2-21.7945 153.264-22.14 153.358-22.964 153.841-23.376 154.714-23.376 155.587-23.376 156.412-23.2432 157.189-22.9778 157.967-22.7122 158.385-22.3841 158.443-21.9934 158.502-21.6026 158.547-21.2375 158.58-20.898 158.612-20.5585 158.673-20.241 158.762-19.9455L162.887-4.992 167.576-20.2013C167.708-20.5742 167.838-21.0432 167.963-21.6082 168.089-22.1732 168.213-22.731 168.336-23.2815 168.501-23.8885 168.95-24.192 169.684-24.192 170.417-24.192 171.12-24.0437 171.792-23.7472 172.464-23.4507 172.8-23.039 172.8-22.512 172.8-22.3465 172.701-22.048 172.503-21.6165 172.305-21.185 171.956-20.3325 171.456-19.059L166.002-3.43875C165.879-3.07225 165.745-2.64012 165.601-2.14237 165.456-1.64462 165.305-1.1575 165.146-0.681 164.857 0.349 164.208 0.864 163.2 0.864 162.71 0.864 162.221 0.755125 161.731 0.537375 161.241 0.319625 160.855 0.059875 160.573-0.241875 160.291-0.543625 160.115-0.90525 160.045-1.32675 159.975-1.74825 159.888-2.126 159.785-2.46L155.81-17.616 151.362-3.43875C151.164-2.87475 151.008-2.372 150.893-1.9305 150.779-1.489 150.612-0.912875 150.394-0.202125 150.175 0.508625 149.579 0.864 148.604 0.864 147.629 0.864 146.829 0.5165 146.204-0.1785 145.881-0.501 145.685-0.818875 145.615-1.13213 145.545-1.44537 145.428-1.863 145.264-2.385L140.34-19.4228 139.907-20.5912C139.669-21.2652 139.492-21.7356 139.375-22.0024 139.258-22.2691 139.2-22.487 139.2-22.656ZM182.894-11.6235C179.065-12.5125 177.151-14.494 177.151-17.568 177.151-18.9135 177.588-20.0938 178.463-21.1087 180.248-23.1962 182.862-24.24 186.307-24.24 189.752-24.24 192.462-23.187 194.436-21.081 194.592-20.9265 194.671-20.6384 194.671-20.2166 194.671-19.7949 194.466-19.272 194.056-18.648 193.647-18.024 193.222-17.712 192.783-17.712 192.343-17.712 191.92-17.9753 191.515-18.5018 190.563-19.9592 188.863-20.688 186.415-20.688 184.669-20.688 183.368-20.3674 182.513-19.7261 181.658-19.0849 181.231-18.415 181.231-17.7165 181.231-17.018 181.411-16.4823 181.77-16.1093 182.13-15.7362 183.027-15.3748 184.461-15.0247L188.728-14.0025C190.896-13.502 192.62-12.6711 193.901-11.5099 195.182-10.3486 195.823-8.72 195.823-6.624 195.823-5.2385 195.42-3.98 194.614-2.8485 193.808-1.717 192.683-0.815375 191.239-0.143625 189.795 0.528125 188.101 0.864 186.157 0.864 184.212 0.864 182.601 0.631625 181.323 0.166875 180.045-0.297875 179.016-0.852 178.237-1.4955 177.458-2.139 176.891-2.746 176.534-3.3165 176.177-3.887 175.999-4.38275 175.999-4.80375 175.999-5.22475 176.271-5.74537 176.816-6.36562 177.361-6.98588 177.871-7.296 178.345-7.296 178.82-7.296 179.152-7.0745 179.342-6.6315 179.572-6.0565 179.932-5.44225 180.422-4.78875 181.358-3.48425 183.26-2.832 186.127-2.832 187.963-2.832 189.35-3.20712 190.288-3.95738 191.226-4.70762 191.695-5.57375 191.695-6.55575 191.695-7.53775 191.442-8.33813 190.935-8.95687 190.429-9.57562 189.349-10.0805 187.694-10.4715Z" fill="#4E95D9" transform="translate(33.299 63)"/></g></g><text fill="#4E95D9" font-family="LXGW WenKai,LXGW WenKai_MSFontService,sans-serif" font-weight="700" font-size="48" transform="translate(685.504 648)">Windows</text><g clip-path="url(#clip12)" filter="url(#fx5)" transform="translate(869 586)"><g><path d="M20.727 3.2085C17.661 2.563 14.864 1.68825 12.336 0.58425L13.1453-4.896C14.4113-4.4595 15.7115-4.0505 17.046-3.669 18.567-3.162 19.713-2.828 20.484-2.667 20.6345-2.617 20.7345-2.592 20.784-2.592 20.756-2.592 20.7525-2.60875 20.7735-2.64225 20.7945-2.67575 20.83-2.83025 20.88-3.10575L22.128-16.128 4.176-16.128 4.69725-21.6 22.5503-21.6 22.8172-24.3083 32.4-31.008 10.32-31.008 10.842-36.384 37.248-36.384C38.396-36.384 39.315-36.0764 40.005-35.4611 40.695-34.8459 41.04-34.0975 41.04-33.216 41.04-31.976 40.4355-30.8615 39.2265-29.8725L28.3883-21.3908 28.368-21.6 44.928-21.6 44.3438-16.128 27.8903-16.128 26.5328-0.6315C26.3937 0.655 25.9264 1.64187 25.1306 2.32912 24.3349 3.01638 23.334 3.36 22.128 3.36 21.6655 3.36 21.1985 3.3095 20.727 3.2085ZM84.5993-13.056C84.1657-12.992 83.805-12.96 83.517-12.96 80.881-12.706 78.4805-12.5212 76.3155-12.4058L75.012-0.858C74.875 0.545 74.4587 1.56675 73.7633 2.20725 73.0677 2.84775 72.064 3.168 70.752 3.168 70.232 3.168 69.808 3.1475 69.48 3.1065 67.1275 2.73 65.0075 2.2215 63.12 1.581L63.7635-3.504C64.814-3.312 65.8407-3.06525 66.8438-2.76375 67.6478-2.54675 68.3418-2.373 68.9258-2.2425 69.0382-2.2195 69.183-2.208 69.36-2.208 69.3635-2.208 69.3576-2.19537 69.3424-2.17013 69.3271-2.14488 69.333-2.25325 69.36-2.49525L70.608-12.048C68.8065-11.9205 66.8582-11.8245 64.7633-11.76L58.7272-11.568C57.6977-11.568 56.8845-11.8086 56.2875-12.2899 55.6905-12.7711 55.392-13.3785 55.392-14.112 55.392-14.616 55.5795-15.1024 55.9545-15.5711 56.3295-16.0399 56.8875-16.4495 57.6285-16.8 61.41-18.341 65.0485-19.845 68.544-21.312 64.7235-20.992 61.8915-20.832 60.048-20.832 59.1755-20.832 58.4774-21.0841 57.9536-21.5884 57.4299-22.0926 57.168-22.7045 57.168-23.424 57.168-24.4495 57.7465-25.2795 58.9035-25.914 61.736-27.4415 64.7415-29.1235 67.92-30.96 66.1315-30.769 63.1765-30.609 59.055-30.48L56.496-30.384 57.1215-35.4525C62.3605-35.62 67.929-35.9443 73.827-36.4253 79.5765-36.9017 85.4635-37.48 91.488-38.16L90.855-33.0233C86.9325-32.5158 82.0355-32.0082 76.164-31.5007 72.3845-28.7922 68.8845-26.804 65.664-25.536 69.862-25.722 73.3182-25.9865 76.0328-26.3295L77.2575-27.1005C79.4605-28.3935 81.4205-29.632 83.1375-30.816L87.648-27.675C84.4705-25.4075 80.7425-23.1532 76.464-20.9123 71.952-18.4502 68.4-16.9515 65.808-16.416 70.8445-16.602 76.3485-16.9917 82.32-17.5853L79.92-21.936 85.6305-21.936 91.488-11.04 85.7332-11.04ZM84.987-10.704 92.208 0.72 85.74 0.72 79.152-10.704ZM65.712-10.464 57.546 0.576 50.928 0.576 59.5672-10.464ZM117.12-28.992 117.749-34.032 126.912-34.032 125.712-38.736 131.309-38.736 132.701-34.032 142.464-34.032 141.876-28.992 129.866-28.992C127.535-25.2325 125.351-22.4165 123.312-20.544 126.735-20.697 130.207-20.99 133.728-21.423L131.568-27.12 136.749-27.12 141.504-14.832 136.085-14.832 135.383-16.704 133.917-16.464 132.288-2.646 132.288-2.4C132.288-2.272 132.352-2.208 132.48-2.208L134.784-2.208C136.648-2.208 138.744-2.736 141.072-3.792L140.508 1.65375C138.626 2.63125 136.574 3.12 134.352 3.12L130.944 3.12C128.128 3.12 126.72 1.776 126.72-0.912 126.72-1.1355 126.752-1.50325 126.816-2.01525L128.592-15.984 126.266-15.7297C125.566-11.6187 124.451-7.94413 122.921-4.70587 121.392-1.46763 119.375 1.381 116.871 3.84L111.408 2.1585C114.178-0.7885 116.319-3.62 117.829-6.336 119.128-8.8875 120.14-11.9115 120.864-15.408 121.143-15.376 121.159-15.36 120.912-15.36L120.462-15.36C119.519-15.296 118.707-15.4099 118.025-15.7016 117.343-15.9934 116.859-16.425 116.574-16.9965 116.426-17.2555 116.352-17.606 116.352-18.048 116.352-18.92 116.729-19.7845 117.484-20.6415 119.796-23.403 121.93-26.1865 123.888-28.992ZM115.298-11.307C113.007-10.873 111.143-10.528 109.707-10.272 107.757-9.958 105.7-9.686 103.533-9.456 102.088-9.328 101.132-9.75925 100.664-10.7498 100.531-11.1058 100.464-11.4265 100.464-11.712 100.464-12.4475 100.757-13.1637 101.344-13.8608 102.298-14.9677 103.927-17.0575 106.231-20.13 106.255-20.1775 106.508-20.3155 106.992-20.544 106.565-20.4505 105.22-20.292 102.955-20.0685 102.293-20.0015 101.71-20.0815 101.206-20.3085 100.702-20.5355 100.329-20.8713 100.088-21.3158 99.9227-21.6073 99.84-21.958 99.84-22.368 99.84-22.9615 100.032-23.562 100.416-24.1695 103.677-28.9165 106.664-33.756 109.379-38.688L115.296-38.688C113.247-34.717 110.511-30.381 107.088-25.68 107.822-25.6735 108.885-25.7865 110.279-26.019L111.409-27.792 112.373-29.424 118.032-29.424C114.386-23.091 111.09-18.371 108.144-15.264 109.726-15.5155 110.821-15.6892 111.429-15.7852 112.044-15.8827 113.509-16.157 115.824-16.608ZM114.93-3.24225C109.944-1.62525 104.626-0.2245 98.976 0.96L99.5378-4.4205C105.093-5.718 110.346-7.1565 115.296-8.736Z" transform="translate(32.799 64)"/></g></g><text font-family="DingTalk JinBuTi,DingTalk JinBuTi_MSFontService,sans-serif" font-weight="700" font-size="48" transform="translate(900.004 648)">子系统</text></g></svg>