<!DOCTYPE svg PUBLIC "-//W3C//DTD SVG 1.1//EN" "http://www.w3.org/Graphics/SVG/1.1/DTD/svg11.dtd"><svg viewBox="0 0 1024 1024" xmlns="http://www.w3.org/2000/svg" xmlns:xlink="http://www.w3.org/1999/xlink"><path d="M628.76 5.89Q671.27-5.3 714.9 4.77q49.22 12.3 90.6 43.62 14.55 10.07 22.38 27.97 5.59 12.31 3.91 26.29-1.68 13.98-8.39 26.29-15.66 21.25-40.27 25.72-21.25 2.24-38.03-7.83l-17.9-13.42q-12.3-7.83-26.85-13.42t-30.21-5.59q-10.07 1.12-19.57 6.16-9.5 5.03-17.34 12.86-14.54 15.66-10.07 35.8l21.25 79.42q36.92 2.23 73.84 12.3 36.91 10.07 69.36 30.2 63.76 39.16 110.74 98.44 38.03 50.34 55.93 110.75 19.02 65.99 14.54 134.23-4.47 57.05-23.49 109.62-24.61 64.88-68.24 118.58-43.63 53.7-102.92 90.62-42.5 27.96-90.6 44.18-48.1 16.22-98.44 21.81-69.36 10.07-139.83-1.68-70.47-11.75-134.23-45.31-63.76-33.56-114.66-84.45t-84.46-114.1q-33.56-63.2-48.1-132.56-20.13-102.91 2.24-204.71 14.54-62.64 44.75-119.13 30.21-56.49 73.82-103.47 72.71-77.18 171.15-116.34 10.07-4.47 20.14-6.71 24.61-3.35 43.62 10.07 13.43 8.95 19.58 23.49 6.15 14.54 3.92 30.2-2.24 15.66-11.75 27.97-9.51 12.31-25.17 17.91-49.22 19.01-91.17 50.34-41.95 31.32-73.27 73.82-27.96 36.92-45.86 79.99-17.9 43.06-24.05 89.49-6.15 46.43-0.56 92.29 5.59 45.86 22.37 88.37 23.49 63.76 68.24 114.65Q306.6 840.39 367 871.73q72.71 38.03 155.49 38.03 68.23-1.12 130.87-23.49 55.93-20.14 100.68-60.41 41.39-35.79 67.12-85.01 13.42-24.61 21.25-51.46 11.19-38.03 12.31-78.3 1.12-40.27-10.07-79.42-10.07-32.44-28.53-60.4-18.46-27.97-44.18-50.35-22.38-19.01-48.1-34.67-22.38-12.31-48.1-17.9l35.79 136.47 5.59 32.44q1.12 35.8-10.06 69.91-11.19 34.12-33.56 60.4-22.37 26.29-51.45 43.63-29.09 17.34-61.53 22.94-35.8 6.71-71.59 0.55-35.8-6.15-65.44-25.17-29.64-19.01-50.33-46.42-20.69-27.41-31.88-59.85-12.31-35.8-13.42-74.95-2.24-41.39 8.38-81.66 10.63-40.27 35.24-74.95 27.97-40.27 68.8-68.24 40.83-27.96 88.93-41.38l-14.55-52.57q-8.94-29.09-6.7-59.29 2.23-30.2 15.65-57.05 14.55-30.2 40.27-52.58 29.09-23.49 64.88-34.67zM478.87 419.78q-25.73 27.96-33.56 63.76-6.71 33.55 0 65.99 3.36 17.9 12.87 34.12 9.5 16.22 24.05 27.41 25.73 16.78 55.94 11.18 26.84-5.59 45.3-26.29 18.46-20.69 19.58-48.65-2.24-12.31-5.6-25.73L558.3 372.79q-45.86 13.43-79.42 46.99z" fill="currentColor"></path></svg>