<?xml version="1.0" standalone="no"?><!DOCTYPE svg PUBLIC "-//W3C//DTD SVG 1.1//EN" "http://www.w3.org/Graphics/SVG/1.1/DTD/svg11.dtd"><svg viewBox="0 0 1024 1024" version="1.1" xmlns="http://www.w3.org/2000/svg" p-id="6281" xmlns:xlink="http://www.w3.org/1999/xlink" width="200" height="200"><path d="M924 422.5h-56a4 4 0 0 0-4 4v248a4 4 0 0 0 4 4h56a4 4 0 0 0 4-4v-248a4 4 0 0 0-4-4z m-768 0h-56a4 4 0 0 0-4 4v248a4 4 0 0 0 4 4h56a4 4 0 0 0 4-4v-248a4 4 0 0 0-4-4zM792 288H544v-97.3a60 60 0 1 0-64 0V288H232a40 40 0 0 0-40 40v528a40 40 0 0 0 40 40h560a40 40 0 0 0 40-40V328a40 40 0 0 0-40-40zM378.7 566.7c-23.6 0-42.7-23.9-42.7-53.3s19.1-53.4 42.7-53.4 42.6 23.9 42.6 53.4-19.1 53.3-42.6 53.3zM605 748a4 4 0 0 1-4 4H424a4 4 0 0 1-4-4v-56a4 4 0 0 1 4-4h177a4 4 0 0 1 4 4z m40.3-181.3c-23.5 0-42.6-23.9-42.6-53.3s19.1-53.4 42.6-53.4 42.7 23.9 42.7 53.4-19.1 53.3-42.7 53.3z" fill="currentColor"></path></svg>