<svg width="1280" height="720" xmlns="http://www.w3.org/2000/svg" xmlns:xlink="http://www.w3.org/1999/xlink" overflow="hidden"><defs><filter id="fx0" x="-10%" y="-10%" width="120%" height="120%" filterUnits="userSpaceOnUse" primitiveUnits="userSpaceOnUse"><feComponentTransfer color-interpolation-filters="sRGB"><feFuncR type="discrete" tableValues="0 0"/><feFuncG type="discrete" tableValues="0 0"/><feFuncB type="discrete" tableValues="0 0"/><feFuncA type="linear" slope="0.431373" intercept="0"/></feComponentTransfer><feGaussianBlur stdDeviation="0.785787 0.785787"/></filter><filter id="fx1" x="-10%" y="-10%" width="120%" height="120%" filterUnits="userSpaceOnUse" primitiveUnits="userSpaceOnUse"><feComponentTransfer color-interpolation-filters="sRGB"><feFuncR type="discrete" tableValues="0 0"/><feFuncG type="discrete" tableValues="0 0"/><feFuncB type="discrete" tableValues="0 0"/><feFuncA type="linear" slope="0.431373" intercept="0"/></feComponentTransfer><feGaussianBlur stdDeviation="0.785787 0.785787"/></filter><filter id="fx2" x="-10%" y="-10%" width="120%" height="120%" filterUnits="userSpaceOnUse" primitiveUnits="userSpaceOnUse"><feComponentTransfer color-interpolation-filters="sRGB"><feFuncR type="discrete" tableValues="0 0"/><feFuncG type="discrete" tableValues="0 0"/><feFuncB type="discrete" tableValues="0 0"/><feFuncA type="linear" slope="0.431373" intercept="0"/></feComponentTransfer><feGaussianBlur stdDeviation="0.785787 0.785787"/></filter><filter id="fx3" x="-10%" y="-10%" width="120%" height="120%" filterUnits="userSpaceOnUse" primitiveUnits="userSpaceOnUse"><feComponentTransfer color-interpolation-filters="sRGB"><feFuncR type="discrete" tableValues="0 0"/><feFuncG type="discrete" tableValues="0 0"/><feFuncB type="discrete" tableValues="0 0"/><feFuncA type="linear" slope="0.4" intercept="0"/></feComponentTransfer><feGaussianBlur stdDeviation="1.77778 1.77778"/></filter><clipPath id="clip4"><rect x="27" y="24" width="196" height="38"/></clipPath><clipPath id="clip5"><rect x="27" y="24" width="131" height="38"/></clipPath><clipPath id="clip6"><rect x="27" y="24" width="133" height="38"/></clipPath><clipPath id="clip7"><rect x="570" y="249" width="140" height="118"/></clipPath><clipPath id="clip8"><rect x="570" y="249" width="140" height="118"/></clipPath><clipPath id="clip9"><rect x="570" y="249" width="140" height="118"/></clipPath></defs><g><rect x="0" y="0" width="1280" height="720" fill="#46B1E1"/><g><g><g><path d="M481.466 382.243 797.656 382.243 797.656 446.36 481.466 446.36Z" fill="#C0EAFF"/><path d="M797.656 448.116 484.101 448.116C478.831 448.116 475.317 444.603 475.317 439.333L475.317 384C475.317 378.73 478.831 375.217 484.101 375.217L797.656 375.217C802.926 375.217 806.439 378.73 806.439 384L806.439 439.333C806.439 443.725 802.926 448.116 797.656 448.116ZM492.884 430.55 788.873 430.55 788.873 392.783 492.884 392.783 492.884 430.55Z" fill="#1F87DD"/><path d="M797.656 392.783C794.143 392.783 791.508 391.026 789.751 388.392L757.254 325.153 524.503 325.153 510.45 352.381C507.815 356.772 502.545 358.529 499.032 355.894 494.64 353.259 492.884 347.989 495.519 344.476L512.206 312.857C513.963 310.222 516.598 308.466 520.111 308.466L763.402 308.466C766.915 308.466 769.55 310.222 771.307 312.857L806.439 381.365C809.074 385.757 807.318 391.026 802.926 392.783L797.656 392.783Z" fill="#1F87DD"/><path d="M582.471 320.762C577.201 320.762 573.688 317.249 573.688 311.979L573.688 164.423 560.513 164.423 560.513 311.101C560.513 316.37 557 319.884 551.73 319.884 546.46 319.884 542.947 316.37 542.947 311.101L542.947 155.64C542.947 150.37 546.46 146.857 551.73 146.857L582.471 146.857C587.741 146.857 591.254 150.37 591.254 155.64L591.254 311.101C591.254 316.37 587.741 320.762 582.471 320.762ZM732.661 320.762C727.392 320.762 723.878 317.249 723.878 311.979L723.878 164.423 710.704 164.423 710.704 311.101C710.704 316.37 707.19 319.884 701.921 319.884 696.651 319.884 693.138 316.37 693.138 311.101L693.138 155.64C693.138 150.37 696.651 146.857 701.921 146.857L732.661 146.857C737.931 146.857 741.444 150.37 741.444 155.64L741.444 311.101C741.444 316.37 737.053 320.762 732.661 320.762ZM762.524 418.254 714.217 418.254C708.947 418.254 705.434 414.741 705.434 409.471 705.434 404.201 708.947 400.688 714.217 400.688L762.524 400.688C767.794 400.688 771.307 404.201 771.307 409.471 771.307 414.741 766.915 418.254 762.524 418.254Z" fill="#1F87DD"/></g></g></g><g clip-path="url(#clip4)" filter="url(#fx0)" transform="translate(364 478)"><g><path d="M5.848-2.021C6.90867-2.07833 8.37067-2.451 10.234-3.139 11.2947-3.51167 12.298-4.18533 13.244-5.16 15.5947-7.59667 16.77-11.1513 16.77-15.824 16.77-18.834 16.3973-21.199 15.652-22.919 14.9067-24.639 13.9033-25.8502 12.642-26.5525 11.3807-27.2548 10.0333-27.606 8.6-27.606 7.396-27.606 6.47867-27.4627 5.848-27.176ZM5.547 0.602C3.97033 0.602 2.87383 0.544667 2.2575 0.43 1.64117 0.315333 1.25417 0.136167 1.0965-0.1075 0.938833-0.351167 0.86-0.544667 0.86-0.688 0.86-1.43333 1.376-1.806 2.408-1.806L2.408-26.875C2.20733-26.961 1.98517-27.2047 1.7415-27.606 1.49783-28.0073 1.376-28.3943 1.376-28.767 1.376-29.627 3.02433-30.272 6.321-30.702 7.20967-30.8167 8.09833-30.874 8.987-30.874 11.0223-30.874 12.8857-30.3437 14.577-29.283 16.2683-28.2223 17.63-26.5955 18.662-24.4025 19.694-22.2095 20.21-19.3357 20.21-15.781 20.21-12.6563 19.7728-10.0047 18.8985-7.826 18.0242-5.64733 16.8918-3.92733 15.5015-2.666 14.1112-1.40467 12.7853-0.587667 11.524-0.215 10.2627 0.157667 9.1805 0.379833 8.2775 0.4515 7.3745 0.523167 6.46433 0.573333 5.547 0.602ZM31.4813-2.107C33.832-2.107 35.638-3.45433 36.8993-6.149 37.4727-7.46767 37.7593-8.92967 37.7593-10.535 37.7593-12.8857 37.358-14.7275 36.5553-16.0605 35.7527-17.3935 34.563-18.06 32.9863-18.06 31.123-18.06 29.5463-17.0925 28.2563-15.1575 26.9663-13.2225 26.3213-11.1513 26.3213-8.944 26.3213-4.386 28.0413-2.107 31.4813-2.107ZM31.4813 1.032C28.758 1.032 26.651 0.129 25.1603-1.677 23.6697-3.483 22.9243-5.891 22.9243-8.901 22.9243-10.1623 23.1178-11.4237 23.5048-12.685 23.8918-13.9463 24.3505-15.1002 24.8808-16.1465 25.4112-17.1928 25.963-18.06 26.5363-18.748 27.1097-19.436 27.597-19.78 27.9983-19.78 28.457-19.78 28.715-19.737 28.7723-19.651 29.8903-20.6543 31.381-21.156 33.2443-21.156 36.369-21.156 38.6767-19.4933 40.1673-16.168 40.798-14.6487 41.1133-12.771 41.1133-10.535 41.1133-7.75433 40.325-5.16 38.7483-2.752 36.9423-0.229333 34.52 1.032 31.4813 1.032ZM52.8577 1.032C51.4243 1.032 50.1057 0.659333 48.9017-0.086 47.6977-0.831333 46.7373-1.9135 46.0207-3.3325 45.304-4.7515 44.9457-6.42133 44.9457-8.342 44.9457-11.696 46.0207-14.6917 48.1707-17.329 50.4353-19.8803 52.8147-21.156 55.3087-21.156 57.344-21.156 58.9207-20.554 60.0387-19.35 60.87-18.49 61.2857-17.7877 61.2857-17.243 61.2857-16.7557 61.0635-16.2612 60.6192-15.7595 60.1748-15.2578 59.7233-15.007 59.2647-15.007 58.892-15.007 58.6197-15.2077 58.4477-15.609 57.8743-17.2717 56.8567-18.103 55.3947-18.103 53.9613-18.103 52.442-17.1857 50.8367-15.351 49.2027-13.373 48.3857-11.1083 48.3857-8.557 48.3857-7.06633 48.6222-5.83367 49.0952-4.859 49.5682-3.88433 50.1558-3.1605 50.8582-2.6875 51.5605-2.2145 52.227-1.978 52.8577-1.978 55.409-1.978 57.9173-3.36833 60.3827-6.149 60.8413-6.665 61.2713-6.923 61.6727-6.923 62.1313-6.923 62.3607-6.665 62.3607-6.149 62.3607-5.977 62.1743-5.51117 61.8017-4.7515 61.429-3.99183 60.8628-3.17483 60.1032-2.3005 59.3435-1.42617 58.3688-0.652167 57.1792 0.0215 55.9895 0.695167 54.549 1.032 52.8577 1.032ZM81.501 0.86C81.0423 0.86 80.1393 0.129 78.792-1.333 77.7027-2.59433 76.3697-4.18533 74.793-6.106 73.2163-8.02667 71.9263-9.546 70.923-10.664L70.45-10.363C70.45-6.407 70.4643-4.31433 70.493-4.085 70.6077-2.68033 70.665-1.31867 70.665 0 70.665 0.458667 70.278 0.688 69.504 0.688 69.0167 0.688 68.4863 0.559 67.913 0.301 67.3397 0.043 67.053-0.315333 67.053-0.774L67.139-3.483C67.139-18.361 67.1318-26.101 67.1175-26.703 67.1032-27.305 67.0817-27.9285 67.053-28.5735 67.0243-29.2185 67.01-29.6843 67.01-29.971 67.0673-30.4297 67.4543-30.659 68.171-30.659 68.6583-30.659 69.1887-30.53 69.762-30.272 70.3353-30.014 70.622-29.6557 70.622-29.197 70.5073-26.445 70.45-21.4427 70.45-14.19L77.029-19.264C77.373-19.4933 77.6812-19.7513 77.9535-20.038 78.2258-20.3247 78.4408-20.5683 78.5985-20.769 78.7562-20.9697 79.05-21.07 79.48-21.07 79.8527-21.07 80.2468-20.9912 80.6625-20.8335 81.0782-20.6758 81.4437-20.4752 81.759-20.2315 82.0743-19.9878 82.232-19.7227 82.232-19.436 82.232-19.2067 81.587-18.6907 80.297-17.888 79.695-17.458 77.3873-15.6807 73.374-12.556 74.0047-11.868 74.8073-10.9435 75.782-9.7825 76.7567-8.6215 78.6917-6.39267 81.587-3.096 82.2177-2.494 82.9343-1.94933 83.737-1.462 83.9663-1.376 84.081-1.21833 84.081-0.989 84.081-0.759667 83.9448-0.501667 83.6725-0.215 83.4002 0.0716667 83.0705 0.3225 82.6835 0.5375 82.2965 0.7525 81.9023 0.86 81.501 0.86ZM91.7833-11.094C93.6467-11.094 95.2162-11.2158 96.4918-11.4595 97.7675-11.7032 98.8138-11.954 99.6308-12.212 100.448-12.47 100.978-12.7638 101.222-13.0935 101.465-13.4232 101.587-13.9463 101.587-14.663 101.587-16.985 100.426-18.146 98.1043-18.146 96.4417-18.146 94.9868-17.329 93.7398-15.695 92.4928-14.061 91.726-12.5273 91.4393-11.094ZM95.2233 1.032C93.79 1.032 92.5143 0.645 91.3963-0.129 90.2783-0.903 89.3968-1.99233 88.7518-3.397 88.1068-4.80167 87.7843-6.63633 87.7843-8.901 87.2397-9.35967 86.9673-9.847 86.9673-10.363 86.9673-10.9077 87.34-11.18 88.0853-11.18 88.458-13.2727 89.533-15.4227 91.3103-17.63 93.2883-19.9807 95.553-21.156 98.1043-21.156 99.8243-21.156 101.193-20.8335 102.211-20.1885 103.229-19.5435 103.938-18.7193 104.339-17.716 104.741-16.7127 104.941-15.6807 104.941-14.62 104.941-13.6453 104.87-12.857 104.726-12.255 104.325-10.6497 101.673-9.417 96.7713-8.557 95.1373-8.299 93.2453-8.17 91.0953-8.17 91.0953-6.22067 91.4967-4.7085 92.2993-3.6335 93.102-2.5585 94.0767-2.021 95.2233-2.021 98.3767-2.021 100.985-3.182 103.049-5.504 103.565-6.02 103.981-6.278 104.296-6.278 104.812-6.278 105.07-6.02 105.07-5.504 105.07-5.21733 104.87-4.73 104.468-4.042 103.694-2.494 102.089-1.08933 99.6523 0.172 98.391 0.745333 96.9147 1.032 95.2233 1.032ZM114.407-18.447C115.582-20.253 117.589-21.156 120.427-21.156 122.204-21.156 123.68-20.6543 124.856-19.651 125.372-19.1923 125.63-18.748 125.63-18.318 125.63-17.802 125.443-17.2573 125.071-16.684 124.698-16.1107 124.282-15.824 123.824-15.824 123.537-15.824 123.265-16.0103 123.007-16.383 122.72-16.8703 122.297-17.2358 121.738-17.4795 121.179-17.7232 120.699-17.845 120.298-17.845 119.151-17.845 118.09-17.4867 117.116-16.77 115.252-15.4227 114.321-12.7137 114.321-8.643 114.292-7.55367 114.278-6.192 114.278-4.558 114.278-3.66933 114.314-2.80933 114.385-1.978 114.457-1.14667 114.493-0.487333 114.493 0 114.493 0.458667 114.12 0.688 113.375 0.688 112.887 0.688 112.343 0.566167 111.741 0.3225 111.139 0.0788333 110.838-0.286667 110.838-0.774L110.924-3.483C110.924-11.997 110.909-16.5407 110.881-17.114 110.823-18.7193 110.795-19.8087 110.795-20.382 110.852-20.8407 111.225-21.07 111.913-21.07 112.4-21.07 112.945-20.9482 113.547-20.7045 114.149-20.4608 114.45-20.0953 114.45-19.608 114.45-19.0347 114.435-18.6477 114.407-18.447ZM159.481-2.107C161.832-2.107 163.638-3.45433 164.899-6.149 165.473-7.46767 165.759-8.92967 165.759-10.535 165.759-12.8857 165.358-14.7275 164.555-16.0605 163.753-17.3935 162.563-18.06 160.986-18.06 159.123-18.06 157.546-17.0925 156.256-15.1575 154.966-13.2225 154.321-11.1513 154.321-8.944 154.321-4.386 156.041-2.107 159.481-2.107ZM159.481 1.032C156.758 1.032 154.651 0.129 153.16-1.677 151.67-3.483 150.924-5.891 150.924-8.901 150.924-10.1623 151.118-11.4237 151.505-12.685 151.892-13.9463 152.35-15.1002 152.881-16.1465 153.411-17.1928 153.963-18.06 154.536-18.748 155.11-19.436 155.597-19.78 155.998-19.78 156.457-19.78 156.715-19.737 156.772-19.651 157.89-20.6543 159.381-21.156 161.244-21.156 164.369-21.156 166.677-19.4933 168.167-16.168 168.798-14.6487 169.113-12.771 169.113-10.535 169.113-7.75433 168.325-5.16 166.748-2.752 164.942-0.229333 162.52 1.032 159.481 1.032ZM188.684 0.731C188.196 0.731 187.673 0.602 187.114 0.344 186.555 0.086 186.276-0.272333 186.276-0.731 186.304-0.960333 186.319-1.3545 186.319-1.9135 186.319-2.4725 186.333-3.03867 186.362-3.612L186.362-12.599C186.362-14.2903 186.168-15.6018 185.781-16.5335 185.394-17.4652 184.656-17.931 183.567-17.931 181.675-17.931 180.098-17.1713 178.837-15.652 177.633-14.1327 176.959-12.1977 176.816-9.847 176.701-8.52833 176.644-6.37833 176.644-3.397 176.644-2.73767 176.672-1.57667 176.73 0.086 176.73 0.516 176.357 0.731 175.612 0.731 175.124 0.731 174.601 0.602 174.042 0.344 173.483 0.086 173.204-0.272333 173.204-0.731 173.204-1.505 173.232-2.52267 173.29-3.784L173.29-16.985C173.204-18.791 173.161-19.8803 173.161-20.253 173.161-20.7117 173.533-20.941 174.279-20.941 174.766-20.941 175.289-20.812 175.848-20.554 176.407-20.296 176.687-19.9377 176.687-19.479L176.644-17.673C176.988-18.275 177.848-18.9988 179.224-19.8445 180.6-20.6902 182.047-21.113 183.567-21.113 186.061-21.113 187.766-20.1527 188.684-18.232 189.343-16.8273 189.673-15.007 189.673-12.771 189.673-7.095 189.687-3.956 189.716-3.354 189.773-2.064 189.802-0.917333 189.802 0.086 189.802 0.516 189.429 0.731 188.684 0.731Z" fill="#163E64" transform="translate(29.8437 58)"/></g></g><text fill="#163E64" font-family="LXGW WenKai Mono,LXGW WenKai Mono_MSFontService,sans-serif" font-weight="700" font-size="43" transform="translate(392.177 534)">Docker on</text><g clip-path="url(#clip5)" filter="url(#fx1)" transform="translate(578 478)"><g><path d="M2.752 0.559C1.69133 0.559 1.161 0.243667 1.161-0.387 1.39033-2.537 1.56233-4.687 1.677-6.837 2.451-20.0237 2.838-27.1043 2.838-28.079 2.80933-28.3083 2.795-28.6093 2.795-28.982 2.90967-29.412 3.268-29.7703 3.87-30.057 4.472-30.3437 5.10267-30.487 5.762-30.487 6.16333-30.401 6.407-30.2863 6.493-30.143 6.63633-29.799 7.009-28.251 7.611-25.499L10.406-11.524C11.438-16.0247 12.8713-21.8297 14.706-28.939 14.8207-29.3117 14.9138-29.7202 14.9855-30.1645 15.0572-30.6088 15.3367-30.831 15.824-30.831 16.1107-30.831 16.4905-30.745 16.9635-30.573 17.4365-30.401 17.888-30.1788 18.318-29.9065 18.748-29.6342 18.963-29.3547 18.963-29.068 18.963-28.7813 18.9272-28.4947 18.8555-28.208 18.7838-27.9213 18.748-27.5487 18.748-27.09 19.006-23.7647 19.436-16.0677 20.038-3.999 20.124-2.93833 20.2673-1.849 20.468-0.731 20.468-0.301 20.2458 0.0143333 19.8015 0.215 19.3572 0.415667 18.8913 0.516 18.404 0.516 17.3147 0.516 16.77 0.186333 16.77-0.473 16.77-4.257 16.555-11.4093 16.125-21.93 14.9497-17.3433 14.018-13.6167 13.33-10.75 13.072-9.51733 12.8498-8.45667 12.6635-7.568 12.4772-6.67933 12.3697-6.0415 12.341-5.6545 12.3123-5.2675 12.0615-4.945 11.5885-4.687 11.1155-4.429 10.621-4.3 10.105-4.3 9.13033-4.3 8.61433-4.71567 8.557-5.547 8.299-7.095 7.25267-12.169 5.418-20.769 5.30333-18.1603 5.17433-14.534 5.031-9.89 4.859-5.70467 4.773-2.58 4.773-0.516 4.687 0.200667 4.01333 0.559 2.752 0.559ZM32.0833-25.112C31.4527-25.112 30.908-25.4273 30.4493-26.058 29.9907-26.6887 29.7613-27.3193 29.7613-27.95 29.7613-28.552 29.9548-29.0895 30.3418-29.5625 30.7288-30.0355 31.3093-30.272 32.0833-30.272 32.714-30.272 33.2587-29.9495 33.7173-29.3045 34.176-28.6595 34.4053-28.0073 34.4053-27.348 34.4053-26.7747 34.2047-26.2587 33.8033-25.8 33.402-25.3413 32.8287-25.112 32.0833-25.112ZM25.9343 0.516C25.361 0.516 24.931 0.215 24.6443-0.387 24.3577-0.989 24.2143-1.505 24.2143-1.935 24.2143-2.623 24.5153-2.967 25.1173-2.967L26.8373-2.924 30.3633-2.967C30.392-4.14233 30.4063-9.17333 30.4063-18.06 29.5463-17.9453 28.7867-17.888 28.1273-17.888 27.468-17.888 26.9663-17.8737 26.6223-17.845 26.0777-17.845 25.6692-18.1603 25.3968-18.791 25.1245-19.4217 24.9883-19.952 24.9883-20.382 24.9883-21.0413 25.275-21.371 25.8483-21.371 26.823-21.199 27.4393-21.113 27.6973-21.113 29.6467-21.113 31.1087-21.2563 32.0833-21.543 32.886-21.543 33.5023-21.0843 33.9323-20.167 34.133-19.823 34.2333-19.5363 34.2333-19.307 34.2333-19.0777 34.1903-18.8698 34.1043-18.6835 34.0183-18.4972 33.9753-18.232 33.9753-17.888 33.9753-9.66067 33.9897-4.70133 34.0183-3.01 36.5697-3.01 38.0317-3.02433 38.4043-3.053 38.949-3.053 39.3575-2.73767 39.6298-2.107 39.9022-1.47633 40.0383-0.946 40.0383-0.516 40.0383 0.143333 39.7517 0.473 39.1783 0.473 38.175 0.301 36.584 0.215 34.4053 0.215 30.6213 0.215 27.7977 0.315333 25.9343 0.516ZM57.8027-8.686C58.2613-14.5913 58.7773-19.9663 59.3507-24.811 59.6087-26.617 59.7377-28.251 59.7377-29.713 59.8237-30.315 60.2537-30.616 61.0277-30.616 61.5437-30.616 62.074-30.4655 62.6187-30.1645 63.1633-29.8635 63.4357-29.4263 63.4357-28.853 62.6617-25.413 61.5437-15.8813 60.0817-0.258 60.0243 0.544667 59.5227 0.946 58.5767 0.946 57.8887 0.946 57.215 0.673667 56.5557 0.129 55.8963-0.415667 55.4807-1.10367 55.3087-1.935 54.4487-11.3663 53.775-18.0027 53.2877-21.844L52.8147-16.942C51.84-7.08067 51.3383-1.53367 51.3097-0.301 51.2237 0.501667 50.722 0.903 49.8047 0.903 49.1167 0.903 48.4358 0.645 47.7622 0.129 47.0885-0.387 46.7087-1.075 46.6227-1.935 45.2467-18.8197 44.1717-28.0503 43.3977-29.627 43.3977-30.2577 43.8277-30.573 44.6877-30.573 45.2037-30.573 45.7555-30.4368 46.3432-30.1645 46.9308-29.8922 47.2677-29.5553 47.3537-29.154 47.3823-28.9247 47.3967-28.7025 47.3967-28.4875 47.3967-28.2725 47.411-28.0647 47.4397-27.864 47.4683-27.6633 47.4827-27.2907 47.4827-26.746 47.9413-22.36 48.4573-16.5407 49.0307-9.288 49.604-15.2507 50.1773-20.769 50.7507-25.843 50.894-26.8177 50.9657-27.5128 50.9657-27.9285 50.9657-28.3442 50.98-28.6953 51.0087-28.982 51.0373-29.2687 51.2452-29.4908 51.6322-29.6485 52.0192-29.8062 52.442-29.885 52.9007-29.885 53.474-29.885 54.0258-29.7775 54.5562-29.5625 55.0865-29.3475 55.3947-29.068 55.4807-28.724 55.4807-28.6093 55.495-28.5377 55.5237-28.509L55.6097-26.832C56.613-19.608 57.344-13.5593 57.8027-8.686ZM74.75-25.112C74.1193-25.112 73.5747-25.4273 73.116-26.058 72.6573-26.6887 72.428-27.3193 72.428-27.95 72.428-28.552 72.6215-29.0895 73.0085-29.5625 73.3955-30.0355 73.976-30.272 74.75-30.272 75.3807-30.272 75.9253-29.9495 76.384-29.3045 76.8427-28.6595 77.072-28.0073 77.072-27.348 77.072-26.7747 76.8713-26.2587 76.47-25.8 76.0687-25.3413 75.4953-25.112 74.75-25.112ZM68.601 0.516C68.0277 0.516 67.5977 0.215 67.311-0.387 67.0243-0.989 66.881-1.505 66.881-1.935 66.881-2.623 67.182-2.967 67.784-2.967L69.504-2.924 73.03-2.967C73.0587-4.14233 73.073-9.17333 73.073-18.06 72.213-17.9453 71.4533-17.888 70.794-17.888 70.1347-17.888 69.633-17.8737 69.289-17.845 68.7443-17.845 68.3358-18.1603 68.0635-18.791 67.7912-19.4217 67.655-19.952 67.655-20.382 67.655-21.0413 67.9417-21.371 68.515-21.371 69.4897-21.199 70.106-21.113 70.364-21.113 72.3133-21.113 73.7753-21.2563 74.75-21.543 75.5527-21.543 76.169-21.0843 76.599-20.167 76.7997-19.823 76.9-19.5363 76.9-19.307 76.9-19.0777 76.857-18.8698 76.771-18.6835 76.685-18.4972 76.642-18.232 76.642-17.888 76.642-9.66067 76.6563-4.70133 76.685-3.01 79.2363-3.01 80.6983-3.02433 81.071-3.053 81.6157-3.053 82.0242-2.73767 82.2965-2.107 82.5688-1.47633 82.705-0.946 82.705-0.516 82.705 0.143333 82.4183 0.473 81.845 0.473 80.8417 0.301 79.2507 0.215 77.072 0.215 73.288 0.215 70.4643 0.315333 68.601 0.516ZM88.3003-17.587C88.3003-24.467 88.286-28.0933 88.2573-28.466 88.2-28.8387 88.1713-29.1683 88.1713-29.455 88.1713-30.0283 88.458-30.315 89.0313-30.315 89.5187-30.315 90.2497-30.1287 91.2243-29.756 97.6457-30.186 101.143-30.444 101.716-30.53 102.462-30.6447 102.963-30.702 103.221-30.702 103.737-30.702 104.146-30.4153 104.447-29.842 104.748-29.2687 104.898-28.724 104.898-28.208 104.898-27.606 104.597-27.305 103.995-27.305L101.243-27.305C100.899-27.305 97.7317-27.1043 91.7403-26.703L91.7403-17.63C96.499-18.0027 99.0933-18.2177 99.5233-18.275 100.297-18.3897 100.799-18.447 101.028-18.447 101.544-18.447 101.953-18.1603 102.254-17.587 102.555-17.0137 102.705-16.469 102.705-15.953 102.705-15.351 102.404-15.05 101.802-15.05 99.6237-15.05 96.2697-14.8923 91.7403-14.577 91.7403-9.13033 91.769-4.28567 91.8263-0.043 91.8263 0.415667 91.4393 0.645 90.6653 0.645 90.178 0.645 89.6548 0.516 89.0958 0.258 88.5368 7.45058e-09 88.2573-0.358333 88.2573-0.817 88.286-2.59433 88.3003-7.224 88.3003-14.706 88.0423-14.878 87.8058-15.2005 87.5908-15.6735 87.3758-16.1465 87.2683-16.555 87.2683-16.899 87.297-17.3863 87.5837-17.63 88.1283-17.63 88.2143-17.6013 88.2717-17.587 88.3003-17.587ZM117.417-25.112C116.786-25.112 116.241-25.4273 115.783-26.058 115.324-26.6887 115.095-27.3193 115.095-27.95 115.095-28.552 115.288-29.0895 115.675-29.5625 116.062-30.0355 116.643-30.272 117.417-30.272 118.047-30.272 118.592-29.9495 119.051-29.3045 119.509-28.6595 119.739-28.0073 119.739-27.348 119.739-26.7747 119.538-26.2587 119.137-25.8 118.735-25.3413 118.162-25.112 117.417-25.112ZM111.268 0.516C110.694 0.516 110.264 0.215 109.978-0.387 109.691-0.989 109.548-1.505 109.548-1.935 109.548-2.623 109.849-2.967 110.451-2.967L112.171-2.924 115.697-2.967C115.725-4.14233 115.74-9.17333 115.74-18.06 114.88-17.9453 114.12-17.888 113.461-17.888 112.801-17.888 112.3-17.8737 111.956-17.845 111.411-17.845 111.003-18.1603 110.73-18.791 110.458-19.4217 110.322-19.952 110.322-20.382 110.322-21.0413 110.608-21.371 111.182-21.371 112.156-21.199 112.773-21.113 113.031-21.113 114.98-21.113 116.442-21.2563 117.417-21.543 118.219-21.543 118.836-21.0843 119.266-20.167 119.466-19.823 119.567-19.5363 119.567-19.307 119.567-19.0777 119.524-18.8698 119.438-18.6835 119.352-18.4972 119.309-18.232 119.309-17.888 119.309-9.66067 119.323-4.70133 119.352-3.01 121.903-3.01 123.365-3.02433 123.738-3.053 124.282-3.053 124.691-2.73767 124.963-2.107 125.236-1.47633 125.372-0.946 125.372-0.516 125.372 0.143333 125.085 0.473 124.512 0.473 123.508 0.301 121.917 0.215 119.739 0.215 115.955 0.215 113.131 0.315333 111.268 0.516Z" fill="#163E64" transform="translate(29.1771 58)"/></g></g><text fill="#163E64" font-family="LXGW WenKai Mono,LXGW WenKai Mono_MSFontService,sans-serif" font-weight="700" font-size="43" transform="translate(605.51 534)">MiWiFi</text><g clip-path="url(#clip6)" filter="url(#fx2)" transform="translate(727 478)"><g><path d="M7.654-12.384 13.803-12.728 10.965-24.424ZM18.576 0.602C17.9167 0.602 17.4293 0.372667 17.114-0.086 16.8847-1.08933 16.0247-4.35733 14.534-9.89L6.88-9.417C6.622-8.471 6.106-6.72233 5.332-4.171L4.386-0.387C4.15667 0.243667 3.49733 0.559 2.408 0.559 2.00667 0.559 1.6125 0.473 1.2255 0.301 0.8385 0.129 0.645-0.143333 0.645-0.516 0.645-0.659333 0.702333-0.845667 0.817-1.075 1.79167-3.25367 2.72333-5.91967 3.612-9.073 3.64067-9.073 3.655-9.08733 3.655-9.116L3.483-9.116C3.139-9.116 2.86667-9.27367 2.666-9.589 2.46533-9.90433 2.3005-10.2412 2.1715-10.5995 2.0425-10.9578 1.978-11.2947 1.978-11.61 1.978-12.212 2.25033-12.513 2.795-12.513L4.558-12.255C7.36733-22.0303 8.87233-27.735 9.073-29.369 9.159-29.8563 9.288-30.2218 9.46-30.4655 9.632-30.7092 9.96167-30.831 10.449-30.831 10.9363-30.831 11.481-30.6877 12.083-30.401 12.685-30.1143 13.0433-29.8133 13.158-29.498 13.2153-29.4407 13.244-29.3403 13.244-29.197 13.244-29.0537 13.2225-28.9032 13.1795-28.7455 13.1365-28.5878 13.115-28.4517 13.115-28.337 13.115-28.2223 13.3443-27.2477 13.803-25.413 17.2717-11.1083 19.565-3.03867 20.683-1.204 20.7977-1.06067 20.855-0.903 20.855-0.731 20.855-0.301 20.597 0.0286667 20.081 0.258 19.565 0.487333 19.0633 0.602 18.576 0.602ZM38.4473 0.688C37.874 0.688 37.4727 0.473 37.2433 0.043 36.7847-1.13233 35.0933-4.87333 32.1693-11.18 29.5607-5.762 28.1703-2.80933 27.9983-2.322 27.597-1.34733 27.253-0.559 26.9663 0.043 26.7943 0.473 26.3357 0.688 25.5903 0.688 25.0743 0.688 24.5225 0.551833 23.9348 0.2795 23.3472 0.00716667 23.0533-0.329667 23.0533-0.731 23.0533-0.874333 23.0963-1.01767 23.1823-1.161 24.3863-3.08167 25.189-4.44333 25.5903-5.246L30.3633-15.179C26.7513-23.0337 24.5583-27.563 23.7843-28.767 23.6983-28.939 23.6553-29.0823 23.6553-29.197 23.6553-29.5983 23.9492-29.9423 24.5368-30.229 25.1245-30.5157 25.662-30.659 26.1493-30.659 26.8087-30.659 27.1957-30.4727 27.3103-30.1 27.7117-29.068 29.36-25.413 32.2553-19.135 35.122-25.0977 36.799-28.6667 37.2863-29.842 37.401-30.186 37.7163-30.358 38.2323-30.358 38.7483-30.358 39.3002-30.1645 39.8878-29.7775 40.4755-29.3905 40.7693-28.9963 40.7693-28.595L40.6833-28.251C40.024-27.3337 39.422-26.273 38.8773-25.069L34.0613-15.136 38.6193-5.203C39.164-4.085 39.9667-2.73767 41.0273-1.161L41.1133-0.903C41.1133-0.501667 40.8123-0.136167 40.2103 0.1935 39.6083 0.523167 39.0207 0.688 38.4473 0.688ZM58.8777-24.123 58.8347-24.123C58.376-24.123 58.0463-24.3667 57.8457-24.854 57.6163-25.714 57.0143-26.5167 56.0397-27.262 55.5237-27.5487 54.8643-27.692 54.0617-27.692 52.227-27.692 50.6217-26.746 49.2457-24.854 47.8697-22.962 47.1817-21.0557 47.1817-19.135 47.1817-17.587 47.4683-16.383 48.0417-15.523 48.615-14.663 49.4463-14.233 50.5357-14.233 52.1697-14.233 53.4955-14.7275 54.5132-15.7165 55.5308-16.7055 56.527-18.103 57.5017-19.909 58.161-21.2277 58.591-22.489 58.7917-23.693 58.8203-23.865 58.849-24.0083 58.8777-24.123ZM56.1257 0.817C55.151 0.817 54.6637 0.415667 54.6637-0.387 54.6637-0.673667 54.6923-0.946 54.7497-1.204 56.2977-9.66067 57.0717-13.975 57.0717-14.147L56.9857-13.803C56.7563-13.5163 56.0038-12.9645 54.7282-12.1475 53.4525-11.3305 52.0693-10.922 50.5787-10.922 49.2887-10.922 48.1277-11.2517 47.0957-11.911 46.0637-12.5703 45.2467-13.5092 44.6447-14.7275 44.0427-15.9458 43.7417-17.372 43.7417-19.006 43.7417-21.9587 44.702-24.6677 46.6227-27.133 48.744-29.627 51.1663-30.874 53.8897-30.874 56.2403-30.874 57.9747-30.143 59.0927-28.681L59.6087-28.079C59.6373-28.165 59.666-28.38 59.6947-28.724 59.7807-29.326 60.1247-29.627 60.7267-29.627 61.4147-29.5697 62.0883-29.2257 62.7477-28.595 63.0343-28.3083 63.1777-27.9787 63.1777-27.606 62.6043-25.886 61.9665-23.048 61.2642-19.092 60.5618-15.136 59.9383-11.309 59.3937-7.611 58.849-3.913 58.505-1.49067 58.3617-0.344 58.247 0.372667 57.5017 0.759667 56.1257 0.817ZM69.633-7.912 78.362-25.757C77.6167-27.047 76.5273-27.692 75.094-27.692 73.89-27.692 72.643-26.6027 71.353-24.424 69.891-21.93 69.16-18.6477 69.16-14.577 69.16-11.3377 69.3177-9.116 69.633-7.912ZM74.664-2.193C75.954-2.193 77.029-2.76633 77.889-3.913 78.749-5.05967 79.3868-6.65067 79.8025-8.686 80.2182-10.7213 80.426-12.986 80.426-15.48 80.426-18.1173 80.2397-20.21 79.867-21.758L71.138-3.999C71.998-2.795 73.1733-2.193 74.664-2.193ZM74.75 1.032C72.5427 1.032 70.6793 0.229333 69.16-1.376 68.558-2.00667 68.042-2.76633 67.612-3.655 66.2647-6.493 65.591-10.1337 65.591-14.577 65.591-18.2463 66.0927-21.5287 67.096-24.424 68.042-27.2047 68.9737-28.595 69.891-28.595 70.3783-28.595 70.6507-28.5377 70.708-28.423 71.998-30.0857 73.5173-30.917 75.266-30.917 77.3873-30.917 79.1073-30.1287 80.426-28.552 82.7767-25.7427 83.952-21.2993 83.952-15.222 83.952-10.8647 83.2353-7.095 81.802-3.913 80.168-0.616333 77.8173 1.032 74.75 1.032ZM90.9663-7.912 99.6953-25.757C98.95-27.047 97.8607-27.692 96.4273-27.692 95.2233-27.692 93.9763-26.6027 92.6863-24.424 91.2243-21.93 90.4933-18.6477 90.4933-14.577 90.4933-11.3377 90.651-9.116 90.9663-7.912ZM95.9973-2.193C97.2873-2.193 98.3623-2.76633 99.2223-3.913 100.082-5.05967 100.72-6.65067 101.136-8.686 101.551-10.7213 101.759-12.986 101.759-15.48 101.759-18.1173 101.573-20.21 101.2-21.758L92.4713-3.999C93.3313-2.795 94.5067-2.193 95.9973-2.193ZM96.0833 1.032C93.876 1.032 92.0127 0.229333 90.4933-1.376 89.8913-2.00667 89.3753-2.76633 88.9453-3.655 87.598-6.493 86.9243-10.1337 86.9243-14.577 86.9243-18.2463 87.426-21.5287 88.4293-24.424 89.3753-27.2047 90.307-28.595 91.2243-28.595 91.7117-28.595 91.984-28.5377 92.0413-28.423 93.3313-30.0857 94.8507-30.917 96.5993-30.917 98.7207-30.917 100.441-30.1287 101.759-28.552 104.11-25.7427 105.285-21.2993 105.285-15.222 105.285-10.8647 104.569-7.095 103.135-3.913 101.501-0.616333 99.1507 1.032 96.0833 1.032ZM112.3-7.912 121.029-25.757C120.283-27.047 119.194-27.692 117.761-27.692 116.557-27.692 115.31-26.6027 114.02-24.424 112.558-21.93 111.827-18.6477 111.827-14.577 111.827-11.3377 111.984-9.116 112.3-7.912ZM117.331-2.193C118.621-2.193 119.696-2.76633 120.556-3.913 121.416-5.05967 122.054-6.65067 122.469-8.686 122.885-10.7213 123.093-12.986 123.093-15.48 123.093-18.1173 122.906-20.21 122.534-21.758L113.805-3.999C114.665-2.795 115.84-2.193 117.331-2.193ZM117.417 1.032C115.209 1.032 113.346 0.229333 111.827-1.376 111.225-2.00667 110.709-2.76633 110.279-3.655 108.931-6.493 108.258-10.1337 108.258-14.577 108.258-18.2463 108.759-21.5287 109.763-24.424 110.709-27.2047 111.64-28.595 112.558-28.595 113.045-28.595 113.317-28.5377 113.375-28.423 114.665-30.0857 116.184-30.917 117.933-30.917 120.054-30.917 121.774-30.1287 123.093-28.552 125.443-25.7427 126.619-21.2993 126.619-15.222 126.619-10.8647 125.902-7.095 124.469-3.913 122.835-0.616333 120.484 1.032 117.417 1.032Z" fill="#163E64" transform="translate(29.5104 58)"/></g></g><text fill="#163E64" font-family="LXGW WenKai Mono,LXGW WenKai Mono_MSFontService,sans-serif" font-weight="700" font-size="43" transform="translate(754.843 534)">AX9000</text><g filter="url(#fx3)" transform="translate(566 245)"><g><g><g><g><path d="M103.718 110.114C106.858 107.415 110.026 104.716 113.166 101.987 114.251 101.048 115.425 100.109 116.481 99.1117 115.631 98.0262 114.193 97.2634 112.99 96.7939 110.555 95.855 108.119 96.1777 105.889 97.4687 102.955 99.1705 101.694 101.87 101.811 105.244 101.84 106.564 102.222 107.855 102.926 108.97 103.131 109.381 103.425 109.762 103.718 110.114M107.356 112.667C108.912 113.195 110.672 113.137 112.256 112.843 113.078 112.491 115.132 111.581 115.895 111.728L116.012 111.758 116.129 111.816C116.598 112.051 117.039 112.374 117.273 112.843 117.831 113.958 117.567 115.073 116.481 115.689L116.129 115.895C112.11 118.213 107.826 117.889 103.806 115.718 101.899 114.692 100.432 113.137 99.3465 111.259L99.0825 110.819C96.5005 106.33 96.8526 101.635 99.7572 97.3807 100.755 95.9137 102.075 94.7694 103.63 93.8892L104.217 93.5665C108.002 91.366 112.08 91.5126 115.982 93.4491 118.066 94.476 119.768 96.031 120.94 98.0555L121.146 98.4076C121.997 99.8746 120.882 101.166 119.768 102.046 118.447 103.073 117.127 104.276 115.865 105.391 112.99 107.797 110.173 110.261 107.356 112.667ZM137.518 92.3049 137.929 92.3049C139.191 92.3049 140.041 93.1556 140.041 94.4174 140.041 96.1777 138.369 96.6179 136.902 96.6179 134.996 96.6179 133.176 97.7621 131.856 99.0531 130.213 100.667 129.508 102.75 129.508 105.009L129.508 115.279C129.508 116.452 128.775 117.391 127.542 117.391L127.22 117.391C125.987 117.391 125.254 116.452 125.254 115.279L125.254 104.422C125.254 100.256 127.278 96.8526 130.682 94.4466 132.736 93.0676 135.054 92.3049 137.518 92.3049ZM84.6176 99.6106C86.2607 97.9675 87.9331 96.3245 89.6055 94.6814 90.075 94.2412 91.8354 92.3049 92.5395 92.3049L93.3024 92.3049 93.3904 92.3341C94.3586 92.5395 95.0921 93.1556 95.0921 94.1826L95.0921 94.5934C95.0921 95.2975 94.2706 96.1191 93.8011 96.6179 92.833 97.6447 91.806 98.6424 90.8085 99.6692L85.6739 104.863C87.8744 107.063 90.075 109.293 92.2755 111.523 92.8916 112.139 93.4785 112.755 94.0946 113.371 94.3 113.606 94.6227 113.87 94.7987 114.163 94.9747 114.457 95.0921 114.779 95.0921 115.132L95.0921 115.572 95.0628 115.66C94.8281 116.628 94.212 117.42 93.1264 117.42L92.7742 117.42C92.0701 117.42 91.2779 116.628 90.8085 116.159 89.8109 115.22 88.872 114.251 87.8744 113.283L84.6176 110.085 84.6176 115.19C84.6176 116.364 83.8841 117.303 82.6519 117.303L82.3291 117.303C81.0968 117.303 80.3633 116.364 80.3633 115.19L80.3633 86.3781C80.3633 85.2045 81.0968 84.2655 82.3291 84.2655L82.6519 84.2655C83.8841 84.2655 84.6176 85.2045 84.6176 86.3781L84.6176 99.6106ZM70.857 96.7352C70.2115 96.4418 69.0085 96.3245 68.3338 96.2951 64.7835 96.1484 62.2309 98.1729 60.7053 101.283 60.1772 102.369 59.9424 103.513 59.9424 104.686 59.9424 108.325 61.8495 110.877 65.1063 112.432 66.2799 112.99 67.8349 113.107 69.1259 113.107 70.2702 113.107 71.8839 112.403 72.8815 111.934L73.0575 111.846 73.8498 111.846 73.9378 111.875C74.906 112.08 75.6395 112.696 75.6395 113.723L75.6395 114.134C75.6395 116.716 70.9157 117.303 69.1259 117.45 62.759 117.889 58.0059 114.398 56.1868 108.325 55.864 107.268 55.7174 106.212 55.7174 105.127L55.7174 104.276C55.7174 99.6692 58.0059 96.031 61.9375 93.6839 63.7859 92.5982 65.8104 92.0407 67.923 92.0407L68.7738 92.0407C71.033 92.0407 73.1163 92.6862 74.994 93.9479L75.1406 94.0652 75.2288 94.212C75.4341 94.5347 75.6101 94.9455 75.6101 95.3269L75.6101 95.7376C75.6101 96.8232 74.7886 97.41 73.8204 97.5861L73.4683 97.5861C72.8521 97.6447 71.4145 96.9992 70.857 96.7352ZM32.1277 104.804C32.1277 108.031 33.7121 110.408 36.4407 112.08 37.7317 112.872 39.1401 113.225 40.6364 113.225 43.8346 113.225 46.1818 111.611 47.8248 108.912 48.6169 107.621 48.9691 106.212 48.9691 104.716 48.9691 101.723 47.5314 99.4345 45.0668 97.7621 43.7172 96.8526 42.1914 96.3831 40.5777 96.3831 37.0276 96.3831 34.4749 98.1729 32.9198 101.371 32.3624 102.457 32.1277 103.601 32.1277 104.804ZM40.1377 92.1581 40.7244 92.1581C45.6537 92.1581 49.3798 94.5347 51.7564 98.8477 52.6953 100.579 53.2234 102.427 53.2234 104.393L53.2234 105.244C53.2234 109.85 50.9642 113.518 46.9739 115.836 45.1254 116.922 43.1011 117.478 40.9886 117.478L40.1377 117.478C35.5312 117.478 31.8637 115.19 29.5457 111.259 28.4602 109.41 27.9027 107.386 27.9027 105.273L27.9027 104.422C27.9027 99.816 30.1912 96.1777 34.1228 93.8305 35.9713 92.6862 37.9958 92.1581 40.1377 92.1581ZM4.34238 104.804C4.34238 108.119 5.95609 110.613 8.8608 112.227 10.0344 112.872 11.3254 113.225 12.675 113.225 15.9318 113.225 18.3671 111.699 20.0395 108.912 20.8023 107.621 21.1837 106.212 21.1837 104.716 21.1837 101.84 19.8047 99.5812 17.4869 97.9089 16.0785 96.882 14.4941 96.3831 12.7631 96.3831 9.21287 96.3831 6.66027 98.1729 5.10523 101.371 4.57709 102.457 4.34238 103.601 4.34238 104.804ZM21.1545 95.3269 21.1545 86.3487C21.1545 85.1751 21.888 84.2362 23.1202 84.2362L23.4723 84.2362C24.7046 84.2362 25.4381 85.1751 25.4381 86.3487L25.4381 105.215C25.4381 109.821 23.1496 113.489 19.1886 115.806 17.3401 116.892 15.3157 117.45 13.2031 117.45L12.323 117.45C7.71651 117.45 4.04897 115.161 1.73108 111.229 0.645488 109.381 0.0880212 107.356 0.0880211 105.244L0.0880211 104.393C0.0880211 99.7866 2.37657 96.1191 6.30818 93.8011 8.15662 92.7156 10.1811 92.1581 12.2936 92.1581L13.1445 92.1581C16.284 92.1581 18.9246 93.3611 21.1545 95.3269ZM80.8034 25.0567 93.3317 25.0567 93.3317 37.8491 99.6692 37.8491C102.603 37.8491 105.596 37.3209 108.383 36.3821 109.733 35.9126 111.259 35.2671 112.608 34.4749 110.848 32.1571 109.938 29.2523 109.674 26.377 109.322 22.4747 110.114 17.3695 112.755 14.3181L114.075 12.7924 115.631 14.054C119.591 17.2228 122.907 21.6532 123.494 26.7291 128.247 25.3207 133.822 25.6728 138.017 28.0787L139.749 29.0763 138.839 30.8367C135.288 37.7611 127.866 39.9029 120.618 39.5214 109.762 66.5439 86.1726 79.3364 57.5364 79.3364 42.7489 79.3364 29.1643 73.8204 21.4478 60.6759L21.3305 60.4705 20.2155 58.1819C17.6042 52.4019 16.724 46.0644 17.3108 39.7562L17.4869 37.8491 28.1961 37.8491 28.1961 25.0567 40.7244 25.0567 40.7244 12.5284 65.7811 12.5284 65.7811 0 80.8034 0 80.8034 25.0567Z" stroke="#196B24" stroke-width="0.114744" fill="#394D54" transform="matrix(1 0 0 1.003 6.82843 6.89807)"/><path d="M121.381 29.7805C122.231 23.267 117.333 18.1323 114.31 15.6971 110.819 19.7461 110.291 30.3086 115.748 34.7683 112.696 37.4971 106.242 39.9322 99.6692 39.9322L19.3646 39.9322C18.7191 46.8272 19.9221 53.1648 22.6801 58.5928L23.5897 60.2652C24.1765 61.2334 24.7926 62.2015 25.4968 63.1112 28.7829 63.3165 31.8343 63.4045 34.6217 63.3459 40.0789 63.2285 44.5681 62.583 47.9422 61.4094 48.4409 61.2334 48.9984 61.4974 49.1744 61.9962 49.3505 62.495 49.0864 63.0524 48.5877 63.2285 48.1476 63.3752 47.6781 63.5219 47.1793 63.6686 44.5093 64.4314 41.6633 64.9303 37.9664 65.165 38.1718 65.165 37.7317 65.1943 37.7317 65.1943 37.6143 65.1943 37.4383 65.2237 37.3209 65.2237 35.8833 65.3117 34.2989 65.3117 32.7146 65.3117 30.9541 65.3117 29.2523 65.2823 27.3158 65.1943L27.2572 65.2237C33.9468 72.7348 44.3919 77.2531 57.5072 77.2531 85.2631 77.2531 108.794 64.9595 119.21 37.3503 126.604 38.1132 133.705 36.2353 136.931 29.9272 131.826 26.9345 125.196 27.8733 121.381 29.7805Z" stroke="#196B24" stroke-width="0.114744" fill="#00AADA" transform="matrix(1 0 0 1.003 6.82843 6.89807)"/><path d="M121.381 29.7805C122.231 23.267 117.333 18.1323 114.31 15.6971 110.819 19.7461 110.291 30.3086 115.748 34.7683 112.696 37.4971 106.242 39.9322 99.6692 39.9322L24.1178 39.9322C23.7951 50.4654 27.6973 58.4754 34.6217 63.3165 40.0789 63.1992 44.5681 62.5537 47.9422 61.38 48.4409 61.204 48.9984 61.468 49.1744 61.9669 49.3505 62.4657 49.0864 63.0231 48.5877 63.1992 48.1476 63.3459 47.6781 63.4925 47.1793 63.6393 44.5093 64.4022 41.3993 64.9889 37.7317 65.1943L37.6437 65.1063C47.0913 69.9474 60.7933 69.9474 76.4904 63.9033 94.0946 57.155 110.467 44.2453 121.909 29.5164 121.704 29.6338 121.557 29.7218 121.381 29.7805Z" stroke="#196B24" stroke-width="0.114744" fill="#24B8EB" transform="matrix(1 0 0 1.003 6.82843 6.89807)"/><path d="M19.5407 48.3236C20.0395 52.0204 21.1251 55.4533 22.7095 58.622L23.619 60.2944C24.2058 61.2627 24.822 62.2309 25.5261 63.1405 28.8416 63.3459 31.8637 63.4339 34.651 63.3752 40.1083 63.2579 44.5973 62.6124 47.9715 61.4388 48.4703 61.2627 49.0278 61.5268 49.2038 62.0255 49.3798 62.5243 49.1158 63.0818 48.6169 63.2579 48.1769 63.4045 47.7074 63.5513 47.2087 63.6979 44.5387 64.4608 41.4579 64.9889 37.7611 65.2237 37.6437 65.2237 37.409 65.2237 37.2916 65.253 35.8539 65.341 34.2989 65.3704 32.6852 65.3704 30.9247 65.3704 29.135 65.341 27.2278 65.253 33.9175 72.7641 44.4507 77.2825 57.5658 77.2825 81.3315 77.2825 101.987 68.275 113.987 48.3529L19.5407 48.3529Z" stroke="#196B24" stroke-width="0.114744" fill="#008BB8" transform="matrix(1 0 0 1.003 6.82843 6.89807)"/><path d="M24.8513 48.3236C26.2596 54.8078 29.6925 59.8837 34.651 63.3459 40.1083 63.2285 44.5973 62.583 47.9715 61.4094 48.4703 61.2334 49.0278 61.4974 49.2038 61.9962 49.3798 62.495 49.1158 63.0524 48.6169 63.2285 48.1769 63.3752 47.7074 63.5219 47.2087 63.6686 44.5387 64.4314 41.3993 64.9595 37.7023 65.1943 47.1499 70.0355 60.7933 69.9768 76.4904 63.9327 85.9966 60.2944 95.1215 54.8665 103.337 48.3236L24.8513 48.3236Z" stroke="#196B24" stroke-width="0.114744" fill="#039BC6" transform="matrix(1 0 0 1.003 6.82843 6.89807)"/><path d="M39.3748 28.0493 40.2257 28.0493 40.2257 37.0862 39.3748 37.0862 39.3748 28.0493ZM37.7317 28.0493 38.6119 28.0493 38.6119 37.0862 37.7317 37.0862 37.7317 28.0493ZM36.0887 28.0493 36.9688 28.0493 36.9688 37.0862 36.0887 37.0862 36.0887 28.0493ZM34.4456 28.0493 35.3258 28.0493 35.3258 37.0862 34.4456 37.0862 34.4456 28.0493ZM32.8026 28.0493 33.6827 28.0493 33.6827 37.0862 32.8026 37.0862 32.8026 28.0493ZM31.1888 28.0493 32.0397 28.0493 32.0397 37.0862 31.1888 37.0862 31.1888 28.0493ZM30.2792 27.1398 41.1352 27.1398 41.1352 37.9958 30.2792 37.9958 30.2792 27.1398ZM51.9032 15.5211 52.754 15.5211 52.754 24.558 51.9032 24.558 51.9032 15.5211ZM50.2601 15.5211 51.1403 15.5211 51.1403 24.558 50.2601 24.558 50.2601 15.5211ZM48.6169 15.5211 49.4972 15.5211 49.4972 24.558 48.6169 24.558 48.6169 15.5211ZM46.9739 15.5211 47.8542 15.5211 47.8542 24.558 46.9739 24.558 46.9739 15.5211ZM45.3309 15.5211 46.2111 15.5211 46.2111 24.558 45.3309 24.558 45.3309 15.5211ZM43.7172 15.5211 44.5681 15.5211 44.5681 24.558 43.7172 24.558 43.7172 15.5211ZM42.8076 14.6115 53.6635 14.6115 53.6635 25.4675 42.8076 25.4675 42.8076 14.6115Z" stroke="#196B24" stroke-width="0.114744" fill="#00ACD3" transform="matrix(1 0 0 1.003 6.82843 6.89807)"/><path d="M51.9032 28.0493 52.754 28.0493 52.754 37.0862 51.9032 37.0862 51.9032 28.0493ZM50.2601 28.0493 51.1403 28.0493 51.1403 37.0862 50.2601 37.0862 50.2601 28.0493ZM48.6169 28.0493 49.4972 28.0493 49.4972 37.0862 48.6169 37.0862 48.6169 28.0493ZM46.9739 28.0493 47.8542 28.0493 47.8542 37.0862 46.9739 37.0862 46.9739 28.0493ZM45.3309 28.0493 46.2111 28.0493 46.2111 37.0862 45.3309 37.0862 45.3309 28.0493ZM43.7172 28.0493 44.5681 28.0493 44.5681 37.0862 43.7172 37.0862 43.7172 28.0493ZM42.8076 27.1398 53.6635 27.1398 53.6635 37.9958 42.8076 37.9958 42.8076 27.1398Z" stroke="#196B24" stroke-width="0.114744" fill="#20C2EF" transform="matrix(1 0 0 1.003 6.82843 6.89807)"/><path d="M64.4314 28.0493 65.2823 28.0493 65.2823 37.0862 64.4314 37.0862 64.4314 28.0493ZM62.7884 28.0493 63.6686 28.0493 63.6686 37.0862 62.7884 37.0862 62.7884 28.0493ZM61.1453 28.0493 62.0255 28.0493 62.0255 37.0862 61.1453 37.0862 61.1453 28.0493ZM59.5023 28.0493 60.3825 28.0493 60.3825 37.0862 59.5023 37.0862 59.5023 28.0493ZM57.8299 28.0493 58.71 28.0493 58.71 37.0862 57.8299 37.0862 57.8299 28.0493ZM56.2455 28.0493 57.0964 28.0493 57.0964 37.0862 56.2455 37.0862 56.2455 28.0493ZM55.3359 27.1398 66.1919 27.1398 66.1919 37.9958 55.3359 37.9958 55.3359 27.1398Z" stroke="#196B24" stroke-width="0.114744" fill="#00ACD3" transform="matrix(1 0 0 1.003 6.82843 6.89807)"/><path d="M64.4314 15.5211 65.2823 15.5211 65.2823 24.558 64.4314 24.558 64.4314 15.5211ZM62.7884 15.5211 63.6686 15.5211 63.6686 24.558 62.7884 24.558 62.7884 15.5211ZM61.1453 15.5211 62.0255 15.5211 62.0255 24.558 61.1453 24.558 61.1453 15.5211ZM59.5023 15.5211 60.3825 15.5211 60.3825 24.558 59.5023 24.558 59.5023 15.5211ZM57.8299 15.5211 58.71 15.5211 58.71 24.558 57.8299 24.558 57.8299 15.5211ZM56.2455 15.5211 57.0964 15.5211 57.0964 24.558 56.2455 24.558 56.2455 15.5211ZM55.3359 14.6115 66.1919 14.6115 66.1919 25.4675 55.3359 25.4675 55.3359 14.6115ZM76.9598 28.0493 77.8106 28.0493 77.8106 37.0862 76.9598 37.0862 76.9598 28.0493ZM75.3168 28.0493 76.197 28.0493 76.197 37.0862 75.3168 37.0862 75.3168 28.0493ZM73.6736 28.0493 74.5539 28.0493 74.5539 37.0862 73.6736 37.0862 73.6736 28.0493ZM72.0013 28.0493 72.8815 28.0493 72.8815 37.0862 72.0013 37.0862 72.0013 28.0493ZM70.3583 28.0493 71.2384 28.0493 71.2384 37.0862 70.3583 37.0862 70.3583 28.0493ZM68.7738 28.0493 69.6247 28.0493 69.6247 37.0862 68.7738 37.0862 68.7738 28.0493ZM67.8643 27.1398 78.7203 27.1398 78.7203 37.9958 67.8643 37.9958 67.8643 27.1398Z" stroke="#196B24" stroke-width="0.114744" fill="#20C2EF" transform="matrix(1 0 0 1.003 6.82843 6.89807)"/><path d="M76.9598 15.5211 77.8106 15.5211 77.8106 24.558 76.9598 24.558 76.9598 15.5211ZM75.3168 15.5211 76.197 15.5211 76.197 24.558 75.3168 24.558 75.3168 15.5211ZM73.6736 15.5211 74.5539 15.5211 74.5539 24.558 73.6736 24.558 73.6736 15.5211ZM72.0013 15.5211 72.8815 15.5211 72.8815 24.558 72.0013 24.558 72.0013 15.5211ZM70.3583 15.5211 71.2384 15.5211 71.2384 24.558 70.3583 24.558 70.3583 15.5211ZM68.7738 15.5211 69.6247 15.5211 69.6247 24.558 68.7738 24.558 68.7738 15.5211ZM67.8643 14.6115 78.7203 14.6115 78.7203 25.4675 67.8643 25.4675 67.8643 14.6115Z" stroke="#196B24" stroke-width="0.114744" fill="#00ACD3" transform="matrix(1 0 0 1.003 6.82843 6.89807)"/><path d="M76.9598 2.99272 77.8106 2.99272 77.8106 12.0296 76.9598 12.0296 76.9598 2.99272ZM75.3168 2.99272 76.197 2.99272 76.197 12.0296 75.3168 12.0296 75.3168 2.99272ZM73.6736 2.99272 74.5539 2.99272 74.5539 12.0296 73.6736 12.0296 73.6736 2.99272ZM72.0013 2.99272 72.8815 2.99272 72.8815 12.0296 72.0013 12.0296 72.0013 2.99272ZM70.3583 2.99272 71.2384 2.99272 71.2384 12.0296 70.3583 12.0296 70.3583 2.99272ZM68.7738 2.99272 69.6247 2.99272 69.6247 12.0296 68.7738 12.0296 68.7738 2.99272ZM67.8643 2.08317 78.7203 2.08317 78.7203 12.9391 67.8643 12.9391 67.8643 2.08317Z" stroke="#196B24" stroke-width="0.114744" fill="#20C2EF" transform="matrix(1 0 0 1.003 6.82843 6.89807)"/><path d="M89.4881 28.0493 90.339 28.0493 90.339 37.0862 89.4881 37.0862 89.4881 28.0493ZM87.8451 28.0493 88.7253 28.0493 88.7253 37.0862 87.8451 37.0862 87.8451 28.0493ZM86.1726 28.0493 87.0529 28.0493 87.0529 37.0862 86.1726 37.0862 86.1726 28.0493ZM84.5296 28.0493 85.4099 28.0493 85.4099 37.0862 84.5296 37.0862 84.5296 28.0493ZM82.8865 28.0493 83.7668 28.0493 83.7668 37.0862 82.8865 37.0862 82.8865 28.0493ZM81.2729 28.0493 82.1236 28.0493 82.1236 37.0862 81.2729 37.0862 81.2729 28.0493ZM80.3926 27.1398 91.2486 27.1398 91.2486 37.9958 80.3926 37.9958 80.3926 27.1398Z" stroke="#196B24" stroke-width="0.114744" fill="#00ACD3" transform="matrix(1 0 0 1.003 6.82843 6.89807)"/><path d="M52.9887 55.6C54.6318 55.6 55.9814 56.9497 55.9814 58.5928 55.9814 60.2358 54.6318 61.5854 52.9887 61.5854 51.3457 61.5854 49.9959 60.2358 49.9959 58.5928 49.9959 56.9497 51.3163 55.6 52.9887 55.6" stroke="#196B24" stroke-width="0.114744" fill="#D4EDF1" transform="matrix(1 0 0 1.003 6.82843 6.89807)"/><path d="M52.9887 56.4509C53.2528 56.4509 53.5168 56.5095 53.7515 56.5975 53.4875 56.7443 53.3114 57.0377 53.3114 57.3604 53.3114 57.8299 53.6929 58.2407 54.1917 58.2407 54.5144 58.2407 54.8078 58.0647 54.9545 57.7712 55.0719 58.0353 55.1305 58.2993 55.1305 58.5928 55.1305 59.7663 54.1623 60.7345 52.9887 60.7345 51.8151 60.7345 50.8469 59.7663 50.8469 58.5928 50.8469 57.4192 51.7858 56.4509 52.9887 56.4509M0 49.3798 139.338 49.3798C136.315 48.6169 129.743 47.5608 130.829 43.5998 125.313 49.9959 112.022 48.0889 108.647 44.9201 104.921 50.3481 83.1506 48.2943 81.6249 44.0692 76.9305 49.5559 62.4069 49.5559 57.7125 44.0692 56.1868 48.2943 34.4162 50.3481 30.6901 44.9201 27.3452 48.0596 14.0247 49.9667 8.50871 43.5998 9.5943 47.5901 3.02206 48.6169-1.79382e-14 49.3798" stroke="#196B24" stroke-width="0.114744" fill="#394D54" transform="matrix(1 0 0 1.003 6.82843 6.89807)"/><path d="M60.9399 77.1945C53.5168 73.6736 49.4385 68.8912 47.1793 63.6686 44.4213 64.4608 41.1058 64.9595 37.2623 65.165 35.8246 65.253 34.2989 65.2823 32.6852 65.2823 30.8367 65.2823 28.9002 65.2237 26.8465 65.1063 33.6534 71.9133 42.0154 77.1359 57.5072 77.2239 58.6808 77.2531 59.7957 77.2239 60.9399 77.1945Z" stroke="#196B24" stroke-width="0.114744" fill="#BFDBE0" transform="matrix(1 0 0 1.003 6.82843 6.89807)"/><path d="M49.9373 68.4804C48.9104 67.1014 47.9128 65.341 47.1793 63.6686 44.4213 64.4608 41.1058 64.9595 37.2623 65.165 39.9029 66.6027 43.6878 67.923 49.9373 68.4804Z" stroke="#196B24" stroke-width="0.114744" fill="#D4EDF1" transform="matrix(1 0 0 1.003 6.82843 6.89807)"/></g></g></g></g></g><g clip-path="url(#clip7)"><g clip-path="url(#clip8)"><g clip-path="url(#clip9)"><path d="M103.718 110.114C106.858 107.415 110.026 104.716 113.166 101.987 114.251 101.048 115.425 100.109 116.481 99.1117 115.631 98.0262 114.193 97.2634 112.99 96.7939 110.555 95.855 108.119 96.1777 105.889 97.4687 102.955 99.1705 101.694 101.87 101.811 105.244 101.84 106.564 102.222 107.855 102.926 108.97 103.131 109.381 103.425 109.762 103.718 110.114M107.356 112.667C108.912 113.195 110.672 113.137 112.256 112.843 113.078 112.491 115.132 111.581 115.895 111.728L116.012 111.758 116.129 111.816C116.598 112.051 117.039 112.374 117.273 112.843 117.831 113.958 117.567 115.073 116.481 115.689L116.129 115.895C112.11 118.213 107.826 117.889 103.806 115.718 101.899 114.692 100.432 113.137 99.3465 111.259L99.0825 110.819C96.5005 106.33 96.8526 101.635 99.7572 97.3807 100.755 95.9137 102.075 94.7694 103.63 93.8892L104.217 93.5665C108.002 91.366 112.08 91.5126 115.982 93.4491 118.066 94.476 119.768 96.031 120.94 98.0555L121.146 98.4076C121.997 99.8746 120.882 101.166 119.768 102.046 118.447 103.073 117.127 104.276 115.865 105.391 112.99 107.797 110.173 110.261 107.356 112.667ZM137.518 92.3049 137.929 92.3049C139.191 92.3049 140.041 93.1556 140.041 94.4174 140.041 96.1777 138.369 96.6179 136.902 96.6179 134.996 96.6179 133.176 97.7621 131.856 99.0531 130.213 100.667 129.508 102.75 129.508 105.009L129.508 115.279C129.508 116.452 128.775 117.391 127.542 117.391L127.22 117.391C125.987 117.391 125.254 116.452 125.254 115.279L125.254 104.422C125.254 100.256 127.278 96.8526 130.682 94.4466 132.736 93.0676 135.054 92.3049 137.518 92.3049ZM84.6176 99.6106C86.2607 97.9675 87.9331 96.3245 89.6055 94.6814 90.075 94.2412 91.8354 92.3049 92.5395 92.3049L93.3024 92.3049 93.3904 92.3341C94.3586 92.5395 95.0921 93.1556 95.0921 94.1826L95.0921 94.5934C95.0921 95.2975 94.2706 96.1191 93.8011 96.6179 92.833 97.6447 91.806 98.6424 90.8085 99.6692L85.6739 104.863C87.8744 107.063 90.075 109.293 92.2755 111.523 92.8916 112.139 93.4785 112.755 94.0946 113.371 94.3 113.606 94.6227 113.87 94.7987 114.163 94.9747 114.457 95.0921 114.779 95.0921 115.132L95.0921 115.572 95.0628 115.66C94.8281 116.628 94.212 117.42 93.1264 117.42L92.7742 117.42C92.0701 117.42 91.2779 116.628 90.8085 116.159 89.8109 115.22 88.872 114.251 87.8744 113.283L84.6176 110.085 84.6176 115.19C84.6176 116.364 83.8841 117.303 82.6519 117.303L82.3291 117.303C81.0968 117.303 80.3633 116.364 80.3633 115.19L80.3633 86.3781C80.3633 85.2045 81.0968 84.2655 82.3291 84.2655L82.6519 84.2655C83.8841 84.2655 84.6176 85.2045 84.6176 86.3781L84.6176 99.6106ZM70.857 96.7352C70.2115 96.4418 69.0085 96.3245 68.3338 96.2951 64.7835 96.1484 62.2309 98.1729 60.7053 101.283 60.1772 102.369 59.9424 103.513 59.9424 104.686 59.9424 108.325 61.8495 110.877 65.1063 112.432 66.2799 112.99 67.8349 113.107 69.1259 113.107 70.2702 113.107 71.8839 112.403 72.8815 111.934L73.0575 111.846 73.8498 111.846 73.9378 111.875C74.906 112.08 75.6395 112.696 75.6395 113.723L75.6395 114.134C75.6395 116.716 70.9157 117.303 69.1259 117.45 62.759 117.889 58.0059 114.398 56.1868 108.325 55.864 107.268 55.7174 106.212 55.7174 105.127L55.7174 104.276C55.7174 99.6692 58.0059 96.031 61.9375 93.6839 63.7859 92.5982 65.8104 92.0407 67.923 92.0407L68.7738 92.0407C71.033 92.0407 73.1163 92.6862 74.994 93.9479L75.1406 94.0652 75.2288 94.212C75.4341 94.5347 75.6101 94.9455 75.6101 95.3269L75.6101 95.7376C75.6101 96.8232 74.7886 97.41 73.8204 97.5861L73.4683 97.5861C72.8521 97.6447 71.4145 96.9992 70.857 96.7352ZM32.1277 104.804C32.1277 108.031 33.7121 110.408 36.4407 112.08 37.7317 112.872 39.1401 113.225 40.6364 113.225 43.8346 113.225 46.1818 111.611 47.8248 108.912 48.6169 107.621 48.9691 106.212 48.9691 104.716 48.9691 101.723 47.5314 99.4345 45.0668 97.7621 43.7172 96.8526 42.1914 96.3831 40.5777 96.3831 37.0276 96.3831 34.4749 98.1729 32.9198 101.371 32.3624 102.457 32.1277 103.601 32.1277 104.804ZM40.1377 92.1581 40.7244 92.1581C45.6537 92.1581 49.3798 94.5347 51.7564 98.8477 52.6953 100.579 53.2234 102.427 53.2234 104.393L53.2234 105.244C53.2234 109.85 50.9642 113.518 46.9739 115.836 45.1254 116.922 43.1011 117.478 40.9886 117.478L40.1377 117.478C35.5312 117.478 31.8637 115.19 29.5457 111.259 28.4602 109.41 27.9027 107.386 27.9027 105.273L27.9027 104.422C27.9027 99.816 30.1912 96.1777 34.1228 93.8305 35.9713 92.6862 37.9958 92.1581 40.1377 92.1581ZM4.34238 104.804C4.34238 108.119 5.95609 110.613 8.8608 112.227 10.0344 112.872 11.3254 113.225 12.675 113.225 15.9318 113.225 18.3671 111.699 20.0395 108.912 20.8023 107.621 21.1837 106.212 21.1837 104.716 21.1837 101.84 19.8047 99.5812 17.4869 97.9089 16.0785 96.882 14.4941 96.3831 12.7631 96.3831 9.21287 96.3831 6.66027 98.1729 5.10523 101.371 4.57709 102.457 4.34238 103.601 4.34238 104.804ZM21.1545 95.3269 21.1545 86.3487C21.1545 85.1751 21.888 84.2362 23.1202 84.2362L23.4723 84.2362C24.7046 84.2362 25.4381 85.1751 25.4381 86.3487L25.4381 105.215C25.4381 109.821 23.1496 113.489 19.1886 115.806 17.3401 116.892 15.3157 117.45 13.2031 117.45L12.323 117.45C7.71651 117.45 4.04897 115.161 1.73108 111.229 0.645488 109.381 0.0880212 107.356 0.0880211 105.244L0.0880211 104.393C0.0880211 99.7866 2.37657 96.1191 6.30818 93.8011 8.15662 92.7156 10.1811 92.1581 12.2936 92.1581L13.1445 92.1581C16.284 92.1581 18.9246 93.3611 21.1545 95.3269ZM80.8034 25.0567 93.3317 25.0567 93.3317 37.8491 99.6692 37.8491C102.603 37.8491 105.596 37.3209 108.383 36.3821 109.733 35.9126 111.259 35.2671 112.608 34.4749 110.848 32.1571 109.938 29.2523 109.674 26.377 109.322 22.4747 110.114 17.3695 112.755 14.3181L114.075 12.7924 115.631 14.054C119.591 17.2228 122.907 21.6532 123.494 26.7291 128.247 25.3207 133.822 25.6728 138.017 28.0787L139.749 29.0763 138.839 30.8367C135.288 37.7611 127.866 39.9029 120.618 39.5214 109.762 66.5439 86.1726 79.3364 57.5364 79.3364 42.7489 79.3364 29.1643 73.8204 21.4478 60.6759L21.3305 60.4705 20.2155 58.1819C17.6042 52.4019 16.724 46.0644 17.3108 39.7562L17.4869 37.8491 28.1961 37.8491 28.1961 25.0567 40.7244 25.0567 40.7244 12.5284 65.7811 12.5284 65.7811 0 80.8034 0 80.8034 25.0567Z" stroke="#196B24" stroke-width="0.114744" fill="#394D54" transform="matrix(1 0 0 1.003 570 249.07)"/><path d="M121.381 29.7805C122.231 23.267 117.333 18.1323 114.31 15.6971 110.819 19.7461 110.291 30.3086 115.748 34.7683 112.696 37.4971 106.242 39.9322 99.6692 39.9322L19.3646 39.9322C18.7191 46.8272 19.9221 53.1648 22.6801 58.5928L23.5897 60.2652C24.1765 61.2334 24.7926 62.2015 25.4968 63.1112 28.7829 63.3165 31.8343 63.4045 34.6217 63.3459 40.0789 63.2285 44.5681 62.583 47.9422 61.4094 48.4409 61.2334 48.9984 61.4974 49.1744 61.9962 49.3505 62.495 49.0864 63.0524 48.5877 63.2285 48.1476 63.3752 47.6781 63.5219 47.1793 63.6686 44.5093 64.4314 41.6633 64.9303 37.9664 65.165 38.1718 65.165 37.7317 65.1943 37.7317 65.1943 37.6143 65.1943 37.4383 65.2237 37.3209 65.2237 35.8833 65.3117 34.2989 65.3117 32.7146 65.3117 30.9541 65.3117 29.2523 65.2823 27.3158 65.1943L27.2572 65.2237C33.9468 72.7348 44.3919 77.2531 57.5072 77.2531 85.2631 77.2531 108.794 64.9595 119.21 37.3503 126.604 38.1132 133.705 36.2353 136.931 29.9272 131.826 26.9345 125.196 27.8733 121.381 29.7805Z" stroke="#196B24" stroke-width="0.114744" fill="#00AADA" transform="matrix(1 0 0 1.003 570 249.07)"/><path d="M121.381 29.7805C122.231 23.267 117.333 18.1323 114.31 15.6971 110.819 19.7461 110.291 30.3086 115.748 34.7683 112.696 37.4971 106.242 39.9322 99.6692 39.9322L24.1178 39.9322C23.7951 50.4654 27.6973 58.4754 34.6217 63.3165 40.0789 63.1992 44.5681 62.5537 47.9422 61.38 48.4409 61.204 48.9984 61.468 49.1744 61.9669 49.3505 62.4657 49.0864 63.0231 48.5877 63.1992 48.1476 63.3459 47.6781 63.4925 47.1793 63.6393 44.5093 64.4022 41.3993 64.9889 37.7317 65.1943L37.6437 65.1063C47.0913 69.9474 60.7933 69.9474 76.4904 63.9033 94.0946 57.155 110.467 44.2453 121.909 29.5164 121.704 29.6338 121.557 29.7218 121.381 29.7805Z" stroke="#196B24" stroke-width="0.114744" fill="#24B8EB" transform="matrix(1 0 0 1.003 570 249.07)"/><path d="M19.5407 48.3236C20.0395 52.0204 21.1251 55.4533 22.7095 58.622L23.619 60.2944C24.2058 61.2627 24.822 62.2309 25.5261 63.1405 28.8416 63.3459 31.8637 63.4339 34.651 63.3752 40.1083 63.2579 44.5973 62.6124 47.9715 61.4388 48.4703 61.2627 49.0278 61.5268 49.2038 62.0255 49.3798 62.5243 49.1158 63.0818 48.6169 63.2579 48.1769 63.4045 47.7074 63.5513 47.2087 63.6979 44.5387 64.4608 41.4579 64.9889 37.7611 65.2237 37.6437 65.2237 37.409 65.2237 37.2916 65.253 35.8539 65.341 34.2989 65.3704 32.6852 65.3704 30.9247 65.3704 29.135 65.341 27.2278 65.253 33.9175 72.7641 44.4507 77.2825 57.5658 77.2825 81.3315 77.2825 101.987 68.275 113.987 48.3529L19.5407 48.3529Z" stroke="#196B24" stroke-width="0.114744" fill="#008BB8" transform="matrix(1 0 0 1.003 570 249.07)"/><path d="M24.8513 48.3236C26.2596 54.8078 29.6925 59.8837 34.651 63.3459 40.1083 63.2285 44.5973 62.583 47.9715 61.4094 48.4703 61.2334 49.0278 61.4974 49.2038 61.9962 49.3798 62.495 49.1158 63.0524 48.6169 63.2285 48.1769 63.3752 47.7074 63.5219 47.2087 63.6686 44.5387 64.4314 41.3993 64.9595 37.7023 65.1943 47.1499 70.0355 60.7933 69.9768 76.4904 63.9327 85.9966 60.2944 95.1215 54.8665 103.337 48.3236L24.8513 48.3236Z" stroke="#196B24" stroke-width="0.114744" fill="#039BC6" transform="matrix(1 0 0 1.003 570 249.07)"/><path d="M39.3748 28.0493 40.2257 28.0493 40.2257 37.0862 39.3748 37.0862 39.3748 28.0493ZM37.7317 28.0493 38.6119 28.0493 38.6119 37.0862 37.7317 37.0862 37.7317 28.0493ZM36.0887 28.0493 36.9688 28.0493 36.9688 37.0862 36.0887 37.0862 36.0887 28.0493ZM34.4456 28.0493 35.3258 28.0493 35.3258 37.0862 34.4456 37.0862 34.4456 28.0493ZM32.8026 28.0493 33.6827 28.0493 33.6827 37.0862 32.8026 37.0862 32.8026 28.0493ZM31.1888 28.0493 32.0397 28.0493 32.0397 37.0862 31.1888 37.0862 31.1888 28.0493ZM30.2792 27.1398 41.1352 27.1398 41.1352 37.9958 30.2792 37.9958 30.2792 27.1398ZM51.9032 15.5211 52.754 15.5211 52.754 24.558 51.9032 24.558 51.9032 15.5211ZM50.2601 15.5211 51.1403 15.5211 51.1403 24.558 50.2601 24.558 50.2601 15.5211ZM48.6169 15.5211 49.4972 15.5211 49.4972 24.558 48.6169 24.558 48.6169 15.5211ZM46.9739 15.5211 47.8542 15.5211 47.8542 24.558 46.9739 24.558 46.9739 15.5211ZM45.3309 15.5211 46.2111 15.5211 46.2111 24.558 45.3309 24.558 45.3309 15.5211ZM43.7172 15.5211 44.5681 15.5211 44.5681 24.558 43.7172 24.558 43.7172 15.5211ZM42.8076 14.6115 53.6635 14.6115 53.6635 25.4675 42.8076 25.4675 42.8076 14.6115Z" stroke="#196B24" stroke-width="0.114744" fill="#00ACD3" transform="matrix(1 0 0 1.003 570 249.07)"/><path d="M51.9032 28.0493 52.754 28.0493 52.754 37.0862 51.9032 37.0862 51.9032 28.0493ZM50.2601 28.0493 51.1403 28.0493 51.1403 37.0862 50.2601 37.0862 50.2601 28.0493ZM48.6169 28.0493 49.4972 28.0493 49.4972 37.0862 48.6169 37.0862 48.6169 28.0493ZM46.9739 28.0493 47.8542 28.0493 47.8542 37.0862 46.9739 37.0862 46.9739 28.0493ZM45.3309 28.0493 46.2111 28.0493 46.2111 37.0862 45.3309 37.0862 45.3309 28.0493ZM43.7172 28.0493 44.5681 28.0493 44.5681 37.0862 43.7172 37.0862 43.7172 28.0493ZM42.8076 27.1398 53.6635 27.1398 53.6635 37.9958 42.8076 37.9958 42.8076 27.1398Z" stroke="#196B24" stroke-width="0.114744" fill="#20C2EF" transform="matrix(1 0 0 1.003 570 249.07)"/><path d="M64.4314 28.0493 65.2823 28.0493 65.2823 37.0862 64.4314 37.0862 64.4314 28.0493ZM62.7884 28.0493 63.6686 28.0493 63.6686 37.0862 62.7884 37.0862 62.7884 28.0493ZM61.1453 28.0493 62.0255 28.0493 62.0255 37.0862 61.1453 37.0862 61.1453 28.0493ZM59.5023 28.0493 60.3825 28.0493 60.3825 37.0862 59.5023 37.0862 59.5023 28.0493ZM57.8299 28.0493 58.71 28.0493 58.71 37.0862 57.8299 37.0862 57.8299 28.0493ZM56.2455 28.0493 57.0964 28.0493 57.0964 37.0862 56.2455 37.0862 56.2455 28.0493ZM55.3359 27.1398 66.1919 27.1398 66.1919 37.9958 55.3359 37.9958 55.3359 27.1398Z" stroke="#196B24" stroke-width="0.114744" fill="#00ACD3" transform="matrix(1 0 0 1.003 570 249.07)"/><path d="M64.4314 15.5211 65.2823 15.5211 65.2823 24.558 64.4314 24.558 64.4314 15.5211ZM62.7884 15.5211 63.6686 15.5211 63.6686 24.558 62.7884 24.558 62.7884 15.5211ZM61.1453 15.5211 62.0255 15.5211 62.0255 24.558 61.1453 24.558 61.1453 15.5211ZM59.5023 15.5211 60.3825 15.5211 60.3825 24.558 59.5023 24.558 59.5023 15.5211ZM57.8299 15.5211 58.71 15.5211 58.71 24.558 57.8299 24.558 57.8299 15.5211ZM56.2455 15.5211 57.0964 15.5211 57.0964 24.558 56.2455 24.558 56.2455 15.5211ZM55.3359 14.6115 66.1919 14.6115 66.1919 25.4675 55.3359 25.4675 55.3359 14.6115ZM76.9598 28.0493 77.8106 28.0493 77.8106 37.0862 76.9598 37.0862 76.9598 28.0493ZM75.3168 28.0493 76.197 28.0493 76.197 37.0862 75.3168 37.0862 75.3168 28.0493ZM73.6736 28.0493 74.5539 28.0493 74.5539 37.0862 73.6736 37.0862 73.6736 28.0493ZM72.0013 28.0493 72.8815 28.0493 72.8815 37.0862 72.0013 37.0862 72.0013 28.0493ZM70.3583 28.0493 71.2384 28.0493 71.2384 37.0862 70.3583 37.0862 70.3583 28.0493ZM68.7738 28.0493 69.6247 28.0493 69.6247 37.0862 68.7738 37.0862 68.7738 28.0493ZM67.8643 27.1398 78.7203 27.1398 78.7203 37.9958 67.8643 37.9958 67.8643 27.1398Z" stroke="#196B24" stroke-width="0.114744" fill="#20C2EF" transform="matrix(1 0 0 1.003 570 249.07)"/><path d="M76.9598 15.5211 77.8106 15.5211 77.8106 24.558 76.9598 24.558 76.9598 15.5211ZM75.3168 15.5211 76.197 15.5211 76.197 24.558 75.3168 24.558 75.3168 15.5211ZM73.6736 15.5211 74.5539 15.5211 74.5539 24.558 73.6736 24.558 73.6736 15.5211ZM72.0013 15.5211 72.8815 15.5211 72.8815 24.558 72.0013 24.558 72.0013 15.5211ZM70.3583 15.5211 71.2384 15.5211 71.2384 24.558 70.3583 24.558 70.3583 15.5211ZM68.7738 15.5211 69.6247 15.5211 69.6247 24.558 68.7738 24.558 68.7738 15.5211ZM67.8643 14.6115 78.7203 14.6115 78.7203 25.4675 67.8643 25.4675 67.8643 14.6115Z" stroke="#196B24" stroke-width="0.114744" fill="#00ACD3" transform="matrix(1 0 0 1.003 570 249.07)"/><path d="M76.9598 2.99272 77.8106 2.99272 77.8106 12.0296 76.9598 12.0296 76.9598 2.99272ZM75.3168 2.99272 76.197 2.99272 76.197 12.0296 75.3168 12.0296 75.3168 2.99272ZM73.6736 2.99272 74.5539 2.99272 74.5539 12.0296 73.6736 12.0296 73.6736 2.99272ZM72.0013 2.99272 72.8815 2.99272 72.8815 12.0296 72.0013 12.0296 72.0013 2.99272ZM70.3583 2.99272 71.2384 2.99272 71.2384 12.0296 70.3583 12.0296 70.3583 2.99272ZM68.7738 2.99272 69.6247 2.99272 69.6247 12.0296 68.7738 12.0296 68.7738 2.99272ZM67.8643 2.08317 78.7203 2.08317 78.7203 12.9391 67.8643 12.9391 67.8643 2.08317Z" stroke="#196B24" stroke-width="0.114744" fill="#20C2EF" transform="matrix(1 0 0 1.003 570 249.07)"/><path d="M89.4881 28.0493 90.339 28.0493 90.339 37.0862 89.4881 37.0862 89.4881 28.0493ZM87.8451 28.0493 88.7253 28.0493 88.7253 37.0862 87.8451 37.0862 87.8451 28.0493ZM86.1726 28.0493 87.0529 28.0493 87.0529 37.0862 86.1726 37.0862 86.1726 28.0493ZM84.5296 28.0493 85.4099 28.0493 85.4099 37.0862 84.5296 37.0862 84.5296 28.0493ZM82.8865 28.0493 83.7668 28.0493 83.7668 37.0862 82.8865 37.0862 82.8865 28.0493ZM81.2729 28.0493 82.1236 28.0493 82.1236 37.0862 81.2729 37.0862 81.2729 28.0493ZM80.3926 27.1398 91.2486 27.1398 91.2486 37.9958 80.3926 37.9958 80.3926 27.1398Z" stroke="#196B24" stroke-width="0.114744" fill="#00ACD3" transform="matrix(1 0 0 1.003 570 249.07)"/><path d="M52.9887 55.6C54.6318 55.6 55.9814 56.9497 55.9814 58.5928 55.9814 60.2358 54.6318 61.5854 52.9887 61.5854 51.3457 61.5854 49.9959 60.2358 49.9959 58.5928 49.9959 56.9497 51.3163 55.6 52.9887 55.6" stroke="#196B24" stroke-width="0.114744" fill="#D4EDF1" transform="matrix(1 0 0 1.003 570 249.07)"/><path d="M52.9887 56.4509C53.2528 56.4509 53.5168 56.5095 53.7515 56.5975 53.4875 56.7443 53.3114 57.0377 53.3114 57.3604 53.3114 57.8299 53.6929 58.2407 54.1917 58.2407 54.5144 58.2407 54.8078 58.0647 54.9545 57.7712 55.0719 58.0353 55.1305 58.2993 55.1305 58.5928 55.1305 59.7663 54.1623 60.7345 52.9887 60.7345 51.8151 60.7345 50.8469 59.7663 50.8469 58.5928 50.8469 57.4192 51.7858 56.4509 52.9887 56.4509M0 49.3798 139.338 49.3798C136.315 48.6169 129.743 47.5608 130.829 43.5998 125.313 49.9959 112.022 48.0889 108.647 44.9201 104.921 50.3481 83.1506 48.2943 81.6249 44.0692 76.9305 49.5559 62.4069 49.5559 57.7125 44.0692 56.1868 48.2943 34.4162 50.3481 30.6901 44.9201 27.3452 48.0596 14.0247 49.9667 8.50871 43.5998 9.5943 47.5901 3.02206 48.6169-1.79382e-14 49.3798" stroke="#196B24" stroke-width="0.114744" fill="#394D54" transform="matrix(1 0 0 1.003 570 249.07)"/><path d="M60.9399 77.1945C53.5168 73.6736 49.4385 68.8912 47.1793 63.6686 44.4213 64.4608 41.1058 64.9595 37.2623 65.165 35.8246 65.253 34.2989 65.2823 32.6852 65.2823 30.8367 65.2823 28.9002 65.2237 26.8465 65.1063 33.6534 71.9133 42.0154 77.1359 57.5072 77.2239 58.6808 77.2531 59.7957 77.2239 60.9399 77.1945Z" stroke="#196B24" stroke-width="0.114744" fill="#BFDBE0" transform="matrix(1 0 0 1.003 570 249.07)"/><path d="M49.9373 68.4804C48.9104 67.1014 47.9128 65.341 47.1793 63.6686 44.4213 64.4608 41.1058 64.9595 37.2623 65.165 39.9029 66.6027 43.6878 67.923 49.9373 68.4804Z" stroke="#196B24" stroke-width="0.114744" fill="#D4EDF1" transform="matrix(1 0 0 1.003 570 249.07)"/></g></g></g></g></svg>